<svg width="296" height="258" viewBox="0 0 296 258" fill="none" xmlns="http://www.w3.org/2000/svg">
<path d="M46.8457 167.001V138.117H72.5757V79.6847H88.6777L49.6677 101.265V68.3967L83.0337 49.9707H108.266V138.117H132.336V167.001H46.8457Z" fill="url(#paint0_linear_215_252)"/>
<mask id="mask0_215_252" style="mask-type:luminance" maskUnits="userSpaceOnUse" x="80" y="77" width="152" height="120">
<path d="M232 77H80V197H232V77Z" fill="white"/>
</mask>
<g mask="url(#mask0_215_252)">
<path d="M170.811 191.099C187.939 192.876 203.776 189.783 214.535 184.86C225.453 179.723 231.292 172.755 231.982 161.947C233.026 139.871 199.724 100.285 166.033 82.7952C148.285 73.5521 132.43 75.934 122.061 85.9414C111.497 95.7888 106.419 113.261 105.941 130.752C105.357 148.936 113.886 165.094 126.06 175.03C138.34 185.304 154.248 189.339 170.811 191.081V191.099Z" fill="#05AC5E"/>
<path d="M92.7935 197L80 196.964L132.713 157.859L137.102 163.76L92.7935 197Z" fill="#0C2D3A"/>
<path d="M209.952 167.12L155.204 164.098C151.541 164.098 148.55 161.681 148.55 158.712V127.179C148.55 124.211 151.541 121.793 155.204 121.793L209.952 116.496C213.615 116.496 216.605 118.914 216.605 121.882V161.716C216.605 164.685 213.615 167.102 209.952 167.102V167.12Z" fill="#295863"/>
<path d="M205.723 163.211L159.433 160.651C156.336 160.651 153.806 158.607 153.806 156.1V129.438C153.806 126.931 156.336 124.887 159.433 124.887L205.723 120.408C208.82 120.408 211.35 122.452 211.35 124.958V158.642C211.35 161.149 208.82 163.193 205.723 163.193V163.211Z" fill="#256981"/>
<path d="M121.052 181.536L112.187 169.431C109.922 166.32 110.612 161.965 113.709 159.69L160.07 125.74L177.11 149.096L130.749 183.047C127.653 185.322 123.317 184.629 121.052 181.518V181.536Z" fill="#0C2D3A"/>
<path d="M187.373 137.01L187.126 151.87C186.524 155.674 182.985 158.269 179.198 157.665L155.664 154.323L160.07 125.705L181.605 129.047C185.391 129.651 187.975 133.206 187.373 137.01Z" fill="#0C2D3A"/>
<path d="M187.833 107.45L209.899 116.391C214.252 116.391 217.826 119.324 217.826 122.914V161.024C217.826 164.615 214.252 167.548 209.899 167.548L187.833 177.715C183.48 177.715 179.906 174.782 179.906 171.192V113.956C179.906 110.365 183.48 107.432 187.833 107.432V107.45Z" fill="#295863"/>
<path d="M163.113 158.126C163.113 158.126 161.662 155.957 159.627 152.953C158.459 151.229 157.115 149.238 155.752 147.212C151.806 141.381 147.683 135.338 147.418 135.107V135.018L147.329 134.769L147.931 134.627L155.257 129.259L155.044 128.761C153.664 125.686 150.691 123.624 147.524 123.535C139.03 123.304 130.855 123.553 130.855 123.553L126.449 116.105L95.3945 117.225L111.975 140.404L111.479 144.883C111.302 146.536 111.692 148.189 112.612 149.558L117.496 156.899L129.528 174.976L130.024 175.705L130.094 175.634C131.705 177.341 133.651 177.341 135.173 176.15C136.695 174.941 137.279 172.915 136.305 170.71L137.774 169.537L139.455 172.061C141.189 174.657 143.507 174.87 145.259 173.483C147.011 172.097 147.542 169.608 145.825 167.013L144.144 164.489L145.312 163.565L148.656 168.577C150.391 171.173 152.39 170.906 154.142 169.52C155.894 168.133 156.743 166.124 155.027 163.529L151.788 158.677L151.682 158.517L153.009 157.468L153.151 157.681L156.778 163.138C158.513 165.733 160.831 165.947 162.582 164.56C164.334 163.174 164.865 160.685 163.149 158.09L163.113 158.126Z" fill="#F7D0AD"/>
</g>
<defs>
<linearGradient id="paint0_linear_215_252" x1="33.3333" y1="122.001" x2="133.333" y2="122.001" gradientUnits="userSpaceOnUse">
<stop stop-color="#CCCCCC"/>
<stop offset="1" stop-color="#E2E8F0" stop-opacity="0"/>
</linearGradient>
</defs>
</svg>
