<svg width="296" height="258" viewBox="0 0 296 258" fill="none" xmlns="http://www.w3.org/2000/svg">
<path d="M46.5243 167.001V140.773L80.2223 105.913C84.2063 101.708 86.973 98.2765 88.5223 95.6205C90.1823 92.8538 91.0123 90.0872 91.0123 87.3205C91.0123 83.8898 89.795 81.3445 87.3603 79.6845C85.0363 77.9138 81.661 77.0285 77.2343 77.0285C73.2503 77.0285 69.045 77.8032 64.6183 79.3525C60.3023 80.7912 55.8757 83.1152 51.3383 86.3245L40.5483 60.4285C45.8603 56.5552 52.2237 53.5118 59.6383 51.2985C67.1637 49.0852 74.7997 47.9785 82.5463 47.9785C96.7117 47.9785 107.446 51.0218 114.75 57.1085C122.165 63.0845 125.872 71.7165 125.872 83.0045C125.872 90.0872 124.323 96.8378 121.224 103.257C118.126 109.676 112.703 116.537 104.956 123.841L80.5543 147.081V138.117H130.022V167.001H46.5243Z" fill="url(#paint0_linear_215_155)"/>
<mask id="mask0_215_155" style="mask-type:luminance" maskUnits="userSpaceOnUse" x="114" y="59" width="124" height="142">
<path d="M238 59H114V201H238V59Z" fill="white"/>
</mask>
<g mask="url(#mask0_215_155)">
<path d="M197.124 193.245C211.385 186.337 222.818 174.748 229.559 163.777C236.32 152.497 238.389 141.815 234.927 129.587C227.571 104.8 186.449 78.5272 153.196 76.7125C135.698 75.7433 123.978 86.5696 119.45 102.923C114.717 119.214 117.135 141.032 123.241 160.498C129.51 180.769 142.275 194.132 155.634 198.751C169.198 203.68 183.335 199.886 197.145 193.245H197.124Z" fill="#05AC5E"/>
<path d="M146.15 159.68L141.346 160.394L141.376 160.598L146.18 159.884L146.15 159.68Z" fill="#B3AB33"/>
<path d="M150.956 158.984L146.152 159.697L146.182 159.901L150.986 159.188L150.956 158.984Z" fill="#B3AB33"/>
<path d="M147.049 165.9C145.963 166.065 144.939 165.302 144.775 164.189C144.713 163.797 144.775 163.405 144.939 163.034C144.672 162.745 144.508 162.374 144.447 161.982C144.283 160.889 145.041 159.858 146.147 159.693L146.188 159.899C145.205 160.044 144.529 160.972 144.672 161.941C144.734 162.312 144.898 162.663 145.164 162.931L145.225 162.993L145.184 163.054C145.021 163.384 144.939 163.776 145 164.147C145.143 165.137 146.065 165.818 147.028 165.673C147.991 165.529 148.688 164.601 148.545 163.632C148.483 163.261 148.319 162.91 148.053 162.642L147.991 162.58L148.032 162.518C148.196 162.188 148.278 161.796 148.217 161.425V161.322L151.229 160.868L151.27 161.075L148.442 161.487C148.483 161.838 148.422 162.209 148.258 162.539C148.524 162.828 148.688 163.199 148.75 163.591C148.913 164.683 148.155 165.715 147.049 165.88V165.9Z" fill="#B3AB33"/>
<path d="M146.126 158.725L145.923 158.755L146.079 159.816L146.281 159.786L146.126 158.725Z" fill="#B3AB33"/>
<path d="M174.976 149.405L175.898 149.261C176.328 149.199 176.635 149.219 176.84 149.302C177.045 149.405 177.168 149.57 177.209 149.838C177.229 150.024 177.209 150.168 177.147 150.292C177.086 150.415 176.984 150.498 176.84 150.539C177.045 150.58 177.188 150.642 177.291 150.745C177.393 150.848 177.455 150.993 177.475 151.199C177.516 151.467 177.455 151.694 177.27 151.88C177.086 152.065 176.84 152.168 176.512 152.23L175.406 152.395L174.976 149.384V149.405ZM175.775 150.498L176.143 150.436C176.307 150.415 176.43 150.374 176.512 150.292C176.594 150.209 176.615 150.127 176.594 150.003C176.594 149.879 176.533 149.817 176.43 149.776C176.328 149.735 176.205 149.735 176.021 149.776L175.693 149.817L175.795 150.477L175.775 150.498ZM175.857 151.013L175.98 151.797L176.389 151.735C176.574 151.715 176.697 151.653 176.758 151.57C176.84 151.488 176.861 151.385 176.84 151.24C176.799 150.993 176.615 150.89 176.246 150.952L175.857 151.013Z" fill="#05AC5E"/>
<path d="M180.036 151.735L179.709 151.055L178.623 151.22L178.52 151.962L177.844 152.065L178.459 148.889L179.237 148.766L180.733 151.632L180.057 151.735H180.036ZM179.483 150.539C179.196 149.92 179.012 149.57 178.991 149.487C178.971 149.405 178.93 149.343 178.909 149.302C178.909 149.487 178.827 149.941 178.705 150.663L179.483 150.539Z" fill="#05AC5E"/>
<path d="M183.745 151.178L182.946 151.302L181.307 149.219C181.389 149.611 181.45 149.9 181.471 150.065L181.676 151.488L181.102 151.57L180.672 148.56L181.471 148.436L183.089 150.498C183.007 150.106 182.966 149.838 182.946 149.673L182.741 148.25L183.315 148.168L183.745 151.178Z" fill="#05AC5E"/>
<path d="M186.9 150.702L186.183 150.805L185.22 149.65L184.974 149.877L185.138 150.95L184.503 151.053L184.073 148.042L184.708 147.939L184.913 149.32L185.118 148.929L185.773 147.794L186.47 147.691L185.63 149.176L186.921 150.702H186.9Z" fill="#05AC5E"/>
<path d="M144.611 173.47L144.119 173.553L143.832 171.532C143.791 171.285 143.771 171.099 143.771 170.955C143.75 170.996 143.709 171.037 143.668 171.078C143.627 171.12 143.484 171.285 143.259 171.532L142.972 171.243L143.771 170.398L144.181 170.336L144.631 173.45L144.611 173.47Z" fill="#05AC5E"/>
<path d="M147.159 171.48C147.241 172.016 147.22 172.428 147.077 172.717C146.933 173.006 146.687 173.171 146.339 173.233C145.991 173.294 145.704 173.191 145.499 172.944C145.274 172.696 145.13 172.305 145.048 171.789C144.966 171.273 144.987 170.82 145.13 170.531C145.274 170.242 145.519 170.077 145.868 170.016C146.216 169.954 146.503 170.057 146.708 170.304C146.913 170.552 147.077 170.944 147.159 171.459V171.48ZM145.56 171.727C145.622 172.16 145.704 172.449 145.827 172.614C145.95 172.779 146.093 172.861 146.278 172.82C146.462 172.779 146.585 172.676 146.646 172.49C146.708 172.284 146.708 171.975 146.646 171.562C146.585 171.15 146.503 170.84 146.38 170.675C146.257 170.51 146.114 170.428 145.929 170.449C145.745 170.469 145.622 170.593 145.56 170.779C145.499 170.985 145.499 171.294 145.56 171.707V171.727Z" fill="#05AC5E"/>
<path d="M149.733 170.252C149.753 170.458 149.733 170.623 149.631 170.768C149.528 170.912 149.385 171.036 149.18 171.098C149.426 171.098 149.631 171.16 149.774 171.263C149.917 171.366 149.999 171.531 150.04 171.737C150.081 172.046 150.02 172.294 149.835 172.479C149.651 172.665 149.364 172.809 148.975 172.851C148.627 172.892 148.34 172.892 148.073 172.809L148.012 172.356C148.155 172.397 148.299 172.438 148.442 172.438C148.586 172.438 148.729 172.438 148.872 172.438C149.118 172.397 149.282 172.335 149.385 172.232C149.487 172.129 149.528 171.984 149.508 171.799C149.487 171.634 149.405 171.51 149.262 171.469C149.118 171.407 148.913 171.407 148.627 171.448L148.36 171.49L148.299 171.077L148.565 171.036C149.057 170.953 149.282 170.747 149.221 170.417C149.221 170.293 149.139 170.19 149.036 170.129C148.934 170.067 148.811 170.046 148.647 170.067C148.524 170.067 148.422 170.108 148.319 170.17C148.217 170.211 148.094 170.293 147.971 170.417L147.684 170.108C147.93 169.86 148.258 169.695 148.627 169.654C148.934 169.613 149.2 169.654 149.385 169.757C149.59 169.86 149.692 170.046 149.733 170.273V170.252Z" fill="#05AC5E"/>
<path d="M152.684 171.572L152.274 171.634L152.376 172.314L151.885 172.376L151.782 171.696L150.368 171.902L150.307 171.51L151.413 169.242L151.905 169.18L152.212 171.201L152.622 171.139L152.684 171.551V171.572ZM151.721 171.283L151.598 170.5C151.557 170.211 151.536 169.984 151.516 169.819C151.516 169.819 151.454 170.046 151.372 170.19L150.778 171.428L151.721 171.283Z" fill="#05AC5E"/>
<path d="M156.064 169.779C156.372 169.738 156.638 169.779 156.843 169.923C157.048 170.068 157.171 170.274 157.212 170.563C157.253 170.893 157.212 171.161 157.007 171.388C156.822 171.614 156.556 171.738 156.167 171.8C155.818 171.841 155.532 171.841 155.327 171.759L155.265 171.305C155.388 171.346 155.532 171.388 155.675 171.408C155.818 171.429 155.962 171.408 156.105 171.408C156.331 171.367 156.495 171.305 156.597 171.181C156.699 171.058 156.74 170.913 156.699 170.707C156.638 170.336 156.392 170.191 155.9 170.253C155.839 170.253 155.757 170.274 155.654 170.315C155.552 170.336 155.47 170.377 155.409 170.398L155.163 170.295L155.06 168.748L156.679 168.5L156.74 168.954L155.573 169.119L155.614 169.903L155.798 169.841C155.798 169.841 155.962 169.8 156.064 169.779Z" fill="#05AC5E"/>
<path d="M157.58 170.192C157.396 168.975 157.806 168.294 158.789 168.15C158.953 168.129 159.076 168.129 159.178 168.129L159.24 168.542C159.138 168.542 158.994 168.542 158.851 168.542C158.523 168.583 158.277 168.727 158.134 168.913C157.99 169.099 157.949 169.408 157.99 169.82H158.011C158.052 169.697 158.134 169.594 158.256 169.511C158.359 169.429 158.502 169.387 158.666 169.346C158.953 169.305 159.178 169.346 159.363 169.511C159.547 169.676 159.65 169.882 159.711 170.192C159.752 170.521 159.711 170.79 159.547 171.016C159.383 171.223 159.158 171.367 158.851 171.408C158.625 171.449 158.42 171.408 158.256 171.326C158.072 171.243 157.929 171.099 157.806 170.913C157.683 170.728 157.601 170.48 157.56 170.192H157.58ZM158.81 170.996C158.974 170.975 159.097 170.893 159.178 170.769C159.26 170.645 159.281 170.48 159.24 170.274C159.219 170.088 159.158 169.965 159.056 169.862C158.953 169.779 158.81 169.738 158.646 169.758C158.543 169.758 158.441 169.82 158.359 169.862C158.277 169.923 158.216 169.985 158.175 170.088C158.134 170.171 158.113 170.253 158.134 170.336C158.154 170.542 158.236 170.707 158.379 170.81C158.502 170.934 158.646 170.975 158.83 170.955L158.81 170.996Z" fill="#05AC5E"/>
<path d="M162.159 169.48C162.241 170.016 162.22 170.428 162.077 170.717C161.933 171.006 161.687 171.171 161.339 171.233C160.991 171.294 160.704 171.191 160.499 170.944C160.274 170.696 160.13 170.305 160.048 169.789C159.966 169.273 159.987 168.82 160.13 168.531C160.274 168.242 160.519 168.077 160.868 168.016C161.216 167.954 161.503 168.057 161.708 168.304C161.913 168.552 162.077 168.944 162.159 169.459V169.48ZM160.56 169.727C160.622 170.16 160.704 170.449 160.827 170.614C160.95 170.779 161.093 170.861 161.278 170.82C161.462 170.779 161.585 170.676 161.646 170.49C161.708 170.284 161.708 169.975 161.646 169.562C161.585 169.15 161.503 168.84 161.38 168.675C161.257 168.51 161.114 168.428 160.929 168.449C160.745 168.469 160.622 168.593 160.56 168.779C160.499 168.985 160.499 169.294 160.56 169.707V169.727Z" fill="#05AC5E"/>
<path d="M181.471 166.417C181.553 166.953 181.532 167.365 181.389 167.654C181.245 167.943 180.999 168.108 180.651 168.17C180.303 168.231 180.016 168.128 179.811 167.881C179.586 167.633 179.442 167.242 179.36 166.726C179.278 166.21 179.299 165.757 179.442 165.468C179.586 165.179 179.831 165.014 180.18 164.953C180.528 164.891 180.815 164.994 181.02 165.241C181.225 165.489 181.389 165.881 181.471 166.396V166.417ZM179.872 166.664C179.934 167.097 180.016 167.386 180.139 167.551C180.262 167.716 180.405 167.798 180.59 167.757C180.774 167.716 180.897 167.613 180.958 167.427C181.02 167.221 181.02 166.912 180.958 166.499C180.897 166.087 180.815 165.777 180.692 165.612C180.569 165.447 180.426 165.365 180.241 165.386C180.057 165.406 179.934 165.53 179.872 165.716C179.811 165.922 179.811 166.231 179.872 166.644V166.664Z" fill="#05AC5E"/>
<path d="M169.159 168.48C169.241 169.016 169.22 169.428 169.077 169.717C168.933 170.006 168.687 170.171 168.339 170.233C167.991 170.294 167.704 170.191 167.499 169.944C167.274 169.696 167.13 169.305 167.048 168.789C166.966 168.273 166.987 167.82 167.13 167.531C167.274 167.242 167.519 167.077 167.868 167.016C168.216 166.954 168.503 167.057 168.708 167.304C168.913 167.552 169.077 167.944 169.159 168.459V168.48ZM167.56 168.727C167.622 169.16 167.704 169.449 167.827 169.614C167.95 169.779 168.093 169.861 168.278 169.82C168.462 169.779 168.585 169.676 168.646 169.49C168.708 169.284 168.708 168.975 168.646 168.562C168.585 168.15 168.503 167.84 168.38 167.675C168.257 167.51 168.114 167.428 167.929 167.449C167.745 167.469 167.622 167.593 167.56 167.779C167.499 167.985 167.499 168.294 167.56 168.707V168.727Z" fill="#05AC5E"/>
<path d="M171.8 167.84C171.882 168.376 171.861 168.788 171.718 169.077C171.575 169.366 171.329 169.531 170.98 169.592C170.632 169.654 170.345 169.551 170.14 169.304C169.915 169.056 169.771 168.664 169.69 168.149C169.608 167.633 169.628 167.18 169.771 166.891C169.915 166.602 170.161 166.437 170.509 166.375C170.857 166.314 171.144 166.417 171.349 166.664C171.554 166.912 171.718 167.303 171.8 167.819V167.84ZM170.202 168.087C170.263 168.52 170.345 168.809 170.468 168.974C170.591 169.139 170.734 169.221 170.919 169.18C171.103 169.139 171.226 169.036 171.288 168.85C171.349 168.644 171.349 168.334 171.288 167.922C171.226 167.51 171.144 167.2 171.021 167.035C170.898 166.87 170.755 166.788 170.571 166.808C170.386 166.829 170.263 166.953 170.202 167.138C170.14 167.345 170.14 167.654 170.202 168.066V168.087Z" fill="#05AC5E"/>
<path d="M174.279 167.468C174.361 168.005 174.34 168.417 174.197 168.706C174.054 168.994 173.808 169.159 173.459 169.221C173.111 169.283 172.824 169.18 172.619 168.933C172.414 168.685 172.25 168.293 172.169 167.778C172.087 167.262 172.107 166.809 172.25 166.52C172.394 166.231 172.64 166.066 172.988 166.004C173.336 165.942 173.623 166.046 173.828 166.293C174.033 166.54 174.197 166.932 174.279 167.448V167.468ZM172.681 167.716C172.742 168.149 172.824 168.438 172.947 168.603C173.07 168.768 173.213 168.85 173.398 168.809C173.582 168.768 173.705 168.665 173.767 168.479C173.828 168.273 173.828 167.963 173.767 167.551C173.705 167.139 173.623 166.829 173.5 166.664C173.377 166.499 173.234 166.417 173.05 166.437C172.865 166.458 172.742 166.582 172.681 166.767C172.619 166.974 172.619 167.283 172.681 167.695V167.716Z" fill="#05AC5E"/>
<path d="M176.738 167.118C176.82 167.654 176.799 168.066 176.656 168.355C176.512 168.644 176.266 168.809 175.918 168.871C175.57 168.933 175.283 168.829 175.078 168.582C174.873 168.335 174.709 167.943 174.627 167.427C174.545 166.912 174.566 166.458 174.709 166.169C174.853 165.881 175.099 165.716 175.447 165.654C175.795 165.592 176.082 165.695 176.287 165.942C176.512 166.19 176.656 166.582 176.738 167.097V167.118ZM175.14 167.365C175.201 167.798 175.283 168.087 175.406 168.252C175.529 168.417 175.672 168.5 175.857 168.458C176.041 168.417 176.164 168.314 176.225 168.128C176.287 167.922 176.287 167.613 176.225 167.2C176.164 166.788 176.082 166.479 175.959 166.314C175.836 166.149 175.693 166.066 175.508 166.087C175.324 166.107 175.201 166.231 175.14 166.417C175.078 166.623 175.078 166.932 175.14 167.345V167.365Z" fill="#05AC5E"/>
<path d="M183.95 166.047C184.032 166.583 184.011 166.995 183.868 167.284C183.724 167.573 183.479 167.738 183.13 167.799C182.782 167.861 182.495 167.758 182.29 167.511C182.065 167.263 181.921 166.871 181.839 166.356C181.757 165.84 181.778 165.387 181.921 165.098C182.065 164.809 182.311 164.644 182.659 164.582C183.007 164.521 183.294 164.624 183.499 164.871C183.704 165.119 183.868 165.51 183.95 166.026V166.047ZM182.352 166.294C182.413 166.727 182.495 167.016 182.618 167.181C182.741 167.346 182.884 167.428 183.069 167.387C183.253 167.346 183.376 167.243 183.438 167.057C183.499 166.851 183.499 166.542 183.438 166.129C183.376 165.717 183.294 165.407 183.171 165.242C183.048 165.077 182.905 164.995 182.72 165.016C182.536 165.036 182.413 165.16 182.352 165.345C182.29 165.552 182.29 165.861 182.352 166.273V166.294Z" fill="#05AC5E"/>
<path d="M186.429 165.675C186.511 166.211 186.491 166.624 186.347 166.913C186.204 167.201 185.958 167.366 185.61 167.428C185.261 167.49 184.974 167.387 184.769 167.139C184.544 166.892 184.401 166.5 184.319 165.985C184.237 165.469 184.257 165.015 184.401 164.727C184.544 164.438 184.79 164.273 185.138 164.211C185.487 164.149 185.773 164.252 185.978 164.5C186.183 164.747 186.347 165.139 186.429 165.655V165.675ZM184.831 165.923C184.892 166.356 184.974 166.644 185.097 166.809C185.22 166.974 185.364 167.057 185.548 167.016C185.732 166.974 185.855 166.871 185.917 166.686C185.978 166.48 185.978 166.17 185.917 165.758C185.855 165.345 185.773 165.036 185.65 164.871C185.528 164.706 185.384 164.624 185.2 164.644C185.015 164.665 184.892 164.789 184.831 164.974C184.769 165.18 184.769 165.49 184.831 165.902V165.923Z" fill="#05AC5E"/>
<path d="M188.908 165.304C188.99 165.84 188.97 166.253 188.826 166.541C188.683 166.83 188.437 166.995 188.089 167.057C187.74 167.119 187.454 167.016 187.249 166.768C187.023 166.521 186.88 166.129 186.798 165.614C186.716 165.098 186.736 164.644 186.88 164.356C187.023 164.067 187.269 163.902 187.618 163.84C187.966 163.778 188.253 163.881 188.458 164.129C188.662 164.376 188.826 164.768 188.908 165.284V165.304ZM187.31 165.552C187.372 165.985 187.454 166.273 187.577 166.438C187.699 166.603 187.843 166.686 188.027 166.645C188.212 166.603 188.335 166.5 188.396 166.315C188.458 166.108 188.458 165.799 188.396 165.387C188.335 164.974 188.253 164.665 188.13 164.5C188.007 164.335 187.863 164.252 187.679 164.273C187.495 164.294 187.372 164.417 187.31 164.603C187.249 164.809 187.249 165.119 187.31 165.531V165.552Z" fill="#05AC5E"/>
<path d="M144.918 179.512C144.795 179.512 144.693 179.594 144.631 179.697C144.57 179.8 144.549 179.945 144.59 180.13C144.652 180.501 144.816 180.666 145.082 180.625C145.205 180.625 145.328 180.563 145.492 180.481L145.533 180.77C145.41 180.852 145.266 180.893 145.102 180.914C144.857 180.955 144.672 180.914 144.529 180.77C144.385 180.646 144.283 180.44 144.242 180.171C144.221 180.007 144.242 179.842 144.262 179.718C144.303 179.573 144.385 179.47 144.488 179.388C144.59 179.305 144.713 179.244 144.877 179.223C145.041 179.202 145.205 179.223 145.369 179.264L145.307 179.553C145.307 179.553 145.184 179.512 145.123 179.512C145.061 179.512 145 179.512 144.939 179.512H144.918Z" fill="#05AC5E"/>
<path d="M146.864 180.626L146.68 180.255L146.086 180.337L146.024 180.75L145.656 180.812L145.983 179.079L146.414 179.018L147.233 180.564L146.864 180.626ZM146.557 179.966C146.393 179.636 146.311 179.43 146.291 179.389C146.291 179.348 146.25 179.306 146.25 179.286C146.25 179.389 146.209 179.636 146.147 180.028L146.578 179.966H146.557Z" fill="#05AC5E"/>
<path d="M147.705 179.862L147.787 180.481L147.438 180.522L147.192 178.893L147.664 178.831C147.889 178.79 148.053 178.831 148.176 178.872C148.299 178.934 148.36 179.058 148.381 179.223C148.381 179.326 148.381 179.408 148.34 179.491C148.299 179.573 148.237 179.635 148.135 179.697C148.442 180.027 148.627 180.233 148.709 180.336L148.319 180.398L147.848 179.821H147.664L147.705 179.862ZM147.664 179.615H147.766C147.869 179.573 147.95 179.553 147.991 179.512C148.032 179.47 148.053 179.408 148.053 179.326C148.053 179.243 148.012 179.202 147.95 179.182C147.889 179.161 147.807 179.161 147.705 179.182H147.602L147.664 179.635V179.615Z" fill="#05AC5E"/>
<path d="M150.184 179.284C150.225 179.552 150.184 179.778 150.04 179.943C149.917 180.108 149.692 180.212 149.405 180.253L148.954 180.315L148.708 178.686L149.221 178.603C149.487 178.562 149.692 178.603 149.876 178.727C150.04 178.851 150.143 179.036 150.184 179.284ZM149.835 179.345C149.774 178.995 149.61 178.851 149.303 178.892H149.118L149.282 179.985H149.426C149.753 179.923 149.897 179.717 149.835 179.345Z" fill="#05AC5E"/>
<path d="M151.966 179.861L151.618 179.902L151.516 179.201L150.88 179.304L150.983 180.005L150.635 180.047L150.389 178.417L150.737 178.376L150.839 179.016L151.475 178.912L151.372 178.273L151.72 178.232L151.966 179.861Z" fill="#05AC5E"/>
<path d="M153.728 178.769C153.769 179.037 153.728 179.264 153.626 179.429C153.524 179.594 153.339 179.697 153.093 179.738C152.847 179.78 152.642 179.738 152.479 179.615C152.315 179.491 152.233 179.285 152.192 179.017C152.151 178.749 152.192 178.522 152.294 178.357C152.397 178.192 152.581 178.089 152.847 178.047C153.114 178.006 153.298 178.047 153.462 178.171C153.605 178.295 153.708 178.501 153.749 178.769H153.728ZM152.54 178.955C152.561 179.14 152.622 179.264 152.704 179.347C152.786 179.429 152.888 179.45 153.032 179.45C153.298 179.408 153.421 179.202 153.36 178.831C153.298 178.46 153.134 178.295 152.868 178.336C152.724 178.336 152.642 178.419 152.581 178.522C152.52 178.625 152.52 178.769 152.54 178.955Z" fill="#05AC5E"/>
<path d="M154.179 179.554L153.933 177.925L154.281 177.883L154.486 179.224L155.142 179.121L155.183 179.409L154.179 179.554Z" fill="#05AC5E"/>
<path d="M156.699 178.314C156.74 178.582 156.699 178.809 156.556 178.974C156.433 179.139 156.208 179.242 155.921 179.284L155.47 179.345L155.224 177.717L155.736 177.635C156.003 177.594 156.208 177.634 156.392 177.758C156.556 177.881 156.658 178.067 156.699 178.314ZM156.351 178.377C156.29 178.027 156.126 177.882 155.818 177.924H155.634L155.798 179.015H155.941C156.269 178.954 156.412 178.748 156.351 178.377Z" fill="#05AC5E"/>
<path d="M158.092 178.955L157.15 179.099L156.904 177.47L157.847 177.326L157.888 177.614L157.293 177.697L157.355 178.047L157.908 177.965L157.949 178.254L157.396 178.336L157.457 178.749L158.051 178.666L158.092 178.955Z" fill="#05AC5E"/>
<path d="M158.687 178.234L158.769 178.853L158.42 178.894L158.175 177.265L158.646 177.203C158.871 177.162 159.035 177.203 159.158 177.244C159.281 177.306 159.342 177.43 159.363 177.595C159.363 177.698 159.363 177.78 159.322 177.863C159.281 177.945 159.22 178.007 159.117 178.069C159.424 178.399 159.609 178.605 159.691 178.708L159.301 178.77L158.83 178.193H158.646L158.687 178.234ZM158.646 177.986H158.748C158.851 177.945 158.933 177.925 158.974 177.883C159.015 177.842 159.035 177.78 159.035 177.698C159.035 177.615 158.994 177.574 158.933 177.553C158.871 177.533 158.789 177.533 158.687 177.553H158.584L158.646 178.007V177.986Z" fill="#05AC5E"/>
<path d="M174.054 171.84C174.095 172.15 174.074 172.376 174.013 172.541C173.931 172.706 173.787 172.789 173.582 172.83C173.378 172.871 173.214 172.809 173.091 172.665C172.968 172.521 172.886 172.314 172.845 172.026C172.804 171.737 172.824 171.49 172.886 171.325C172.968 171.16 173.111 171.077 173.316 171.036C173.521 170.995 173.685 171.057 173.808 171.201C173.931 171.345 174.013 171.551 174.054 171.84ZM173.214 171.964C173.255 172.17 173.296 172.335 173.337 172.418C173.378 172.5 173.459 172.541 173.541 172.521C173.623 172.5 173.685 172.459 173.705 172.356C173.726 172.253 173.726 172.108 173.705 171.881C173.685 171.655 173.623 171.51 173.582 171.428C173.521 171.345 173.459 171.304 173.378 171.325C173.296 171.345 173.234 171.387 173.214 171.49C173.193 171.593 173.214 171.737 173.214 171.964Z" fill="#05AC5E"/>
<path d="M175.426 171.635C175.467 171.944 175.447 172.171 175.385 172.336C175.304 172.501 175.16 172.584 174.955 172.625C174.75 172.666 174.586 172.604 174.463 172.46C174.341 172.316 174.259 172.109 174.218 171.821C174.177 171.532 174.197 171.285 174.259 171.12C174.341 170.955 174.484 170.872 174.689 170.831C174.894 170.79 175.058 170.852 175.181 170.996C175.304 171.14 175.385 171.346 175.426 171.635ZM174.586 171.759C174.627 171.965 174.668 172.13 174.709 172.213C174.75 172.295 174.832 172.336 174.914 172.316C174.996 172.295 175.058 172.254 175.078 172.151C175.099 172.048 175.099 171.903 175.078 171.676C175.058 171.45 174.996 171.305 174.955 171.223C174.894 171.14 174.832 171.099 174.75 171.12C174.668 171.14 174.607 171.181 174.586 171.285C174.566 171.388 174.586 171.532 174.586 171.759Z" fill="#05AC5E"/>
<path d="M176.369 170.604L175.98 172.439L175.652 172.481L176.041 170.645L176.369 170.604Z" fill="#05AC5E"/>
<path d="M177.803 171.284C177.844 171.593 177.824 171.82 177.762 171.985C177.68 172.15 177.537 172.232 177.332 172.273C177.127 172.315 176.963 172.253 176.84 172.108C176.717 171.964 176.635 171.758 176.594 171.469C176.553 171.18 176.574 170.933 176.635 170.768C176.717 170.603 176.861 170.521 177.066 170.479C177.27 170.438 177.434 170.5 177.557 170.644C177.68 170.789 177.762 170.995 177.803 171.284ZM176.963 171.407C177.004 171.613 177.045 171.778 177.086 171.861C177.127 171.943 177.209 171.985 177.291 171.964C177.373 171.943 177.434 171.902 177.455 171.799C177.475 171.696 177.475 171.552 177.455 171.325C177.434 171.098 177.373 170.954 177.332 170.871C177.27 170.789 177.209 170.747 177.127 170.768C177.045 170.789 176.984 170.83 176.963 170.933C176.943 171.036 176.963 171.18 176.963 171.407Z" fill="#05AC5E"/>
<path d="M179.176 171.076C179.217 171.386 179.196 171.612 179.135 171.777C179.053 171.942 178.91 172.025 178.705 172.066C178.5 172.107 178.336 172.045 178.213 171.901C178.09 171.757 178.008 171.551 177.967 171.262C177.926 170.973 177.947 170.726 178.008 170.561C178.09 170.396 178.233 170.313 178.438 170.272C178.643 170.231 178.807 170.293 178.93 170.437C179.053 170.581 179.135 170.788 179.176 171.076ZM178.336 171.2C178.377 171.406 178.418 171.571 178.459 171.654C178.5 171.736 178.582 171.777 178.664 171.757C178.746 171.736 178.807 171.695 178.828 171.592C178.848 171.489 178.848 171.344 178.828 171.118C178.807 170.891 178.746 170.746 178.705 170.664C178.643 170.581 178.582 170.54 178.5 170.561C178.418 170.581 178.356 170.623 178.336 170.726C178.315 170.829 178.336 170.973 178.336 171.2Z" fill="#05AC5E"/>
<path d="M169.71 171.551H169.853L169.731 172.232H169.567L169.239 171.613H169.382L169.567 171.964L169.608 172.046V172.108C169.608 172.108 169.628 172.026 169.649 171.964L169.71 171.551Z" fill="#05AC5E"/>
<path d="M170.448 172.129L170.366 171.985L170.12 172.026V172.191H169.935L170.079 171.51H170.243L170.57 172.129H170.427H170.448ZM170.325 171.881L170.222 171.655V171.613C170.222 171.613 170.181 171.758 170.161 171.923H170.325V171.881Z" fill="#05AC5E"/>
<path d="M170.694 172.108L170.591 171.428H170.734L170.816 171.964L171.083 171.923V172.046L170.694 172.108Z" fill="#05AC5E"/>
<path d="M171.206 172.027L171.103 171.346H171.247L171.349 172.006H171.206V172.027Z" fill="#05AC5E"/>
<path d="M172.025 171.552C172.025 171.655 172.025 171.759 171.964 171.82C171.902 171.882 171.82 171.924 171.697 171.944H171.513L171.411 171.305L171.616 171.264C171.718 171.264 171.82 171.264 171.882 171.305C171.943 171.346 171.984 171.429 172.005 171.532L172.025 171.552ZM171.882 171.573C171.861 171.429 171.779 171.367 171.657 171.387H171.575L171.636 171.841H171.697C171.841 171.82 171.882 171.738 171.861 171.573H171.882Z" fill="#05AC5E"/>
<path d="M187.822 174.543C189.044 174.543 190.035 173.546 190.035 172.316C190.035 171.086 189.044 170.088 187.822 170.088C186.6 170.088 185.609 171.086 185.609 172.316C185.609 173.546 186.6 174.543 187.822 174.543Z" fill="#05AC5E"/>
<path d="M159.117 91.1667C162.885 90.8183 166.214 93.4418 166.56 97.0677L172.382 158.069C172.724 161.674 169.957 164.901 166.188 165.25L142.172 167.512C138.404 167.86 135.075 165.237 134.729 161.611L128.908 100.609C128.566 97.0037 131.334 93.777 135.102 93.4286L159.117 91.1667Z" fill="#CCD3D4"/>
<path d="M160.087 92.287C163.651 91.9635 165.349 94.5924 165.67 98.0131L171.201 157.419C171.521 160.84 170.332 163.733 166.769 164.057L141.684 166.367C138.121 166.691 135.987 164.538 135.669 161.138L130.067 100.864C129.746 97.444 131.462 94.9373 135.005 94.6175L160.091 92.3073L160.087 92.287Z" fill="white"/>
<path d="M131.751 103.905L136.807 157.508L169.572 154.453L164.515 100.85L131.751 103.905Z" fill="#152A38"/>
<path d="M153.142 162.71C154.433 162.814 155.56 161.865 155.682 160.566C155.805 159.267 154.842 158.132 153.552 158.009C152.261 157.885 151.134 158.854 151.011 160.153C150.888 161.453 151.851 162.587 153.142 162.71Z" fill="#A8C2CB"/>
<path d="M159.752 98.9422C159.752 98.9422 159.896 98.8391 159.916 98.7154C159.916 98.5711 159.875 98.4679 159.793 98.4679L147.028 97.375C147.028 97.375 146.885 97.4781 146.865 97.6018C146.865 97.7462 146.905 97.8493 146.987 97.8493L159.752 98.9422Z" fill="#0C2D3A"/>
<path d="M162.626 102.831L134.17 105.452L138.876 153.896L167.333 151.275L162.626 102.831Z" fill="#CCD3D4"/>
<path d="M155.898 116.085L143.045 116.701L143.071 117.236L155.924 116.62L155.898 116.085Z" fill="white"/>
<path d="M155.907 118.088L143.045 118.464L143.061 118.999L155.923 118.624L155.907 118.088Z" fill="white"/>
<path d="M157.987 119.901L143.017 120.391L143.036 120.927L158.005 120.436L157.987 119.901Z" fill="white"/>
<path d="M144.027 122.916L144.053 123.451L155.413 122.919L155.387 122.384L144.027 122.916Z" fill="white"/>
<path d="M145.426 109.511L144.99 111.39C144.99 111.39 144.881 111.472 144.849 111.415L144.076 109.647C144.076 109.647 144.025 109.593 144.005 109.597L141.302 109.848C141.302 109.848 141.225 109.883 141.232 109.924L141.489 112.643C141.489 112.643 141.523 112.721 141.564 112.714L143.469 112.542C143.469 112.542 143.546 112.507 143.539 112.466L143.503 112.033C143.503 112.033 143.468 111.955 143.427 111.962L142.179 112.08C142.179 112.08 142.092 112.054 142.104 112.01L142.061 111.535C142.061 111.535 142.087 111.447 142.131 111.46L142.993 111.39C142.993 111.39 143.069 111.355 143.062 111.315L143.034 110.922C143.034 110.922 143 110.845 142.959 110.852L142.097 110.922C142.097 110.922 142.009 110.896 142.023 110.851L141.99 110.438C141.99 110.438 142.016 110.35 142.06 110.362L143.615 110.211C143.615 110.211 143.68 110.221 143.687 110.261L144.69 112.386C144.69 112.386 144.741 112.44 144.761 112.436L145.333 112.377C145.333 112.377 145.394 112.366 145.406 112.321L146.154 109.507C146.154 109.507 146.136 109.406 146.075 109.416L145.542 109.469C145.542 109.469 145.482 109.479 145.47 109.524L145.426 109.511Z" fill="#0C2D3A"/>
<path d="M191.554 82.0412C194.012 83.1136 219.706 102.662 219.706 102.662L230.626 122.459C231.917 124.789 232.368 127.491 231.917 130.11C229.807 142.503 223.558 179.272 223.414 181.932C223.414 182.055 223.414 182.282 223.414 182.282L223.967 186.86C215.628 187.541 215.608 194.552 207.351 195.707C207.679 190.49 199.565 179.849 199.606 179.54C199.503 178.158 186.698 149.7 186.698 149.7C186.698 149.7 170.429 133.636 166.598 128.563C161.025 121.201 171.659 118.479 173.626 120.315C175.593 122.15 189.71 136.193 189.71 136.193L198.09 138.75L216.386 119.222L213.682 110.561C213.682 110.561 192.086 90.3517 190.386 88.702C189.136 86.8254 189.382 82.2887 191.656 82L191.554 82.0412Z" fill="#F7D0AD"/>
<path d="M169.345 69.1117L146.035 93.3599C145.705 93.7037 145.713 94.252 146.055 94.5846L189.579 136.967C189.921 137.299 190.465 137.29 190.796 136.947L214.106 112.698C214.436 112.354 214.428 111.806 214.086 111.473L170.562 69.0913C170.22 68.7587 169.676 68.7679 169.345 69.1117Z" fill="#0C2D3A"/>
<path d="M150 93.7058L190.496 132.06L191.156 131.355L150.66 93L150 93.7058Z" fill="#295C71"/>
<path d="M168.747 79.415C168.747 79.415 168.767 79.5387 168.808 79.58C168.849 79.6212 168.911 79.6418 168.972 79.6418C169.095 79.6418 169.198 79.5387 169.198 79.415C169.198 78.487 169.956 77.7446 170.857 77.7446C170.98 77.7446 171.083 77.6415 171.083 77.5178C171.083 77.3941 170.98 77.291 170.857 77.291C169.689 77.291 168.726 78.2396 168.726 79.4356L168.747 79.415Z" fill="white"/>
<path d="M167.477 79.4143C167.477 79.4143 167.497 79.538 167.538 79.5792C167.579 79.6205 167.64 79.6411 167.702 79.6411C167.825 79.6411 167.927 79.538 167.927 79.4143C167.927 77.7851 169.239 76.4654 170.857 76.4654C170.98 76.4654 171.083 76.3623 171.083 76.2385C171.083 76.1148 170.98 76.0117 170.857 76.0117C168.993 76.0117 167.477 77.5377 167.477 79.4143Z" fill="white"/>
<path d="M166.35 79.5791C166.35 79.5791 166.452 79.641 166.513 79.641C166.636 79.641 166.739 79.5379 166.739 79.4142C166.739 77.1252 168.603 75.2486 170.878 75.2486C171.001 75.2486 171.103 75.1455 171.103 75.0218C171.103 74.8981 171.001 74.7949 170.878 74.7949C168.357 74.7949 166.288 76.8571 166.288 79.4142C166.288 79.476 166.309 79.5379 166.35 79.5791Z" fill="white"/>
<path d="M171.529 80.0725C171.889 79.7101 171.889 79.1225 171.529 78.7601C171.169 78.3977 170.585 78.3977 170.225 78.7601C169.865 79.1225 169.865 79.7101 170.225 80.0725C170.585 80.4348 171.169 80.4348 171.529 80.0725Z" fill="white"/>
<path d="M199.674 102.325L196.641 103.831C196.518 103.893 196.416 103.769 196.457 103.645L197.993 100.614C197.993 100.614 197.993 100.511 197.973 100.469L194.613 97.0255C194.613 97.0255 194.469 96.9637 194.428 97.0255L191.027 100.387C191.027 100.387 190.966 100.531 191.027 100.573L193.363 102.985C193.363 102.985 193.506 103.047 193.547 102.985L194.08 102.47C194.08 102.47 194.141 102.325 194.08 102.284L192.543 100.696C192.543 100.696 192.502 100.552 192.543 100.511L193.137 99.9329C193.137 99.9329 193.281 99.8919 193.322 99.9329L194.387 101.026C194.387 101.026 194.531 101.088 194.572 101.026L195.084 100.531C195.084 100.531 195.145 100.387 195.084 100.346L194.019 99.2529C194.019 99.2529 193.978 99.1079 194.019 99.0669L194.531 98.5519C194.531 98.5519 194.674 98.5099 194.715 98.5519L196.641 100.531C196.641 100.531 196.682 100.634 196.662 100.676L194.9 104.429C194.9 104.429 194.9 104.532 194.92 104.573L195.637 105.295C195.637 105.295 195.74 105.336 195.781 105.316L200.411 103.212C200.411 103.212 200.514 103.068 200.452 103.006L199.796 102.346C199.796 102.346 199.694 102.305 199.653 102.325H199.674Z" fill="white"/>
<path d="M164.659 168.98C164.741 169.516 164.72 169.928 164.577 170.217C164.433 170.506 164.187 170.671 163.839 170.733C163.491 170.794 163.204 170.691 162.999 170.444C162.774 170.196 162.63 169.805 162.548 169.289C162.466 168.773 162.487 168.32 162.63 168.031C162.774 167.742 163.019 167.577 163.368 167.516C163.716 167.454 164.003 167.557 164.208 167.804C164.413 168.052 164.577 168.444 164.659 168.959V168.98ZM163.06 169.227C163.122 169.66 163.204 169.949 163.327 170.114C163.45 170.279 163.593 170.361 163.778 170.32C163.962 170.279 164.085 170.176 164.146 169.99C164.208 169.784 164.208 169.475 164.146 169.062C164.085 168.65 164.003 168.34 163.88 168.175C163.757 168.01 163.614 167.928 163.429 167.949C163.245 167.969 163.122 168.093 163.06 168.279C162.999 168.485 162.999 168.794 163.06 169.207V169.227Z" fill="#05AC5E"/>
<path d="M147.625 110.571C147.613 110.48 147.572 110.411 147.505 110.364C147.437 110.315 147.344 110.294 147.224 110.3C147.145 110.304 147.079 110.317 147.027 110.341C146.975 110.364 146.936 110.394 146.912 110.432C146.887 110.469 146.875 110.51 146.877 110.557C146.877 110.595 146.886 110.628 146.904 110.656C146.923 110.684 146.949 110.709 146.982 110.73C147.016 110.75 147.057 110.767 147.104 110.781C147.151 110.795 147.204 110.807 147.263 110.817L147.483 110.856C147.611 110.877 147.723 110.909 147.821 110.949C147.92 110.99 148.004 111.041 148.073 111.1C148.142 111.16 148.195 111.23 148.233 111.31C148.271 111.391 148.293 111.482 148.299 111.583C148.305 111.744 148.272 111.884 148.197 112.003C148.122 112.122 148.011 112.215 147.863 112.284C147.716 112.352 147.537 112.392 147.325 112.402C147.112 112.412 146.925 112.389 146.764 112.333C146.603 112.277 146.476 112.186 146.382 112.06C146.288 111.934 146.235 111.772 146.223 111.574L146.811 111.546C146.82 111.627 146.845 111.694 146.887 111.747C146.928 111.8 146.984 111.839 147.053 111.864C147.123 111.888 147.203 111.899 147.293 111.894C147.376 111.89 147.446 111.876 147.503 111.851C147.56 111.826 147.604 111.792 147.633 111.751C147.663 111.71 147.677 111.664 147.675 111.612C147.672 111.564 147.655 111.524 147.625 111.491C147.594 111.458 147.548 111.43 147.486 111.409C147.425 111.386 147.348 111.366 147.254 111.349L146.986 111.299C146.763 111.26 146.586 111.186 146.454 111.08C146.322 110.973 146.252 110.823 146.243 110.63C146.235 110.472 146.27 110.333 146.35 110.21C146.429 110.088 146.543 109.99 146.69 109.916C146.838 109.843 147.008 109.801 147.201 109.792C147.398 109.783 147.57 109.808 147.718 109.868C147.867 109.927 147.985 110.015 148.071 110.131C148.157 110.247 148.204 110.384 148.214 110.542L147.625 110.571ZM148.679 113.021L148.553 110.399L149.154 110.37L149.169 110.697L149.188 110.696C149.21 110.637 149.242 110.579 149.285 110.523C149.329 110.467 149.386 110.42 149.455 110.383C149.526 110.345 149.611 110.323 149.711 110.319C149.843 110.312 149.969 110.341 150.087 110.405C150.206 110.469 150.305 110.572 150.383 110.713C150.461 110.854 150.506 111.037 150.517 111.262C150.527 111.478 150.501 111.66 150.44 111.809C150.379 111.958 150.292 112.072 150.18 112.15C150.068 112.228 149.942 112.271 149.802 112.278C149.706 112.282 149.622 112.271 149.55 112.243C149.478 112.214 149.417 112.176 149.366 112.127C149.317 112.078 149.278 112.025 149.249 111.967L149.237 111.968L149.286 112.992L148.679 113.021ZM149.193 111.324C149.198 111.427 149.216 111.515 149.247 111.59C149.279 111.665 149.322 111.722 149.376 111.762C149.431 111.801 149.495 111.818 149.569 111.815C149.643 111.811 149.706 111.788 149.756 111.744C149.806 111.699 149.843 111.638 149.865 111.56C149.889 111.483 149.898 111.393 149.893 111.29C149.888 111.188 149.871 111.099 149.84 111.025C149.809 110.951 149.767 110.895 149.713 110.856C149.66 110.817 149.596 110.799 149.52 110.803C149.446 110.807 149.383 110.83 149.333 110.873C149.283 110.916 149.246 110.976 149.221 111.053C149.198 111.129 149.188 111.22 149.193 111.324ZM151.772 112.192C151.572 112.201 151.398 112.169 151.25 112.094C151.103 112.018 150.987 111.908 150.902 111.764C150.818 111.62 150.771 111.45 150.762 111.255C150.752 111.059 150.783 110.885 150.852 110.734C150.923 110.582 151.028 110.462 151.167 110.373C151.307 110.283 151.478 110.234 151.678 110.224C151.878 110.214 152.052 110.247 152.199 110.323C152.347 110.398 152.463 110.508 152.547 110.653C152.632 110.796 152.679 110.966 152.689 111.162C152.698 111.357 152.667 111.531 152.597 111.683C152.527 111.834 152.422 111.954 152.282 112.044C152.143 112.133 151.973 112.182 151.772 112.192ZM151.754 111.733C151.827 111.73 151.888 111.705 151.936 111.657C151.984 111.61 152.02 111.546 152.042 111.466C152.066 111.385 152.075 111.292 152.07 111.188C152.065 111.082 152.047 110.99 152.016 110.912C151.985 110.834 151.944 110.774 151.891 110.731C151.839 110.689 151.776 110.67 151.703 110.673C151.628 110.677 151.565 110.702 151.515 110.749C151.466 110.797 151.43 110.861 151.406 110.941C151.384 111.022 151.375 111.115 151.38 111.221C151.385 111.326 151.403 111.417 151.433 111.495C151.464 111.573 151.506 111.633 151.56 111.676C151.614 111.718 151.679 111.737 151.754 111.733ZM154.03 110.136L154.051 110.583L152.848 110.641L152.827 110.194L154.03 110.136ZM153.057 109.725L153.664 109.695L153.749 111.46C153.75 111.497 153.758 111.527 153.77 111.549C153.784 111.571 153.803 111.586 153.826 111.595C153.85 111.603 153.878 111.606 153.91 111.605C153.933 111.604 153.957 111.6 153.983 111.595C154.009 111.589 154.029 111.584 154.042 111.58L154.155 112.014C154.126 112.023 154.086 112.036 154.033 112.051C153.982 112.066 153.92 112.076 153.847 112.083C153.705 112.097 153.582 112.086 153.479 112.051C153.376 112.015 153.295 111.956 153.237 111.874C153.18 111.791 153.149 111.685 153.145 111.556L153.057 109.725Z" fill="#05AC5E"/>
<path d="M200.801 105.972C200.906 105.855 200.952 105.727 200.939 105.585C200.928 105.444 200.852 105.298 200.712 105.147C200.619 105.047 200.529 104.976 200.441 104.934C200.353 104.891 200.271 104.875 200.194 104.884C200.118 104.892 200.051 104.923 199.992 104.976C199.942 105.019 199.908 105.067 199.891 105.122C199.875 105.178 199.872 105.239 199.882 105.305C199.893 105.372 199.916 105.444 199.949 105.522C199.982 105.6 200.025 105.682 200.077 105.769L200.27 106.102C200.383 106.292 200.467 106.474 200.522 106.648C200.577 106.823 200.604 106.988 200.601 107.144C200.6 107.301 200.567 107.448 200.504 107.587C200.44 107.725 200.345 107.854 200.218 107.974C200.015 108.161 199.795 108.271 199.556 108.304C199.318 108.338 199.072 108.296 198.819 108.178C198.567 108.061 198.317 107.869 198.07 107.603C197.821 107.336 197.645 107.065 197.54 106.792C197.436 106.519 197.414 106.251 197.475 105.989C197.535 105.727 197.689 105.478 197.936 105.243L198.624 105.983C198.526 106.085 198.466 106.192 198.443 106.305C198.42 106.418 198.43 106.533 198.474 106.651C198.519 106.771 198.594 106.887 198.699 107C198.796 107.104 198.892 107.18 198.988 107.227C199.085 107.274 199.177 107.295 199.263 107.288C199.35 107.281 199.426 107.248 199.492 107.189C199.551 107.132 199.585 107.066 199.594 106.989C199.604 106.912 199.589 106.821 199.55 106.716C199.512 106.612 199.453 106.488 199.372 106.347L199.139 105.94C198.946 105.604 198.845 105.291 198.839 105C198.834 104.709 198.953 104.451 199.196 104.226C199.393 104.042 199.615 103.934 199.864 103.903C200.112 103.872 200.366 103.912 200.625 104.024C200.884 104.136 201.127 104.313 201.352 104.556C201.582 104.803 201.74 105.057 201.825 105.318C201.912 105.578 201.926 105.829 201.869 106.07C201.812 106.311 201.685 106.525 201.489 106.712L200.801 105.972ZM198.755 110.061L202.051 106.998L202.753 107.753L202.343 108.135L202.364 108.158C202.466 108.122 202.577 108.101 202.698 108.095C202.82 108.091 202.944 108.113 203.07 108.163C203.198 108.213 203.32 108.301 203.437 108.427C203.592 108.593 203.693 108.789 203.74 109.015C203.788 109.242 203.762 109.485 203.663 109.744C203.564 110.002 203.374 110.263 203.092 110.525C202.82 110.777 202.553 110.945 202.289 111.029C202.027 111.114 201.782 111.126 201.555 111.066C201.329 111.006 201.134 110.888 200.97 110.711C200.858 110.59 200.78 110.467 200.738 110.342C200.695 110.217 200.678 110.094 200.686 109.974C200.696 109.855 200.722 109.744 200.766 109.644L200.752 109.628L199.464 110.825L198.755 110.061ZM201.547 108.86C201.418 108.979 201.322 109.101 201.258 109.224C201.195 109.349 201.168 109.468 201.175 109.583C201.185 109.698 201.233 109.802 201.319 109.894C201.406 109.988 201.506 110.044 201.619 110.061C201.733 110.077 201.854 110.057 201.98 110.002C202.108 109.947 202.236 109.86 202.365 109.74C202.494 109.62 202.59 109.499 202.653 109.376C202.717 109.255 202.744 109.138 202.735 109.024C202.727 108.911 202.679 108.807 202.591 108.712C202.504 108.619 202.405 108.563 202.293 108.545C202.181 108.526 202.061 108.544 201.934 108.596C201.807 108.65 201.678 108.738 201.547 108.86ZM203.261 113.198C203.027 112.947 202.878 112.682 202.812 112.405C202.749 112.129 202.765 111.855 202.859 111.586C202.955 111.316 203.126 111.067 203.372 110.838C203.618 110.609 203.879 110.457 204.154 110.382C204.431 110.306 204.705 110.311 204.975 110.395C205.248 110.479 205.501 110.647 205.735 110.899C205.969 111.151 206.118 111.415 206.181 111.692C206.246 111.969 206.231 112.242 206.134 112.512C206.04 112.782 205.869 113.031 205.623 113.261C205.377 113.489 205.116 113.641 204.839 113.716C204.564 113.791 204.29 113.787 204.018 113.702C203.747 113.618 203.495 113.45 203.261 113.198ZM203.841 112.668C203.927 112.759 204.027 112.811 204.142 112.822C204.257 112.833 204.38 112.809 204.511 112.75C204.643 112.691 204.774 112.601 204.905 112.479C205.038 112.355 205.139 112.23 205.207 112.103C205.276 111.977 205.309 111.856 205.306 111.74C205.303 111.624 205.259 111.521 205.174 111.429C205.086 111.334 204.984 111.28 204.867 111.267C204.75 111.255 204.627 111.278 204.495 111.336C204.364 111.396 204.232 111.488 204.099 111.611C203.968 111.733 203.868 111.857 203.799 111.983C203.731 112.11 203.699 112.232 203.702 112.349C203.707 112.467 203.753 112.573 203.841 112.668ZM208.45 113.884L207.888 114.406L206.483 112.893L207.045 112.371L208.45 113.884ZM207.913 112.154L208.623 112.917L206.405 114.979C206.358 115.022 206.327 115.065 206.311 115.106C206.298 115.148 206.298 115.189 206.313 115.23C206.328 115.27 206.355 115.31 206.393 115.351C206.42 115.38 206.451 115.408 206.486 115.435C206.523 115.463 206.552 115.483 206.571 115.496L206.128 116.123C206.084 116.097 206.023 116.057 205.945 116.005C205.869 115.954 205.786 115.885 205.697 115.797C205.522 115.626 205.4 115.453 205.331 115.278C205.264 115.104 205.253 114.933 205.297 114.766C205.342 114.6 205.447 114.442 205.611 114.294L207.913 112.154Z" fill="#05AC5E"/>
<path d="M151 92.7058L191.496 131.06L192.156 130.355L151.66 92L151 92.7058Z" fill="#004059"/>
</g>
<path d="M169.523 105.044C169.369 104.896 169.272 104.731 169.232 104.549C169.193 104.368 169.212 104.177 169.289 103.976C169.366 103.776 169.501 103.576 169.693 103.375C169.884 103.174 170.077 103.03 170.272 102.945C170.466 102.861 170.654 102.835 170.836 102.866C171.018 102.898 171.187 102.988 171.341 103.134C171.495 103.281 171.592 103.445 171.632 103.625C171.673 103.805 171.656 103.995 171.581 104.194C171.507 104.392 171.374 104.591 171.182 104.792C170.99 104.994 170.795 105.138 170.599 105.225C170.403 105.312 170.213 105.34 170.03 105.31C169.847 105.28 169.678 105.191 169.523 105.044ZM169.831 104.721C169.937 104.821 170.071 104.848 170.236 104.802C170.4 104.756 170.583 104.626 170.784 104.413C170.917 104.273 171.014 104.143 171.073 104.023C171.134 103.903 171.16 103.795 171.153 103.698C171.145 103.602 171.107 103.521 171.037 103.454C170.932 103.354 170.798 103.327 170.635 103.372C170.472 103.417 170.29 103.544 170.09 103.753C169.955 103.894 169.857 104.026 169.795 104.147C169.734 104.269 169.707 104.379 169.714 104.476C169.722 104.572 169.761 104.654 169.831 104.721ZM171.269 106.705C171.114 106.557 171.017 106.392 170.978 106.21C170.939 106.029 170.957 105.838 171.034 105.638C171.111 105.438 171.246 105.237 171.439 105.036C171.63 104.835 171.823 104.692 172.017 104.607C172.212 104.522 172.4 104.496 172.581 104.528C172.764 104.56 172.932 104.649 173.086 104.796C173.24 104.943 173.338 105.106 173.378 105.286C173.419 105.467 173.402 105.656 173.327 105.855C173.253 106.053 173.12 106.253 172.928 106.453C172.735 106.656 172.541 106.8 172.344 106.886C172.148 106.973 171.959 107.001 171.776 106.971C171.593 106.941 171.424 106.853 171.269 106.705ZM171.576 106.382C171.682 106.483 171.817 106.51 171.981 106.463C172.145 106.417 172.328 106.288 172.53 106.075C172.663 105.935 172.759 105.805 172.819 105.684C172.879 105.564 172.906 105.456 172.898 105.359C172.891 105.264 172.852 105.182 172.782 105.115C172.677 105.015 172.543 104.988 172.38 105.033C172.217 105.078 172.036 105.205 171.836 105.414C171.701 105.555 171.602 105.687 171.54 105.809C171.479 105.93 171.452 106.04 171.46 106.137C171.467 106.233 171.506 106.315 171.576 106.382ZM173.014 108.367C172.86 108.219 172.763 108.054 172.723 107.872C172.684 107.69 172.703 107.499 172.779 107.299C172.857 107.099 172.991 106.898 173.184 106.697C173.375 106.496 173.568 106.353 173.762 106.268C173.957 106.184 174.145 106.157 174.327 106.189C174.509 106.221 174.677 106.31 174.832 106.457C174.986 106.604 175.083 106.767 175.123 106.947C175.164 107.128 175.147 107.318 175.072 107.517C174.998 107.715 174.865 107.914 174.673 108.115C174.48 108.317 174.286 108.461 174.089 108.547C173.893 108.634 173.704 108.663 173.521 108.633C173.338 108.603 173.169 108.514 173.014 108.367ZM173.322 108.043C173.427 108.144 173.562 108.171 173.726 108.125C173.891 108.079 174.073 107.949 174.275 107.736C174.408 107.596 174.505 107.466 174.564 107.345C174.625 107.226 174.651 107.117 174.643 107.021C174.636 106.925 174.598 106.843 174.527 106.777C174.422 106.677 174.288 106.649 174.125 106.694C173.962 106.739 173.781 106.866 173.581 107.075C173.446 107.217 173.348 107.348 173.286 107.47C173.225 107.592 173.198 107.701 173.205 107.798C173.213 107.895 173.252 107.976 173.322 108.043ZM174.76 110.028C174.605 109.88 174.508 109.715 174.469 109.533C174.43 109.352 174.448 109.161 174.525 108.96C174.602 108.76 174.737 108.56 174.929 108.359C175.121 108.158 175.314 108.014 175.508 107.929C175.703 107.845 175.891 107.819 176.072 107.85C176.254 107.882 176.423 107.972 176.577 108.118C176.731 108.265 176.829 108.429 176.869 108.609C176.91 108.789 176.893 108.979 176.818 109.178C176.743 109.376 176.61 109.575 176.418 109.776C176.226 109.978 176.031 110.122 175.835 110.209C175.639 110.296 175.449 110.324 175.266 110.294C175.083 110.264 174.914 110.175 174.76 110.028ZM175.067 109.705C175.173 109.805 175.308 109.832 175.472 109.786C175.636 109.74 175.819 109.61 176.02 109.397C176.154 109.257 176.25 109.127 176.31 109.007C176.37 108.887 176.396 108.779 176.389 108.682C176.382 108.586 176.343 108.505 176.273 108.438C176.168 108.338 176.034 108.311 175.871 108.356C175.708 108.401 175.526 108.528 175.326 108.736C175.192 108.878 175.093 109.01 175.031 109.131C174.97 109.253 174.943 109.363 174.95 109.46C174.958 109.556 174.997 109.638 175.067 109.705ZM178.265 113.365C178.111 113.217 178.014 113.052 177.974 112.87C177.935 112.689 177.954 112.498 178.031 112.297C178.108 112.097 178.243 111.896 178.435 111.695C178.626 111.494 178.819 111.351 179.013 111.266C179.208 111.182 179.396 111.155 179.578 111.187C179.76 111.219 179.929 111.308 180.083 111.455C180.237 111.602 180.334 111.765 180.374 111.946C180.415 112.126 180.398 112.316 180.323 112.515C180.249 112.713 180.116 112.912 179.924 113.113C179.732 113.315 179.537 113.459 179.341 113.546C179.145 113.632 178.955 113.661 178.772 113.631C178.589 113.601 178.42 113.512 178.265 113.365ZM178.573 113.041C178.679 113.142 178.813 113.169 178.978 113.123C179.142 113.077 179.325 112.947 179.526 112.734C179.659 112.594 179.756 112.464 179.815 112.344C179.876 112.224 179.902 112.115 179.894 112.019C179.887 111.923 179.849 111.842 179.779 111.775C179.674 111.675 179.54 111.647 179.377 111.692C179.214 111.737 179.032 111.864 178.832 112.073C178.697 112.215 178.599 112.347 178.537 112.468C178.476 112.59 178.449 112.699 178.456 112.796C178.464 112.893 178.503 112.975 178.573 113.041ZM180.011 115.026C179.856 114.878 179.759 114.713 179.72 114.531C179.681 114.35 179.699 114.159 179.776 113.958C179.853 113.758 179.988 113.558 180.18 113.357C180.372 113.156 180.565 113.013 180.759 112.927C180.954 112.843 181.142 112.817 181.323 112.848C181.506 112.88 181.674 112.97 181.828 113.116C181.982 113.263 182.08 113.427 182.12 113.607C182.161 113.788 182.144 113.977 182.069 114.176C181.995 114.374 181.862 114.574 181.67 114.774C181.477 114.976 181.282 115.121 181.086 115.207C180.89 115.294 180.7 115.322 180.517 115.292C180.334 115.262 180.166 115.173 180.011 115.026ZM180.318 114.703C180.424 114.803 180.559 114.83 180.723 114.784C180.887 114.738 181.07 114.608 181.272 114.395C181.405 114.255 181.501 114.125 181.561 114.005C181.621 113.885 181.648 113.777 181.64 113.68C181.633 113.584 181.594 113.503 181.524 113.436C181.419 113.336 181.285 113.309 181.122 113.354C180.959 113.399 180.777 113.526 180.577 113.735C180.443 113.876 180.344 114.008 180.282 114.13C180.221 114.251 180.194 114.361 180.201 114.458C180.209 114.554 180.248 114.636 180.318 114.703ZM181.756 116.687C181.602 116.539 181.505 116.374 181.465 116.192C181.426 116.011 181.445 115.82 181.521 115.62C181.599 115.42 181.733 115.219 181.926 115.018C182.117 114.817 182.31 114.674 182.504 114.589C182.699 114.504 182.887 114.478 183.069 114.51C183.251 114.542 183.419 114.631 183.574 114.778C183.728 114.925 183.825 115.088 183.865 115.268C183.906 115.449 183.889 115.639 183.814 115.837C183.74 116.036 183.607 116.235 183.415 116.435C183.222 116.638 183.028 116.782 182.831 116.868C182.635 116.955 182.446 116.984 182.263 116.953C182.08 116.923 181.911 116.835 181.756 116.687ZM182.064 116.364C182.169 116.465 182.304 116.492 182.468 116.446C182.633 116.399 182.815 116.27 183.017 116.057C183.15 115.917 183.247 115.787 183.306 115.666C183.367 115.546 183.393 115.438 183.385 115.342C183.378 115.246 183.34 115.164 183.269 115.097C183.164 114.997 183.03 114.97 182.867 115.015C182.704 115.06 182.523 115.187 182.323 115.396C182.188 115.538 182.09 115.669 182.028 115.791C181.967 115.913 181.94 116.022 181.947 116.119C181.955 116.216 181.994 116.297 182.064 116.364ZM183.502 118.349C183.347 118.201 183.25 118.036 183.211 117.854C183.172 117.673 183.19 117.482 183.267 117.281C183.344 117.081 183.479 116.88 183.671 116.679C183.863 116.478 184.055 116.335 184.25 116.25C184.445 116.166 184.633 116.139 184.814 116.171C184.996 116.203 185.165 116.292 185.319 116.439C185.473 116.586 185.57 116.749 185.611 116.93C185.651 117.11 185.634 117.3 185.56 117.499C185.485 117.697 185.352 117.896 185.16 118.097C184.968 118.299 184.773 118.443 184.577 118.53C184.381 118.616 184.191 118.645 184.008 118.615C183.825 118.585 183.656 118.496 183.502 118.349ZM183.809 118.025C183.915 118.126 184.05 118.153 184.214 118.107C184.378 118.061 184.561 117.931 184.762 117.718C184.896 117.578 184.992 117.448 185.052 117.327C185.112 117.208 185.138 117.099 185.131 117.003C185.124 116.907 185.085 116.826 185.015 116.759C184.91 116.659 184.776 116.631 184.613 116.676C184.45 116.721 184.268 116.848 184.068 117.057C183.934 117.199 183.835 117.331 183.773 117.452C183.712 117.574 183.685 117.683 183.692 117.78C183.7 117.877 183.739 117.959 183.809 118.025ZM187.007 121.685C186.853 121.537 186.756 121.372 186.716 121.191C186.677 121.009 186.696 120.818 186.773 120.618C186.85 120.418 186.984 120.217 187.177 120.016C187.368 119.815 187.561 119.672 187.755 119.587C187.95 119.502 188.138 119.476 188.32 119.508C188.502 119.54 188.67 119.629 188.825 119.776C188.979 119.923 189.076 120.086 189.116 120.266C189.157 120.447 189.14 120.637 189.065 120.835C188.991 121.034 188.858 121.233 188.666 121.433C188.474 121.636 188.279 121.78 188.082 121.866C187.887 121.953 187.697 121.982 187.514 121.952C187.331 121.922 187.162 121.833 187.007 121.685ZM187.315 121.362C187.42 121.463 187.555 121.49 187.72 121.444C187.884 121.397 188.067 121.268 188.268 121.055C188.401 120.915 188.498 120.785 188.557 120.664C188.618 120.544 188.644 120.436 188.636 120.34C188.629 120.244 188.591 120.162 188.521 120.096C188.415 119.996 188.281 119.968 188.118 120.013C187.955 120.058 187.774 120.185 187.574 120.394C187.439 120.536 187.341 120.667 187.279 120.789C187.218 120.911 187.191 121.02 187.198 121.117C187.206 121.214 187.245 121.295 187.315 121.362ZM188.753 123.347C188.598 123.199 188.501 123.034 188.462 122.852C188.423 122.671 188.441 122.48 188.518 122.279C188.595 122.079 188.73 121.879 188.922 121.677C189.114 121.476 189.307 121.333 189.501 121.248C189.696 121.164 189.884 121.137 190.065 121.169C190.248 121.201 190.416 121.29 190.57 121.437C190.724 121.584 190.822 121.748 190.862 121.928C190.903 122.108 190.886 122.298 190.811 122.497C190.737 122.695 190.603 122.894 190.412 123.095C190.219 123.297 190.024 123.441 189.828 123.528C189.632 123.615 189.442 123.643 189.259 123.613C189.076 123.583 188.908 123.494 188.753 123.347ZM189.06 123.024C189.166 123.124 189.301 123.151 189.465 123.105C189.629 123.059 189.812 122.929 190.014 122.716C190.147 122.576 190.243 122.446 190.303 122.326C190.363 122.206 190.39 122.098 190.382 122.001C190.375 121.905 190.336 121.824 190.266 121.757C190.161 121.657 190.027 121.629 189.864 121.674C189.701 121.719 189.519 121.846 189.319 122.055C189.185 122.197 189.086 122.329 189.024 122.45C188.963 122.572 188.936 122.681 188.943 122.778C188.951 122.875 188.99 122.957 189.06 123.024ZM190.498 125.008C190.344 124.86 190.247 124.695 190.207 124.513C190.168 124.332 190.187 124.141 190.263 123.94C190.34 123.74 190.475 123.54 190.668 123.339C190.859 123.138 191.052 122.995 191.246 122.91C191.441 122.825 191.629 122.799 191.81 122.831C191.993 122.862 192.161 122.952 192.316 123.099C192.47 123.245 192.567 123.409 192.607 123.589C192.648 123.77 192.631 123.959 192.556 124.158C192.482 124.356 192.349 124.556 192.157 124.756C191.964 124.958 191.77 125.103 191.573 125.189C191.377 125.276 191.188 125.304 191.005 125.274C190.822 125.244 190.653 125.155 190.498 125.008ZM190.806 124.685C190.911 124.785 191.046 124.813 191.21 124.766C191.374 124.72 191.557 124.59 191.759 124.377C191.892 124.238 191.989 124.107 192.048 123.987C192.109 123.867 192.135 123.759 192.127 123.662C192.12 123.566 192.082 123.485 192.011 123.418C191.906 123.318 191.772 123.291 191.609 123.336C191.446 123.381 191.265 123.508 191.065 123.717C190.93 123.858 190.832 123.99 190.77 124.112C190.709 124.233 190.682 124.343 190.689 124.44C190.697 124.536 190.735 124.618 190.806 124.685ZM192.243 126.669C192.089 126.521 191.992 126.356 191.953 126.175C191.914 125.993 191.932 125.802 192.009 125.602C192.086 125.402 192.221 125.201 192.413 125C192.605 124.799 192.797 124.656 192.992 124.571C193.187 124.486 193.375 124.46 193.556 124.492C193.738 124.524 193.907 124.613 194.061 124.76C194.215 124.907 194.312 125.07 194.353 125.25C194.393 125.431 194.376 125.621 194.302 125.819C194.227 126.018 194.094 126.217 193.902 126.417C193.71 126.62 193.515 126.764 193.319 126.85C193.123 126.937 192.933 126.966 192.75 126.936C192.567 126.905 192.398 126.817 192.243 126.669ZM192.551 126.346C192.657 126.447 192.792 126.474 192.956 126.428C193.12 126.381 193.303 126.252 193.504 126.039C193.638 125.899 193.734 125.769 193.794 125.648C193.854 125.528 193.88 125.42 193.873 125.324C193.866 125.228 193.827 125.146 193.757 125.079C193.652 124.98 193.518 124.952 193.355 124.997C193.192 125.042 193.01 125.169 192.81 125.378C192.675 125.52 192.577 125.651 192.515 125.773C192.454 125.895 192.427 126.004 192.434 126.101C192.442 126.198 192.481 126.279 192.551 126.346Z" fill="white"/>
<path d="M187.919 113.313L188.303 113.663L187.288 114.779C187.193 114.883 187.084 114.951 186.964 114.985C186.844 115.017 186.72 115.016 186.594 114.98C186.468 114.944 186.348 114.874 186.234 114.77C186.133 114.679 186.058 114.578 186.007 114.467C185.957 114.358 185.942 114.243 185.96 114.125C185.979 114.007 186.042 113.89 186.147 113.775L186.536 114.129C186.5 114.172 186.475 114.214 186.463 114.256C186.451 114.299 186.451 114.339 186.464 114.377C186.476 114.415 186.5 114.451 186.536 114.483C186.573 114.517 186.612 114.538 186.652 114.545C186.692 114.553 186.734 114.546 186.775 114.527C186.818 114.508 186.861 114.475 186.904 114.429L187.919 113.313ZM187.624 116.036C187.497 115.921 187.411 115.795 187.367 115.66C187.324 115.525 187.321 115.388 187.356 115.249C187.393 115.111 187.468 114.98 187.58 114.856C187.694 114.731 187.817 114.644 187.951 114.595C188.086 114.546 188.223 114.537 188.361 114.568C188.5 114.598 188.633 114.671 188.76 114.787C188.888 114.903 188.973 115.028 189.016 115.163C189.06 115.299 189.064 115.435 189.027 115.574C188.991 115.712 188.917 115.844 188.804 115.968C188.691 116.092 188.567 116.179 188.432 116.228C188.298 116.277 188.161 116.286 188.022 116.256C187.884 116.225 187.751 116.152 187.624 116.036ZM187.891 115.748C187.937 115.79 187.989 115.811 188.047 115.812C188.105 115.813 188.165 115.795 188.228 115.76C188.291 115.726 188.353 115.675 188.413 115.609C188.474 115.542 188.519 115.475 188.548 115.409C188.577 115.343 188.588 115.281 188.582 115.224C188.576 115.166 188.55 115.117 188.503 115.075C188.456 115.031 188.402 115.008 188.343 115.007C188.285 115.005 188.224 115.022 188.161 115.057C188.098 115.092 188.036 115.143 187.975 115.21C187.915 115.277 187.87 115.343 187.841 115.408C187.813 115.474 187.802 115.537 187.808 115.595C187.816 115.653 187.843 115.704 187.891 115.748ZM189.467 116.409L188.839 117.1L188.454 116.749L189.922 115.135L190.295 115.474L189.726 116.1L189.739 116.112C189.834 116.062 189.932 116.045 190.032 116.059C190.133 116.074 190.229 116.123 190.319 116.205C190.404 116.282 190.461 116.368 190.489 116.464C190.519 116.558 190.519 116.656 190.492 116.755C190.465 116.856 190.41 116.951 190.326 117.042L189.624 117.814L189.239 117.463L189.872 116.767C189.934 116.701 189.965 116.633 189.965 116.564C189.965 116.495 189.934 116.432 189.872 116.376C189.832 116.339 189.788 116.316 189.741 116.305C189.694 116.295 189.648 116.298 189.601 116.315C189.554 116.332 189.51 116.364 189.467 116.409ZM190.878 117.693L190.25 118.383L189.865 118.033L190.966 116.822L191.332 117.155L191.13 117.378L191.144 117.39C191.238 117.34 191.336 117.324 191.439 117.34C191.543 117.357 191.639 117.405 191.728 117.487C191.813 117.564 191.87 117.65 191.897 117.746C191.926 117.841 191.926 117.938 191.899 118.038C191.873 118.138 191.818 118.233 191.735 118.323L191.033 119.095L190.647 118.744L191.28 118.049C191.342 117.982 191.373 117.914 191.373 117.844C191.373 117.775 191.342 117.713 191.281 117.658C191.241 117.621 191.197 117.598 191.15 117.587C191.104 117.577 191.057 117.58 191.011 117.598C190.965 117.615 190.921 117.647 190.878 117.693ZM192.345 120.288L191.748 119.746L193.216 118.132L193.812 118.674C193.976 118.823 194.089 118.984 194.149 119.157C194.21 119.33 194.217 119.506 194.172 119.685C194.127 119.864 194.029 120.038 193.876 120.205C193.723 120.374 193.56 120.489 193.385 120.551C193.211 120.613 193.035 120.623 192.857 120.579C192.679 120.534 192.509 120.438 192.345 120.288ZM192.441 119.768L192.632 119.942C192.723 120.024 192.813 120.079 192.903 120.105C192.994 120.131 193.088 120.125 193.183 120.084C193.279 120.044 193.38 119.966 193.485 119.85C193.591 119.734 193.659 119.626 193.689 119.528C193.719 119.429 193.717 119.335 193.681 119.247C193.646 119.159 193.582 119.072 193.49 118.988L193.304 118.819L192.441 119.768ZM193.913 121.757C193.786 121.642 193.701 121.516 193.657 121.381C193.613 121.246 193.61 121.109 193.645 120.97C193.682 120.832 193.757 120.701 193.87 120.577C193.983 120.452 194.106 120.365 194.24 120.316C194.375 120.267 194.512 120.258 194.65 120.289C194.789 120.319 194.922 120.392 195.05 120.508C195.177 120.624 195.262 120.749 195.305 120.884C195.349 121.02 195.353 121.156 195.316 121.295C195.28 121.433 195.206 121.565 195.093 121.689C194.98 121.813 194.856 121.9 194.721 121.949C194.587 121.998 194.451 122.007 194.311 121.977C194.173 121.946 194.041 121.873 193.913 121.757ZM194.18 121.469C194.227 121.511 194.279 121.532 194.336 121.533C194.394 121.534 194.455 121.516 194.517 121.481C194.58 121.447 194.642 121.396 194.702 121.33C194.764 121.263 194.808 121.196 194.837 121.13C194.866 121.064 194.877 121.002 194.871 120.945C194.865 120.887 194.839 120.838 194.792 120.796C194.745 120.752 194.691 120.729 194.632 120.728C194.574 120.726 194.513 120.743 194.45 120.778C194.387 120.813 194.325 120.864 194.264 120.931C194.204 120.998 194.159 121.064 194.13 121.129C194.102 121.195 194.091 121.258 194.098 121.316C194.105 121.374 194.132 121.425 194.18 121.469ZM195.288 123.008C195.162 122.893 195.075 122.768 195.028 122.635C194.983 122.501 194.978 122.365 195.013 122.227C195.049 122.089 195.126 121.956 195.243 121.827C195.357 121.702 195.481 121.616 195.615 121.567C195.75 121.518 195.886 121.508 196.023 121.538C196.161 121.567 196.291 121.637 196.413 121.748C196.499 121.826 196.565 121.911 196.612 122.003C196.66 122.095 196.685 122.191 196.689 122.291C196.694 122.39 196.675 122.492 196.634 122.596C196.593 122.699 196.527 122.8 196.437 122.899L196.349 122.995L195.297 122.038L195.501 121.814L196.194 122.445C196.231 122.404 196.255 122.358 196.265 122.309C196.275 122.26 196.272 122.211 196.255 122.163C196.239 122.115 196.21 122.072 196.167 122.033C196.124 121.994 196.077 121.969 196.025 121.957C195.974 121.945 195.923 121.946 195.873 121.961C195.823 121.976 195.779 122.003 195.74 122.044L195.533 122.271C195.488 122.321 195.459 122.373 195.444 122.428C195.43 122.482 195.432 122.536 195.449 122.589C195.466 122.642 195.499 122.691 195.548 122.736C195.582 122.767 195.618 122.791 195.654 122.806C195.691 122.822 195.727 122.83 195.764 122.83C195.801 122.83 195.836 122.821 195.871 122.803L196.215 123.135C196.128 123.201 196.033 123.241 195.93 123.254C195.827 123.268 195.721 123.254 195.611 123.213C195.501 123.172 195.394 123.104 195.288 123.008Z" fill="white"/>
<defs>
<linearGradient id="paint0_linear_215_155" x1="35.9999" y1="122.001" x2="136" y2="122.001" gradientUnits="userSpaceOnUse">
<stop stop-color="#CCCCCC"/>
<stop offset="1" stop-color="#E2E8F0" stop-opacity="0"/>
</linearGradient>
</defs>
</svg>
