<svg width="296" height="258" viewBox="0 0 296 258" fill="none" xmlns="http://www.w3.org/2000/svg">
<path d="M89.5487 168.993C81.1381 168.993 73.0041 167.886 65.1467 165.673C57.2894 163.46 51.0921 160.527 46.5547 156.875L57.1787 130.481C61.8267 133.58 66.8067 135.959 72.1187 137.619C77.4307 139.168 82.7981 139.943 88.2207 139.943C93.4221 139.943 97.2401 139.168 99.6747 137.619C102.22 136.07 103.493 133.746 103.493 130.647C103.493 127.659 102.442 125.501 100.339 124.173C98.2361 122.845 95.0821 122.181 90.8767 122.181H69.4627V94.2925H87.3907C91.2641 94.2925 94.3074 93.5732 96.5207 92.1345C98.7341 90.6958 99.8407 88.5932 99.8407 85.8265C99.8407 82.9492 98.7341 80.7912 96.5207 79.3525C94.3074 77.8032 91.0427 77.0285 86.7267 77.0285C76.7667 77.0285 67.5814 80.1272 59.1707 86.3245L48.3807 60.4285C53.5821 56.5552 59.8901 53.5118 67.3047 51.2985C74.7194 49.0852 82.4107 47.9785 90.3787 47.9785C103.991 47.9785 114.615 50.9112 122.251 56.7765C129.887 62.5312 133.705 70.6098 133.705 81.0125C133.705 87.5418 131.824 93.1858 128.061 97.9445C124.409 102.704 119.318 105.858 112.789 107.407V104.917C120.425 106.134 126.401 109.344 130.717 114.545C135.144 119.746 137.357 126.276 137.357 134.133C137.357 144.978 133.096 153.5 124.575 159.697C116.054 165.894 104.378 168.993 89.5487 168.993Z" fill="url(#paint0_linear_215_2)"/>
<path d="M105.886 133.418C104.689 149.083 108.914 164.661 114.95 175.911C121.24 187.333 129.36 194.436 141.565 197.571C166.472 203.637 209.501 181.514 227.649 153.929C237.21 139.421 233.782 123.977 222.031 111.938C210.435 99.7532 190.535 90.938 170.81 86.4556C150.314 81.7124 132.495 85.9812 121.872 95.1219C110.881 104.284 107.078 118.29 105.876 133.435L105.886 133.418Z" fill="#05AC5E"/>
<path d="M219.334 130.017C219.334 130.017 213.844 123.249 213.844 140.412C213.844 151.269 211.007 151.632 203.127 151.632" stroke="#256981" stroke-width="0.47" stroke-miterlimit="10"/>
<path d="M225.148 148.088H221.319V150.243H225.148V148.088Z" fill="#0C2D3A"/>
<path d="M222.251 143.333H222.676V143.413H222.352V143.615H222.595V143.696H222.352V143.997H222.251V143.312V143.333Z" fill="#0C2D3A"/>
<path d="M222.94 143.332H223.041L223.305 144.016H223.203L223.142 143.835H222.859L222.798 144.016H222.697L222.96 143.332H222.94ZM223.102 143.734L223.001 143.432L222.879 143.734H223.102Z" fill="#0C2D3A"/>
<path d="M223.406 143.857L223.446 143.896C223.446 143.896 223.467 143.918 223.487 143.918C223.487 143.918 223.527 143.918 223.527 143.938C223.527 143.957 223.568 143.938 223.588 143.938C223.629 143.938 223.669 143.937 223.689 143.896C223.71 143.856 223.73 143.856 223.73 143.816C223.73 143.776 223.73 143.756 223.689 143.736C223.669 143.736 223.629 143.696 223.568 143.696C223.548 143.696 223.507 143.696 223.487 143.676C223.467 143.676 223.446 143.655 223.426 143.635C223.426 143.635 223.385 143.595 223.385 143.575C223.385 143.555 223.385 143.535 223.385 143.495C223.385 143.474 223.385 143.453 223.385 143.413C223.385 143.373 223.406 143.374 223.426 143.354C223.426 143.354 223.467 143.312 223.507 143.312C223.527 143.312 223.568 143.312 223.608 143.312C223.649 143.312 223.669 143.312 223.689 143.312C223.71 143.312 223.73 143.313 223.75 143.333C223.75 143.333 223.791 143.354 223.791 143.374H223.811L223.75 143.454L223.71 143.413C223.71 143.413 223.689 143.413 223.669 143.413C223.669 143.413 223.629 143.413 223.608 143.413C223.588 143.413 223.568 143.413 223.548 143.413C223.548 143.413 223.527 143.414 223.507 143.434C223.487 143.454 223.507 143.434 223.487 143.474C223.487 143.474 223.487 143.495 223.487 143.515V143.555C223.487 143.555 223.487 143.574 223.527 143.594C223.527 143.594 223.568 143.595 223.588 143.615H223.649C223.649 143.615 223.689 143.656 223.73 143.656C223.75 143.656 223.77 143.676 223.791 143.696C223.791 143.696 223.831 143.736 223.831 143.756C223.831 143.777 223.831 143.817 223.831 143.837C223.831 143.857 223.831 143.897 223.831 143.918C223.831 143.938 223.811 143.958 223.77 143.978C223.73 143.998 223.73 144.018 223.689 144.018C223.649 144.018 223.629 144.018 223.588 144.018C223.548 144.018 223.527 144.018 223.507 144.018C223.487 144.018 223.467 144.017 223.426 143.997C223.406 143.997 223.385 143.978 223.365 143.958C223.365 143.958 223.345 143.938 223.325 143.918L223.385 143.857H223.406Z" fill="#0C2D3A"/>
<path d="M224.135 143.434H223.892V143.354H224.479V143.434H224.236V144.019H224.135V143.434Z" fill="#0C2D3A"/>
<path d="M225.35 143.898C225.35 143.898 225.35 143.918 225.31 143.938C225.31 143.938 225.269 143.978 225.249 143.978C225.229 143.978 225.209 143.998 225.168 144.018C225.148 144.018 225.107 144.018 225.067 144.018C225.026 144.018 224.966 144.018 224.925 143.998C224.884 143.998 224.844 143.958 224.824 143.918C224.803 143.877 224.763 143.857 224.763 143.797C224.763 143.757 224.743 143.716 224.743 143.656C224.743 143.595 224.743 143.555 224.763 143.515C224.763 143.475 224.803 143.434 224.824 143.394C224.844 143.354 224.884 143.334 224.925 143.313C224.966 143.313 225.006 143.293 225.067 143.293C225.107 143.293 225.128 143.293 225.168 143.293C225.188 143.293 225.229 143.293 225.249 143.334C225.269 143.334 225.29 143.354 225.31 143.374C225.33 143.394 225.33 143.414 225.35 143.414L225.29 143.475V143.434C225.29 143.434 225.229 143.414 225.229 143.394C225.229 143.394 225.188 143.394 225.168 143.374C225.148 143.374 225.128 143.374 225.107 143.374C225.067 143.374 225.026 143.374 225.006 143.394C224.986 143.414 224.945 143.434 224.925 143.454C224.905 143.475 224.884 143.515 224.884 143.535C224.884 143.575 224.884 143.595 224.884 143.636C224.884 143.676 224.884 143.716 224.884 143.736C224.884 143.757 224.905 143.797 224.925 143.817C224.945 143.837 224.966 143.857 225.006 143.877C225.026 143.877 225.067 143.898 225.107 143.898C225.148 143.898 225.168 143.898 225.188 143.898C225.209 143.898 225.229 143.898 225.249 143.877C225.249 143.877 225.269 143.857 225.29 143.837H225.391L225.35 143.898Z" fill="#0C2D3A"/>
<path d="M225.452 143.332H225.553V143.614H225.918V143.332H226.019V144.016H225.918V143.714H225.553V144.016H225.452V143.332Z" fill="#0C2D3A"/>
<path d="M226.384 143.332H226.485L226.748 144.016H226.647L226.586 143.835H226.303L226.242 144.016H226.141L226.404 143.332H226.384ZM226.546 143.734L226.445 143.432L226.323 143.734H226.546Z" fill="#0C2D3A"/>
<path d="M226.85 143.333H227.072C227.072 143.333 227.153 143.333 227.174 143.333C227.194 143.333 227.235 143.354 227.255 143.374C227.255 143.374 227.295 143.414 227.295 143.434C227.295 143.454 227.295 143.474 227.295 143.515C227.295 143.555 227.295 143.594 227.255 143.635C227.214 143.675 227.194 143.695 227.153 143.715L227.316 143.997H227.214L227.072 143.715H226.931V143.997H226.829V143.312L226.85 143.333ZM227.072 143.656C227.072 143.656 227.153 143.656 227.174 143.615C227.194 143.595 227.214 143.575 227.214 143.535C227.214 143.495 227.214 143.474 227.174 143.454C227.153 143.434 227.113 143.413 227.072 143.413H226.951V143.656H227.072Z" fill="#0C2D3A"/>
<path d="M227.802 143.676H228.045V143.938L228.004 143.978C228.004 143.978 227.964 143.998 227.943 143.998C227.923 143.998 227.903 143.998 227.862 144.018C227.842 144.018 227.802 144.018 227.761 144.018C227.7 144.018 227.66 144.018 227.619 143.998C227.579 143.998 227.538 143.958 227.518 143.918C227.478 143.877 227.457 143.857 227.457 143.797C227.457 143.757 227.437 143.716 227.437 143.656C227.437 143.595 227.437 143.555 227.457 143.515C227.457 143.475 227.498 143.434 227.518 143.394C227.538 143.354 227.579 143.334 227.619 143.313C227.66 143.313 227.7 143.293 227.761 143.293C227.802 143.293 227.822 143.293 227.862 143.293C227.903 143.293 227.923 143.293 227.943 143.334C227.964 143.334 227.984 143.354 228.004 143.374L228.045 143.414L227.984 143.475V143.434C227.984 143.434 227.923 143.414 227.923 143.394C227.923 143.394 227.883 143.394 227.862 143.374C227.862 143.374 227.822 143.374 227.802 143.374C227.761 143.374 227.721 143.374 227.7 143.394C227.68 143.394 227.64 143.434 227.619 143.454C227.599 143.475 227.579 143.515 227.579 143.535C227.579 143.555 227.579 143.595 227.579 143.636C227.579 143.676 227.579 143.716 227.579 143.736C227.579 143.777 227.599 143.797 227.64 143.817C227.66 143.837 227.68 143.857 227.721 143.877C227.741 143.877 227.781 143.877 227.822 143.877C227.862 143.877 227.903 143.877 227.923 143.877C227.943 143.877 227.984 143.857 228.004 143.837V143.696H227.862V143.616L227.802 143.676Z" fill="#0C2D3A"/>
<path d="M228.187 143.332H228.288V144.016H228.187V143.332Z" fill="#0C2D3A"/>
<path d="M228.45 143.332H228.551L228.916 143.855V143.332H229.017V144.016H228.916L228.551 143.493V144.016H228.45V143.332Z" fill="#0C2D3A"/>
<path d="M229.524 143.676H229.767V143.938L229.726 143.978C229.726 143.978 229.686 143.998 229.666 143.998C229.645 143.998 229.625 143.998 229.585 144.018C229.564 144.018 229.524 144.018 229.483 144.018C229.423 144.018 229.382 144.018 229.342 143.998C229.301 143.998 229.26 143.958 229.24 143.918C229.2 143.877 229.179 143.857 229.179 143.797C229.179 143.757 229.159 143.716 229.159 143.656C229.159 143.595 229.159 143.555 229.179 143.515C229.179 143.475 229.22 143.434 229.24 143.394C229.26 143.354 229.301 143.334 229.342 143.313C229.382 143.313 229.423 143.293 229.483 143.293C229.524 143.293 229.544 143.293 229.585 143.293C229.625 143.293 229.645 143.293 229.666 143.334C229.686 143.334 229.706 143.354 229.726 143.374L229.767 143.414L229.706 143.475V143.434C229.706 143.434 229.645 143.414 229.645 143.394C229.645 143.394 229.605 143.394 229.585 143.374C229.585 143.374 229.544 143.374 229.524 143.374C229.483 143.374 229.443 143.374 229.423 143.394C229.402 143.394 229.362 143.434 229.342 143.454C229.321 143.475 229.301 143.515 229.301 143.535C229.301 143.555 229.301 143.595 229.301 143.636C229.301 143.676 229.301 143.716 229.301 143.736C229.301 143.777 229.321 143.797 229.362 143.817C229.382 143.837 229.402 143.857 229.443 143.877C229.463 143.877 229.504 143.877 229.544 143.877C229.585 143.877 229.625 143.877 229.645 143.877C229.666 143.877 229.706 143.857 229.726 143.837V143.696H229.585V143.616L229.524 143.676Z" fill="#0C2D3A"/>
<path d="M225.816 139.888L225.31 141.419C225.31 141.419 225.209 141.479 225.188 141.419L224.682 139.888C224.682 139.888 224.641 139.848 224.621 139.848H222.332C222.332 139.848 222.271 139.868 222.271 139.908V142.184C222.271 142.184 222.291 142.245 222.332 142.245H223.932C223.932 142.245 223.993 142.225 223.993 142.184V141.822C223.993 141.822 223.973 141.761 223.932 141.761H222.879C222.879 141.761 222.818 141.741 222.818 141.701V141.298C222.818 141.298 222.838 141.238 222.879 141.238H223.608C223.608 141.238 223.669 141.217 223.669 141.177V140.835C223.669 140.835 223.649 140.774 223.608 140.774H222.879C222.879 140.774 222.818 140.754 222.818 140.714V140.371C222.818 140.371 222.838 140.311 222.879 140.311H224.196C224.196 140.311 224.236 140.311 224.257 140.351L224.945 142.205C224.945 142.205 224.986 142.245 225.006 142.245H225.492C225.492 142.245 225.533 142.245 225.553 142.205L226.384 139.928C226.384 139.928 226.384 139.848 226.323 139.848H225.877C225.877 139.848 225.816 139.848 225.816 139.888Z" fill="#0C2D3A"/>
<path d="M226.404 142.527C226.404 142.527 226.465 142.487 226.485 142.507C226.546 142.527 226.586 142.547 226.647 142.567C226.728 142.587 226.809 142.607 226.89 142.607C227.012 142.607 227.093 142.567 227.174 142.507C227.235 142.446 227.275 142.346 227.275 142.225C227.275 142.225 227.214 142.144 227.174 142.164C227.072 142.225 226.971 142.245 226.829 142.245C226.708 142.245 226.607 142.245 226.505 142.184C226.404 142.144 226.323 142.084 226.262 142.023C226.201 141.963 226.141 141.862 226.12 141.761C226.08 141.661 226.06 141.56 226.06 141.439C226.06 141.298 226.08 141.177 226.12 141.076C226.161 140.976 226.242 140.875 226.323 140.794C226.404 140.714 226.505 140.653 226.627 140.613C226.748 140.573 226.87 140.553 227.032 140.553C227.194 140.553 227.295 140.553 227.437 140.593C227.538 140.613 227.64 140.633 227.741 140.674C227.761 140.674 227.782 140.714 227.782 140.734V142.225C227.782 142.507 227.701 142.708 227.559 142.849C227.397 142.99 227.194 143.051 226.931 143.051C226.769 143.051 226.647 143.051 226.526 143.01C226.424 142.99 226.343 142.95 226.262 142.91C226.222 142.91 226.222 142.849 226.242 142.829L226.384 142.567L226.404 142.527ZM227.295 141.036C227.295 141.036 227.295 140.976 227.255 140.976H227.194C227.194 140.976 227.113 140.956 227.052 140.956C226.971 140.956 226.91 140.956 226.85 140.996C226.789 141.016 226.748 141.056 226.708 141.097C226.667 141.137 226.647 141.197 226.627 141.238C226.627 141.298 226.607 141.359 226.607 141.419C226.607 141.54 226.627 141.641 226.688 141.701C226.748 141.782 226.829 141.802 226.951 141.802C227.052 141.802 227.133 141.782 227.194 141.721C227.255 141.661 227.275 141.58 227.275 141.479V141.016L227.295 141.036Z" fill="#256981"/>
<path d="M227.944 141.399C227.944 141.278 227.964 141.157 228.004 141.056C228.045 140.956 228.106 140.855 228.187 140.774C228.268 140.694 228.369 140.633 228.47 140.573C228.592 140.533 228.713 140.512 228.835 140.512C228.957 140.512 229.098 140.533 229.2 140.573C229.301 140.613 229.402 140.694 229.483 140.774C229.564 140.855 229.625 140.956 229.666 141.056C229.706 141.157 229.726 141.278 229.726 141.399C229.726 141.52 229.706 141.641 229.666 141.741C229.625 141.842 229.564 141.943 229.483 142.023C229.402 142.104 229.301 142.164 229.2 142.225C229.098 142.265 228.957 142.305 228.835 142.305C228.713 142.305 228.572 142.285 228.47 142.225C228.349 142.184 228.268 142.104 228.187 142.023C228.106 141.943 228.045 141.842 228.004 141.741C227.964 141.641 227.944 141.52 227.944 141.399ZM228.855 141.862C228.855 141.862 228.977 141.862 229.038 141.822C229.098 141.782 229.139 141.761 229.159 141.721C229.2 141.681 229.22 141.62 229.24 141.58C229.24 141.52 229.26 141.479 229.26 141.419C229.26 141.359 229.26 141.298 229.24 141.258C229.24 141.197 229.2 141.157 229.159 141.117C229.119 141.076 229.078 141.036 229.038 141.016C228.997 140.996 228.936 140.976 228.855 140.976C228.774 140.976 228.734 140.976 228.673 141.016C228.612 141.036 228.572 141.076 228.551 141.117C228.511 141.157 228.491 141.197 228.47 141.258C228.47 141.318 228.45 141.359 228.45 141.419C228.45 141.479 228.45 141.54 228.47 141.58C228.47 141.641 228.511 141.681 228.551 141.721C228.592 141.761 228.632 141.802 228.673 141.822C228.734 141.842 228.774 141.862 228.855 141.862Z" fill="#256981"/>
<path d="M229.544 140.613C229.544 140.613 229.544 140.593 229.544 140.573C229.544 140.573 229.544 140.553 229.564 140.533C229.564 140.533 229.584 140.533 229.605 140.512C229.605 140.512 229.625 140.512 229.645 140.512C229.665 140.512 229.665 140.512 229.686 140.512C229.706 140.512 229.706 140.512 229.726 140.533C229.726 140.533 229.726 140.553 229.746 140.573C229.746 140.573 229.746 140.593 229.746 140.613C229.746 140.633 229.746 140.633 229.746 140.653C229.746 140.653 229.747 140.674 229.726 140.694C229.726 140.694 229.706 140.694 229.686 140.714C229.686 140.714 229.665 140.714 229.645 140.714C229.625 140.714 229.625 140.714 229.605 140.714C229.605 140.714 229.584 140.714 229.564 140.694C229.564 140.694 229.564 140.674 229.544 140.653C229.524 140.633 229.544 140.633 229.544 140.613ZM229.645 140.714C229.645 140.714 229.665 140.714 229.686 140.714H229.706V140.674C229.706 140.674 229.726 140.653 229.726 140.633C229.726 140.613 229.726 140.613 229.726 140.593V140.553H229.665C229.665 140.553 229.645 140.553 229.625 140.553H229.605V140.593C229.605 140.593 229.584 140.613 229.584 140.633C229.584 140.653 229.584 140.653 229.584 140.674V140.714H229.645ZM229.605 140.573H229.645H229.665V140.613H229.645V140.674V140.633H229.605V140.674V140.573ZM229.645 140.633H229.665C229.665 140.633 229.665 140.593 229.645 140.593H229.625V140.633H229.645Z" fill="#256981"/>
<path d="M231.408 151.451H220.428V159.186H231.408V151.451Z" fill="#E1E5E5"/>
<path d="M229.625 152.338H227.842C227.63 152.338 227.457 152.51 227.457 152.721V157.777C227.457 157.989 227.63 158.16 227.842 158.16H229.625C229.838 158.16 230.01 157.989 230.01 157.777V152.721C230.01 152.51 229.838 152.338 229.625 152.338Z" fill="#0C2D3A"/>
<path d="M223.993 152.338H222.21C221.998 152.338 221.825 152.51 221.825 152.721V157.777C221.825 157.989 221.998 158.16 222.21 158.16H223.993C224.206 158.16 224.378 157.989 224.378 157.777V152.721C224.378 152.51 224.206 152.338 223.993 152.338Z" fill="#0C2D3A"/>
<path d="M231.408 126.109H220.428V137.813H231.408V126.109Z" fill="#E1E5E5"/>
<path d="M230.314 126.955H221.521V136.967H230.314V126.955Z" fill="#A8C2CB"/>
<path d="M216.234 133.725C216.234 133.725 210.623 134.148 211.413 152.097C212.203 170.045 205.821 167.165 200.392 167.165" stroke="#256981" stroke-width="0.49" stroke-miterlimit="10"/>
<path d="M230.212 176.328H216.052V181.042H230.212V176.328Z" fill="#E1E5E5"/>
<path d="M231.266 179.15H214.998V181.043H231.266V179.15Z" fill="#CCD3D4"/>
<path d="M215.525 129.956V177.799H230.719V123.832H215.525V129.936V129.956Z" fill="#CCD3D4"/>
<path d="M222.332 152.66H218.321V154.916H222.332V152.66Z" fill="#0C2D3A"/>
<path d="M219.293 147.684H219.739V147.785H219.395V148.006H219.658V148.107H219.395V148.409H219.293V147.704V147.684Z" fill="#0C2D3A"/>
<path d="M220.023 147.684H220.124L220.408 148.389H220.286L220.205 148.188H219.901L219.82 148.389H219.719L220.002 147.684H220.023ZM220.185 148.107L220.063 147.785L219.942 148.107H220.164H220.185Z" fill="#0C2D3A"/>
<path d="M220.509 148.208L220.549 148.248C220.549 148.248 220.57 148.268 220.59 148.288C220.59 148.288 220.63 148.288 220.651 148.309C220.671 148.329 220.691 148.309 220.711 148.309C220.752 148.309 220.792 148.309 220.813 148.268C220.833 148.228 220.853 148.228 220.853 148.188C220.853 148.147 220.853 148.127 220.813 148.107C220.792 148.107 220.732 148.067 220.691 148.067C220.651 148.067 220.63 148.067 220.61 148.047C220.59 148.047 220.57 148.027 220.549 148.006C220.549 148.006 220.509 147.966 220.509 147.946C220.509 147.926 220.509 147.906 220.509 147.865C220.509 147.845 220.509 147.805 220.509 147.785C220.509 147.765 220.529 147.745 220.549 147.724C220.549 147.724 220.59 147.684 220.63 147.684C220.651 147.684 220.691 147.684 220.732 147.684C220.772 147.684 220.792 147.684 220.813 147.684C220.833 147.684 220.853 147.684 220.873 147.704C220.873 147.704 220.914 147.724 220.914 147.745H220.934L220.873 147.825L220.833 147.785C220.833 147.785 220.813 147.785 220.792 147.785C220.792 147.785 220.752 147.785 220.732 147.785C220.711 147.785 220.691 147.785 220.671 147.785C220.671 147.785 220.651 147.785 220.63 147.805C220.61 147.825 220.63 147.825 220.61 147.845C220.61 147.845 220.61 147.865 220.61 147.886V147.926C220.61 147.926 220.61 147.946 220.651 147.966C220.651 147.966 220.691 147.966 220.711 147.986H220.792C220.792 147.986 220.853 148.027 220.873 148.027C220.894 148.027 220.914 148.047 220.934 148.067C220.934 148.067 220.975 148.107 220.975 148.127C220.975 148.147 220.975 148.188 220.975 148.228C220.975 148.268 220.975 148.288 220.975 148.309C220.975 148.329 220.934 148.349 220.914 148.369C220.894 148.389 220.873 148.409 220.833 148.409C220.792 148.409 220.772 148.409 220.732 148.409C220.691 148.409 220.671 148.409 220.63 148.409C220.61 148.409 220.57 148.409 220.549 148.389C220.529 148.389 220.509 148.369 220.489 148.349C220.489 148.349 220.448 148.329 220.448 148.309L220.529 148.248L220.509 148.208Z" fill="#0C2D3A"/>
<path d="M221.278 147.765H221.015V147.684H221.623V147.765H221.36V148.389H221.258V147.765H221.278Z" fill="#0C2D3A"/>
<path d="M222.534 148.268C222.534 148.268 222.534 148.288 222.494 148.308C222.494 148.308 222.453 148.349 222.433 148.349C222.413 148.349 222.372 148.369 222.352 148.389C222.312 148.389 222.291 148.389 222.251 148.389C222.19 148.389 222.15 148.389 222.109 148.369C222.069 148.369 222.028 148.329 221.988 148.288C221.947 148.248 221.927 148.208 221.906 148.167C221.906 148.127 221.886 148.067 221.886 148.026C221.886 147.986 221.886 147.926 221.906 147.885C221.906 147.845 221.947 147.805 221.988 147.765C222.028 147.724 222.048 147.704 222.109 147.684C222.15 147.684 222.21 147.664 222.251 147.664C222.291 147.664 222.332 147.664 222.352 147.664C222.372 147.664 222.413 147.684 222.433 147.704C222.453 147.704 222.474 147.724 222.494 147.744C222.514 147.765 222.514 147.785 222.534 147.785L222.453 147.845L222.413 147.805C222.413 147.805 222.393 147.785 222.372 147.765C222.372 147.765 222.332 147.765 222.312 147.744C222.291 147.744 222.271 147.744 222.231 147.744C222.19 147.744 222.15 147.744 222.129 147.765C222.109 147.785 222.069 147.805 222.048 147.825C222.028 147.845 222.008 147.885 222.008 147.906C222.008 147.946 222.008 147.966 222.008 148.006C222.008 148.047 222.008 148.087 222.008 148.107C222.008 148.127 222.028 148.167 222.048 148.188C222.069 148.208 222.089 148.228 222.129 148.248C222.17 148.248 222.19 148.268 222.231 148.268C222.271 148.268 222.291 148.268 222.312 148.268C222.332 148.268 222.352 148.268 222.372 148.248C222.372 148.248 222.393 148.228 222.413 148.208H222.433L222.514 148.248L222.534 148.268Z" fill="#0C2D3A"/>
<path d="M222.656 147.684H222.757V147.986H223.142V147.684H223.244V148.389H223.142V148.067H222.757V148.389H222.656V147.684Z" fill="#0C2D3A"/>
<path d="M223.629 147.684H223.73L224.013 148.389H223.892L223.811 148.188H223.507L223.426 148.389H223.325L223.608 147.684H223.629ZM223.791 148.107L223.669 147.785L223.548 148.107H223.77H223.791Z" fill="#0C2D3A"/>
<path d="M224.094 147.684H224.317C224.317 147.684 224.398 147.684 224.439 147.684C224.479 147.684 224.5 147.704 224.52 147.724C224.52 147.724 224.56 147.765 224.56 147.785C224.56 147.805 224.56 147.825 224.56 147.865C224.56 147.906 224.56 147.946 224.52 147.986C224.479 148.026 224.459 148.047 224.419 148.067L224.581 148.369H224.459L224.297 148.087H224.155V148.369H224.054V147.664L224.094 147.684ZM224.338 148.026C224.338 148.026 224.419 148.026 224.439 147.986C224.459 147.966 224.479 147.926 224.479 147.906C224.479 147.865 224.479 147.845 224.439 147.805C224.419 147.785 224.378 147.765 224.338 147.765H224.196V148.006H224.338V148.026Z" fill="#0C2D3A"/>
<path d="M225.107 148.027H225.35V148.309C225.35 148.309 225.33 148.329 225.31 148.349C225.31 148.349 225.269 148.369 225.249 148.389C225.229 148.389 225.209 148.389 225.168 148.409C225.148 148.409 225.107 148.409 225.067 148.409C225.006 148.409 224.966 148.409 224.925 148.389C224.884 148.389 224.844 148.349 224.803 148.309C224.763 148.268 224.743 148.228 224.722 148.188C224.722 148.147 224.702 148.087 224.702 148.047C224.702 148.006 224.702 147.946 224.722 147.906C224.722 147.865 224.763 147.825 224.803 147.785C224.844 147.745 224.864 147.724 224.925 147.704C224.966 147.704 225.026 147.684 225.067 147.684C225.107 147.684 225.148 147.684 225.168 147.684C225.188 147.684 225.229 147.704 225.249 147.724C225.269 147.724 225.29 147.745 225.31 147.765C225.31 147.765 225.33 147.805 225.35 147.805L225.269 147.865L225.229 147.825C225.229 147.825 225.209 147.805 225.188 147.785C225.188 147.785 225.148 147.785 225.128 147.765C225.107 147.765 225.087 147.765 225.047 147.765C225.006 147.765 224.966 147.765 224.945 147.785C224.905 147.785 224.884 147.825 224.864 147.845C224.844 147.865 224.824 147.906 224.824 147.926C224.824 147.946 224.824 148.006 224.824 148.027C224.824 148.067 224.824 148.107 224.824 148.147C224.824 148.188 224.864 148.208 224.884 148.228C224.905 148.248 224.925 148.268 224.966 148.288C225.006 148.288 225.026 148.309 225.067 148.309C225.107 148.309 225.148 148.309 225.168 148.309C225.188 148.309 225.229 148.288 225.249 148.268V148.127H225.087V148.047L225.107 148.027Z" fill="#0C2D3A"/>
<path d="M225.512 147.684H225.614V148.389H225.512V147.684Z" fill="#0C2D3A"/>
<path d="M225.776 147.684H225.877L226.262 148.248V147.684H226.363V148.389H226.262L225.877 147.825V148.389H225.776V147.684Z" fill="#0C2D3A"/>
<path d="M226.89 148.027H227.133V148.309C227.133 148.309 227.113 148.329 227.093 148.349C227.093 148.349 227.052 148.369 227.032 148.389C227.012 148.389 226.991 148.389 226.951 148.409C226.931 148.409 226.89 148.409 226.85 148.409C226.789 148.409 226.748 148.409 226.708 148.389C226.667 148.389 226.627 148.349 226.586 148.309C226.546 148.268 226.525 148.228 226.505 148.188C226.505 148.147 226.485 148.087 226.485 148.047C226.485 148.006 226.485 147.946 226.505 147.906C226.505 147.865 226.546 147.825 226.586 147.785C226.627 147.745 226.647 147.724 226.708 147.704C226.748 147.704 226.809 147.684 226.85 147.684C226.89 147.684 226.931 147.684 226.951 147.684C226.971 147.684 227.012 147.704 227.032 147.724C227.052 147.724 227.072 147.745 227.093 147.765C227.093 147.765 227.113 147.805 227.133 147.805L227.052 147.865L227.012 147.825C227.012 147.825 226.991 147.805 226.971 147.785C226.971 147.785 226.931 147.785 226.91 147.765C226.89 147.765 226.87 147.765 226.829 147.765C226.789 147.765 226.748 147.765 226.728 147.785C226.687 147.785 226.667 147.825 226.647 147.845C226.627 147.865 226.606 147.906 226.606 147.926C226.606 147.946 226.606 148.006 226.606 148.027C226.606 148.067 226.606 148.107 226.606 148.147C226.606 148.188 226.647 148.208 226.667 148.228C226.687 148.248 226.708 148.268 226.748 148.288C226.789 148.288 226.809 148.309 226.85 148.309C226.89 148.309 226.931 148.309 226.951 148.309C226.971 148.309 227.012 148.288 227.032 148.268V148.127H226.87V148.047L226.89 148.027Z" fill="#0C2D3A"/>
<path d="M223.021 144.078L222.494 145.669C222.494 145.669 222.393 145.73 222.372 145.669L221.826 144.058C221.826 144.058 221.785 144.018 221.765 144.018H219.354C219.354 144.018 219.293 144.038 219.293 144.078V146.455C219.293 146.455 219.313 146.515 219.354 146.515H221.035C221.035 146.515 221.096 146.495 221.096 146.455V146.092C221.096 146.092 221.076 146.032 221.035 146.032H219.921C219.921 146.032 219.86 146.012 219.86 145.972V145.569C219.86 145.569 219.881 145.508 219.921 145.508H220.691C220.691 145.508 220.752 145.488 220.752 145.448V145.105C220.752 145.105 220.732 145.045 220.691 145.045H219.921C219.921 145.045 219.86 145.025 219.86 144.985V144.622C219.86 144.622 219.881 144.561 219.921 144.561H221.299C221.299 144.561 221.36 144.561 221.36 144.602L222.069 146.536C222.069 146.536 222.109 146.576 222.129 146.576H222.636C222.636 146.576 222.697 146.576 222.697 146.536L223.568 144.159C223.568 144.159 223.568 144.078 223.507 144.078H223.041C223.041 144.078 222.98 144.078 222.98 144.118L223.021 144.078Z" fill="#0C2D3A"/>
<path d="M223.649 146.818C223.649 146.818 223.71 146.778 223.73 146.798C223.791 146.818 223.851 146.859 223.892 146.859C223.973 146.879 224.054 146.899 224.155 146.899C224.277 146.899 224.378 146.859 224.439 146.798C224.5 146.738 224.54 146.637 224.54 146.496C224.54 146.496 224.479 146.416 224.439 146.436C224.338 146.496 224.216 146.516 224.074 146.516C223.953 146.516 223.831 146.496 223.73 146.456C223.629 146.416 223.548 146.355 223.487 146.275C223.426 146.194 223.365 146.113 223.325 146.013C223.284 145.912 223.264 145.791 223.264 145.67C223.264 145.529 223.284 145.388 223.345 145.287C223.406 145.187 223.466 145.066 223.548 144.985C223.629 144.905 223.75 144.844 223.872 144.784C223.993 144.744 224.135 144.723 224.297 144.723C224.459 144.723 224.581 144.723 224.723 144.764C224.844 144.784 224.945 144.804 225.026 144.844C225.047 144.844 225.067 144.885 225.067 144.905V146.476C225.067 146.758 224.986 146.98 224.824 147.121C224.662 147.262 224.439 147.322 224.155 147.322C223.993 147.322 223.851 147.322 223.73 147.282C223.629 147.262 223.548 147.221 223.466 147.181C223.426 147.181 223.426 147.121 223.446 147.1L223.608 146.818H223.649ZM224.581 145.267C224.581 145.267 224.581 145.207 224.54 145.207H224.479C224.479 145.207 224.398 145.187 224.338 145.187C224.257 145.187 224.196 145.187 224.135 145.227C224.074 145.247 224.034 145.287 223.993 145.328C223.953 145.368 223.932 145.428 223.912 145.489C223.912 145.549 223.892 145.61 223.892 145.67C223.892 145.791 223.932 145.892 223.993 145.972C224.054 146.053 224.155 146.093 224.257 146.093C224.358 146.093 224.459 146.073 224.52 146.013C224.581 145.952 224.601 145.872 224.601 145.751V145.267H224.581Z" fill="#256981"/>
<path d="M225.249 145.648C225.249 145.527 225.27 145.386 225.31 145.286C225.351 145.165 225.432 145.064 225.513 144.983C225.594 144.903 225.695 144.822 225.817 144.782C225.938 144.742 226.06 144.701 226.201 144.701C226.343 144.701 226.465 144.722 226.586 144.782C226.708 144.822 226.809 144.903 226.89 144.983C226.971 145.064 227.032 145.165 227.093 145.286C227.133 145.406 227.154 145.527 227.154 145.648C227.154 145.769 227.133 145.91 227.093 146.011C227.052 146.132 226.971 146.232 226.89 146.313C226.809 146.394 226.708 146.474 226.586 146.514C226.465 146.555 226.343 146.595 226.201 146.595C226.06 146.595 225.938 146.575 225.817 146.514C225.695 146.474 225.594 146.394 225.513 146.313C225.432 146.232 225.371 146.132 225.31 146.011C225.27 145.89 225.249 145.769 225.249 145.648ZM226.201 146.132C226.201 146.132 226.323 146.132 226.384 146.091C226.445 146.051 226.485 146.031 226.526 145.991C226.566 145.95 226.586 145.89 226.607 145.829C226.607 145.769 226.627 145.709 226.627 145.648C226.627 145.588 226.627 145.527 226.607 145.467C226.607 145.406 226.566 145.366 226.526 145.326C226.485 145.286 226.445 145.245 226.384 145.225C226.323 145.205 226.262 145.185 226.201 145.185C226.141 145.185 226.08 145.185 226.019 145.225C225.958 145.245 225.918 145.286 225.877 145.326C225.837 145.366 225.817 145.427 225.796 145.467C225.796 145.527 225.776 145.588 225.776 145.648C225.776 145.709 225.776 145.769 225.796 145.829C225.796 145.89 225.837 145.93 225.877 145.991C225.918 146.031 225.958 146.071 226.019 146.091C226.08 146.111 226.141 146.132 226.201 146.132Z" fill="#256981"/>
<path d="M226.931 144.823C226.931 144.823 226.931 144.803 226.931 144.783C226.931 144.783 226.931 144.763 226.951 144.743C226.951 144.743 226.971 144.743 226.991 144.723C226.991 144.723 227.012 144.723 227.032 144.723C227.052 144.723 227.052 144.723 227.072 144.723C227.093 144.723 227.093 144.723 227.113 144.743C227.113 144.743 227.113 144.763 227.133 144.783C227.133 144.783 227.133 144.803 227.133 144.823C227.133 144.844 227.133 144.844 227.133 144.864C227.133 144.864 227.133 144.884 227.113 144.904C227.113 144.904 227.093 144.904 227.072 144.924C227.072 144.924 227.052 144.924 227.032 144.924C227.012 144.924 227.012 144.924 226.991 144.924C226.991 144.924 226.971 144.924 226.951 144.904C226.951 144.904 226.951 144.884 226.931 144.864C226.91 144.844 226.931 144.844 226.931 144.823ZM227.032 144.924C227.032 144.924 227.052 144.924 227.072 144.924C227.072 144.924 227.093 144.924 227.093 144.904C227.093 144.904 227.093 144.904 227.093 144.864C227.093 144.864 227.093 144.844 227.093 144.823C227.093 144.803 227.093 144.803 227.093 144.783C227.093 144.763 227.093 144.763 227.093 144.743C227.093 144.723 227.093 144.743 227.072 144.723C227.072 144.723 227.052 144.723 227.032 144.723C227.012 144.723 227.012 144.723 226.991 144.723C226.991 144.723 226.971 144.723 226.971 144.743C226.971 144.763 226.971 144.743 226.971 144.783C226.971 144.823 226.971 144.803 226.971 144.823C226.971 144.844 226.971 144.844 226.971 144.864C226.971 144.864 226.971 144.884 226.971 144.904C226.971 144.904 226.971 144.904 226.991 144.924C226.991 144.924 227.012 144.924 227.032 144.924ZM226.991 144.763H227.032H227.052C227.052 144.763 227.052 144.763 227.052 144.783V144.864V144.823H226.991V144.864V144.743V144.763ZM227.032 144.823H227.052C227.052 144.823 227.052 144.783 227.032 144.783H227.012V144.823H227.032Z" fill="#256981"/>
<path d="M228.875 156.164H217.389V164.262H228.875V156.164Z" fill="#E1E5E5"/>
<path d="M227.012 157.092H225.148C224.924 157.092 224.743 157.273 224.743 157.495V162.773C224.743 162.996 224.924 163.176 225.148 163.176H227.012C227.235 163.176 227.417 162.996 227.417 162.773V157.495C227.417 157.273 227.235 157.092 227.012 157.092Z" fill="#0C2D3A"/>
<path d="M221.116 157.092H219.253C219.029 157.092 218.847 157.273 218.847 157.495V162.773C218.847 162.996 219.029 163.176 219.253 163.176H221.116C221.34 163.176 221.522 162.996 221.522 162.773V157.495C221.522 157.273 221.34 157.092 221.116 157.092Z" fill="#0C2D3A"/>
<path d="M229.362 173.026C227.538 173.026 225.553 172.18 225.553 170.326V160.194H226.404V170.326C226.404 171.595 227.943 172.18 229.362 172.18C230.78 172.18 232.319 171.595 232.319 170.326V137.189C232.319 136.423 232.076 135.819 231.61 135.376C230.618 134.449 228.875 134.55 228.855 134.57L228.794 133.744C228.794 133.744 230.901 133.603 232.177 134.771C232.826 135.376 233.15 136.182 233.15 137.189V170.326C233.15 172.18 231.185 173.026 229.341 173.026H229.362Z" fill="#256981"/>
<path d="M215.525 125.303V136.805H230.719V123.832H215.525V125.303Z" fill="#CCD3D4"/>
<path d="M228.875 129.635H217.389V141.882H228.875V129.635Z" fill="#E1E5E5"/>
<path d="M227.721 130.521H218.523V141.016H227.721V130.521Z" fill="#A8C2CB"/>
<path d="M161.415 69H131.757V142.104H161.415V69Z" fill="#256981"/>
<path d="M157.931 108.604H154.811V112.451H157.931V108.604Z" fill="#A8C2CB"/>
<path d="M148.915 100.445H145.796V104.192H148.915V100.445Z" fill="#A8C2CB"/>
<path d="M148.915 108.604H145.796V112.451H148.915V108.604Z" fill="#A8C2CB"/>
<path d="M139.88 100.445H136.76V104.192H139.88V100.445Z" fill="#A8C2CB"/>
<path d="M139.88 108.604H136.76V112.451H139.88V108.604Z" fill="#A8C2CB"/>
<path d="M157.931 117.084H154.811V120.831H157.931V117.084Z" fill="#A8C2CB"/>
<path d="M148.915 117.084H145.796V120.831H148.915V117.084Z" fill="#A8C2CB"/>
<path d="M148.915 125.385H145.796V129.132H148.915V125.385Z" fill="#A8C2CB"/>
<path d="M139.88 117.084H136.76V120.831H139.88V117.084Z" fill="#A8C2CB"/>
<path d="M181.795 100.668H153.575V142.125H181.795V100.668Z" fill="#083940"/>
<path d="M161.719 103.91H155.722V105.522H161.719V103.91Z" fill="#23A48B"/>
<path d="M174.867 103.91H168.728V105.522H174.867V103.91Z" fill="#23A48B"/>
<path d="M161.719 108.604H155.722V110.215H161.719V108.604Z" fill="#23A48B"/>
<path d="M174.867 108.604H168.728V110.215H174.867V108.604Z" fill="#23A48B"/>
<path d="M161.719 113.277H155.722V114.889H161.719V113.277Z" fill="#23A48B"/>
<path d="M174.867 113.277H168.728V114.889H174.867V113.277Z" fill="#23A48B"/>
<path d="M161.719 117.951H155.722V119.562H161.719V117.951Z" fill="#23A48B"/>
<path d="M174.867 117.951H168.728V119.562H174.867V117.951Z" fill="#23A48B"/>
<path d="M161.719 122.584H155.722V124.196H161.719V122.584Z" fill="#23A48B"/>
<path d="M174.867 122.584H168.728V124.196H174.867V122.584Z" fill="#23A48B"/>
<path d="M161.719 127.277H155.722V128.888H161.719V127.277Z" fill="#23A48B"/>
<path d="M174.867 127.277H168.728V128.888H174.867V127.277Z" fill="#23A48B"/>
<path d="M161.719 131.932H155.722V133.543H161.719V131.932Z" fill="#23A48B"/>
<path d="M174.867 131.932H168.728V133.543H174.867V131.932Z" fill="#23A48B"/>
<path d="M161.719 136.625H155.722V138.236H161.719V136.625Z" fill="#23A48B"/>
<path d="M174.867 136.625H168.728V138.236H174.867V136.625Z" fill="#23A48B"/>
<path d="M202.418 73.25H176.811V142.123H202.418V73.25Z" fill="#256981"/>
<path d="M199.177 121.84H180.053V123.048H199.177V121.84Z" fill="#05AC5E"/>
<path d="M199.177 125.303H180.053V126.512H199.177V125.303Z" fill="#05AC5E"/>
<path d="M199.177 128.787H180.053V129.996H199.177V128.787Z" fill="#05AC5E"/>
<path d="M199.177 132.254H180.053V133.463H199.177V132.254Z" fill="#05AC5E"/>
<path d="M186.049 78.7305H180.053V79.9392H186.049V78.7305Z" fill="#CCD3D4"/>
<path d="M199.177 78.7305H193.038V79.9392H199.177V78.7305Z" fill="#CCD3D4"/>
<path d="M186.049 82.1953H180.053V83.4039H186.049V82.1953Z" fill="#CCD3D4"/>
<path d="M199.177 82.1953H193.038V83.4039H199.177V82.1953Z" fill="#CCD3D4"/>
<path d="M186.049 85.6797H180.053V86.8884H186.049V85.6797Z" fill="#CCD3D4"/>
<path d="M199.177 85.6797H193.038V86.8884H199.177V85.6797Z" fill="#CCD3D4"/>
<path d="M186.049 89.1445H180.053V90.3531H186.049V89.1445Z" fill="#CCD3D4"/>
<path d="M199.177 89.1445H193.038V90.3531H199.177V89.1445Z" fill="#CCD3D4"/>
<path d="M186.049 92.5898H180.053V93.7985H186.049V92.5898Z" fill="#CCD3D4"/>
<path d="M199.177 92.5898H193.038V93.7985H199.177V92.5898Z" fill="#CCD3D4"/>
<path d="M186.049 96.0742H180.053V97.2828H186.049V96.0742Z" fill="#CCD3D4"/>
<path d="M199.177 96.0742H193.038V97.2828H199.177V96.0742Z" fill="#CCD3D4"/>
<path d="M186.049 99.5391H180.053V100.747H186.049V99.5391Z" fill="#CCD3D4"/>
<path d="M199.177 99.5391H193.038V100.747H199.177V99.5391Z" fill="#CCD3D4"/>
<path d="M186.049 103.023H180.053V104.232H186.049V103.023Z" fill="#CCD3D4"/>
<path d="M199.177 103.023H193.038V104.232H199.177V103.023Z" fill="#CCD3D4"/>
<path d="M157.931 74.7402H154.811V78.4871H157.931V74.7402Z" fill="#A8C2CB"/>
<path d="M157.931 82.8789H154.811V86.7265H157.931V82.8789Z" fill="#A8C2CB"/>
<path d="M148.915 74.7402H145.796V78.4871H148.915V74.7402Z" fill="#A8C2CB"/>
<path d="M148.915 82.8789H145.796V86.7265H148.915V82.8789Z" fill="#A8C2CB"/>
<path d="M139.88 74.7402H136.76V78.4871H139.88V74.7402Z" fill="#A8C2CB"/>
<path d="M139.88 82.8789H136.76V86.7265H139.88V82.8789Z" fill="#A8C2CB"/>
<path d="M157.931 91.3613H154.811V95.1081H157.931V91.3613Z" fill="#A8C2CB"/>
<path d="M148.915 91.3613H145.796V95.1081H148.915V91.3613Z" fill="#A8C2CB"/>
<path d="M139.88 91.3613H136.76V95.1081H139.88V91.3613Z" fill="#A8C2CB"/>
<path d="M203.836 142.87C203.654 142.407 203.33 142.004 202.904 141.621C201.203 140.131 197.738 139.204 193.889 138.459C193.464 138.378 193.059 138.298 192.633 138.217C190.77 137.875 188.845 137.572 187.022 137.25C183.517 136.626 178.533 134.128 174.907 132.335C170.086 129.958 154.608 130.038 149.625 131.348C146.444 132.234 143 133.322 139.637 134.47C137.105 135.316 134.633 136.203 132.365 137.049C131.149 137.492 130.44 138.338 130.217 139.688C129.954 140.957 129.751 142.367 129.65 143.676C129.569 144.845 129.549 146.053 129.65 147.201C133.377 145.912 137.247 144.683 140.853 143.636C141.38 143.414 141.967 143.273 142.554 143.193C148.632 141.944 164.312 141.964 169.356 144.442C173.307 146.396 178.736 149.115 182.565 149.8C183.314 149.941 184.105 150.062 184.874 150.203C184.874 150.082 184.874 149.941 184.874 149.82C184.874 146.134 187.873 143.152 191.58 143.152C195.287 143.152 198.285 146.134 198.285 149.82C198.285 151.009 197.961 152.137 197.394 153.104C197.779 153.265 198.164 153.446 198.488 153.627L202.6 153.366C205.74 152.802 204.667 144.885 203.877 142.891L203.836 142.87Z" fill="#144830"/>
<path d="M191.519 144.441C188.541 144.441 186.11 146.838 186.11 149.819C186.11 150.021 186.11 150.222 186.151 150.424C189.716 151.028 193.342 151.693 196.098 152.639C196.604 151.814 196.908 150.847 196.908 149.819C196.908 146.858 194.497 144.441 191.499 144.441H191.519Z" fill="#23A48B"/>
<path d="M197.617 158.884L199.096 158.784C198.751 158.602 198.387 158.421 198.002 158.26C197.88 158.461 197.759 158.683 197.617 158.864V158.884Z" fill="#0C2D3A"/>
<path d="M200.838 157.616C200.595 157.012 200.149 156.508 199.663 156.105C198.002 154.756 195.652 154.111 193.606 153.587C191.154 152.963 188.662 152.54 186.171 152.117C185.725 152.036 185.279 151.976 184.854 151.895C184.064 151.754 183.294 151.633 182.544 151.492C178.716 150.807 173.307 148.088 169.336 146.134C164.292 143.656 148.612 143.636 142.534 144.885C142.271 144.945 142.028 145.006 141.785 145.066C141.46 145.147 141.157 145.248 140.832 145.328C137.226 146.355 133.357 147.604 129.629 148.894C127.32 149.679 125.071 150.485 122.985 151.271C121.648 151.754 120.878 152.681 120.655 154.151C120.371 155.541 120.149 157.072 120.027 158.482C119.966 159.308 119.926 160.134 119.946 160.96C123.755 159.671 127.664 158.422 131.27 157.435C136.943 155.944 154.507 155.864 159.977 158.563C164.109 160.598 169.761 163.438 173.752 164.143C175.819 164.506 178.007 164.868 180.134 165.251V165.19C180.134 161.182 183.395 157.938 187.427 157.938C191.458 157.938 194.72 161.182 194.72 165.19C194.72 166.782 194.193 168.232 193.322 169.441L199.399 169.058C202.823 168.454 201.648 159.812 200.797 157.636L200.838 157.616Z" fill="#256981"/>
<path d="M192.187 168.593C192.896 167.626 193.302 166.458 193.302 165.168C193.302 161.945 190.668 159.326 187.427 159.326C184.185 159.326 181.552 161.945 181.552 165.168C181.552 165.269 181.552 165.39 181.552 165.491C185.907 166.337 189.858 167.364 191.782 169.076C191.924 168.915 192.046 168.754 192.187 168.593Z" fill="#256981"/>
<path d="M192.836 172.037C192.633 171.514 192.269 171.05 191.782 170.607C189.858 168.915 185.907 167.868 181.552 167.022C181.086 166.921 180.6 166.84 180.114 166.76C177.986 166.377 175.799 166.034 173.732 165.652C169.741 164.947 164.089 162.106 159.956 160.072C154.466 157.372 136.902 157.473 131.25 158.944C127.644 159.951 123.734 161.18 119.926 162.469C117.049 163.436 114.233 164.443 111.66 165.39C110.283 165.893 109.472 166.86 109.229 168.391C108.946 169.842 108.703 171.433 108.581 172.904C108.297 176.429 108.642 180.136 110.506 182.734C111.053 183.459 111.701 183.842 112.592 183.903L118.001 184.326H118.022C117.11 183.077 116.543 181.546 116.543 179.874C116.543 175.704 119.946 172.299 124.16 172.299C128.374 172.299 131.777 175.684 131.777 179.874C131.777 181.546 131.23 183.077 130.318 184.326H172.699C171.787 183.056 171.24 181.525 171.24 179.874C171.24 175.704 174.644 172.299 178.858 172.299C183.071 172.299 186.475 175.684 186.475 179.874C186.475 181.525 185.928 183.056 185.036 184.305L191.377 183.903C194.943 183.278 193.707 174.274 192.836 171.997V172.037Z" fill="#083940"/>
<path d="M124.18 173.83C120.797 173.83 118.042 176.57 118.042 179.934C118.042 181.284 118.487 182.513 119.237 183.54C120.351 185.051 122.154 186.038 124.18 186.038C126.206 186.038 128.009 185.051 129.143 183.52C129.893 182.513 130.318 181.264 130.318 179.934C130.318 176.57 127.563 173.83 124.18 173.83Z" fill="#295863"/>
<path d="M178.858 173.831C175.474 173.831 172.719 176.571 172.719 179.935C172.719 181.264 173.165 182.493 173.894 183.5C175.008 185.031 176.811 186.019 178.858 186.019C180.904 186.019 182.707 185.011 183.821 183.48C184.55 182.473 184.996 181.244 184.996 179.915C184.996 176.551 182.241 173.811 178.858 173.811V173.831Z" fill="#295863"/>
<path d="M212.709 138.479C212.709 138.479 206.733 138.942 207.564 158.079C208.394 177.237 205.761 181.306 193.322 180.742" stroke="#256981" stroke-width="0.52" stroke-miterlimit="10"/>
<path d="M227.62 183.965H212.507V189.001H227.62V183.965Z" fill="#E1E5E5"/>
<path d="M228.754 186.967H211.393V189.001H228.754V186.967Z" fill="#CCD3D4"/>
<path d="M211.96 134.449V185.535H228.187V127.943H211.96V134.449Z" fill="#CCD3D4"/>
<path d="M219.192 158.684H214.917V161.101H219.192V158.684Z" fill="#0C2D3A"/>
<path d="M218.971 150.04L218.403 151.752C218.403 151.752 218.282 151.813 218.262 151.752L217.694 150.04C217.694 150.04 217.654 150 217.634 150H215.061C215.061 150 215 150.04 215 150.06V152.598C215 152.598 215.04 152.659 215.061 152.659H216.843C216.843 152.659 216.904 152.619 216.904 152.598V152.196C216.904 152.196 216.864 152.135 216.843 152.135H215.668C215.668 152.135 215.608 152.095 215.608 152.075V151.631C215.608 151.631 215.648 151.571 215.668 151.571H216.479C216.479 151.571 216.54 151.531 216.54 151.511V151.128C216.54 151.128 216.499 151.067 216.479 151.067H215.668C215.668 151.067 215.608 151.027 215.608 151.007V150.624C215.608 150.624 215.648 150.564 215.668 150.564H217.147C217.147 150.564 217.208 150.564 217.208 150.604L217.978 152.659C217.978 152.659 218.018 152.699 218.039 152.699H218.586C218.586 152.699 218.646 152.699 218.646 152.659L219.578 150.121C219.578 150.121 219.578 150.02 219.518 150.02H219.031C219.031 150.02 218.971 150.02 218.971 150.06V150.04Z" fill="#0C2D3A"/>
<path d="M226.201 162.43H213.945V171.072H226.201V162.43Z" fill="#E1E5E5"/>
<path d="M224.216 163.418H222.21C221.975 163.418 221.785 163.607 221.785 163.841V169.501C221.785 169.735 221.975 169.924 222.21 169.924H224.216C224.451 169.924 224.641 169.735 224.641 169.501V163.841C224.641 163.607 224.451 163.418 224.216 163.418Z" fill="#0C2D3A"/>
<path d="M217.936 163.418H215.93C215.695 163.418 215.505 163.607 215.505 163.841V169.501C215.505 169.735 215.695 169.924 215.93 169.924H217.936C218.171 169.924 218.361 169.735 218.361 169.501V163.841C218.361 163.607 218.171 163.418 217.936 163.418Z" fill="#0C2D3A"/>
<path d="M226.728 180.44C224.763 180.44 222.677 179.533 222.677 177.559V166.742H223.568V177.559C223.568 178.929 225.209 179.553 226.728 179.553C228.248 179.553 229.889 178.929 229.889 177.559V142.186C229.889 141.36 229.645 140.715 229.139 140.252C228.086 139.265 226.222 139.386 226.201 139.386L226.141 138.499C226.141 138.499 228.389 138.358 229.747 139.607C230.435 140.252 230.78 141.118 230.78 142.186V177.559C230.78 179.533 228.673 180.44 226.728 180.44Z" fill="#256981"/>
<path d="M211.96 129.494V141.782H228.187V127.922H211.96V129.494Z" fill="#CCD3D4"/>
<path d="M226.201 134.127H213.945V147.201H226.201V134.127Z" fill="#E1E5E5"/>
<path d="M224.986 135.053H215.161V146.254H224.986V135.053Z" fill="#A8C2CB"/>
<path d="M221.069 150.718C221.06 150.627 221.023 150.556 220.958 150.505C220.893 150.454 220.801 150.428 220.681 150.428C220.601 150.428 220.535 150.438 220.482 150.459C220.429 150.48 220.389 150.508 220.363 150.545C220.336 150.581 220.322 150.622 220.322 150.668C220.32 150.706 220.327 150.74 220.344 150.769C220.361 150.798 220.386 150.823 220.419 150.846C220.452 150.867 220.491 150.886 220.538 150.903C220.584 150.919 220.636 150.934 220.694 150.946L220.913 150.996C221.039 151.023 221.15 151.06 221.246 151.105C221.343 151.151 221.424 151.205 221.49 151.268C221.556 151.331 221.606 151.404 221.64 151.486C221.674 151.568 221.692 151.66 221.692 151.762C221.692 151.922 221.651 152.06 221.571 152.176C221.49 152.291 221.375 152.379 221.224 152.44C221.074 152.502 220.893 152.532 220.681 152.532C220.468 152.532 220.282 152.5 220.124 152.437C219.966 152.373 219.843 152.276 219.755 152.146C219.667 152.016 219.622 151.851 219.619 151.652H220.208C220.213 151.734 220.235 151.803 220.274 151.857C220.313 151.912 220.367 151.954 220.435 151.982C220.503 152.01 220.583 152.024 220.673 152.024C220.756 152.024 220.827 152.013 220.885 151.99C220.943 151.968 220.989 151.937 221.02 151.897C221.052 151.857 221.068 151.812 221.069 151.76C221.068 151.712 221.053 151.671 221.024 151.637C220.995 151.603 220.95 151.573 220.89 151.548C220.83 151.522 220.754 151.499 220.661 151.477L220.395 151.415C220.174 151.364 220.001 151.283 219.874 151.17C219.747 151.057 219.684 150.903 219.685 150.71C219.684 150.553 219.727 150.415 219.812 150.296C219.897 150.178 220.015 150.085 220.166 150.019C220.317 149.953 220.489 149.92 220.682 149.92C220.879 149.92 221.05 149.953 221.195 150.02C221.341 150.087 221.454 150.18 221.535 150.3C221.615 150.42 221.656 150.559 221.658 150.718H221.069ZM222.003 153.216V150.591H222.605V150.918H222.623C222.648 150.86 222.683 150.804 222.729 150.75C222.775 150.696 222.834 150.652 222.906 150.618C222.978 150.583 223.064 150.566 223.164 150.566C223.297 150.566 223.421 150.601 223.536 150.67C223.652 150.74 223.745 150.847 223.817 150.992C223.888 151.137 223.923 151.322 223.923 151.547C223.923 151.763 223.889 151.944 223.82 152.09C223.752 152.236 223.66 152.345 223.544 152.418C223.429 152.491 223.301 152.527 223.16 152.527C223.064 152.527 222.981 152.512 222.911 152.48C222.84 152.449 222.781 152.407 222.733 152.356C222.686 152.304 222.649 152.249 222.623 152.191H222.611V153.216H222.003ZM222.599 151.545C222.599 151.648 222.612 151.738 222.64 151.814C222.668 151.89 222.708 151.949 222.76 151.992C222.813 152.033 222.877 152.054 222.95 152.054C223.025 152.054 223.088 152.033 223.14 151.992C223.193 151.949 223.232 151.89 223.259 151.814C223.286 151.738 223.3 151.648 223.3 151.545C223.3 151.443 223.286 151.354 223.259 151.278C223.232 151.203 223.193 151.144 223.14 151.103C223.089 151.062 223.026 151.041 222.95 151.041C222.876 151.041 222.812 151.061 222.76 151.102C222.708 151.142 222.668 151.2 222.64 151.276C222.612 151.351 222.599 151.441 222.599 151.545ZM225.133 152.536C224.933 152.536 224.76 152.495 224.616 152.413C224.473 152.33 224.362 152.215 224.284 152.067C224.207 151.919 224.169 151.747 224.169 151.552C224.169 151.355 224.207 151.183 224.284 151.036C224.362 150.888 224.473 150.772 224.616 150.69C224.76 150.607 224.933 150.566 225.133 150.566C225.334 150.566 225.506 150.607 225.649 150.69C225.793 150.772 225.904 150.888 225.981 151.036C226.059 151.183 226.098 151.355 226.098 151.552C226.098 151.747 226.059 151.919 225.981 152.067C225.904 152.215 225.793 152.33 225.649 152.413C225.506 152.495 225.334 152.536 225.133 152.536ZM225.137 152.077C225.21 152.077 225.271 152.055 225.322 152.01C225.373 151.966 225.411 151.903 225.438 151.824C225.465 151.744 225.479 151.652 225.479 151.548C225.479 151.442 225.465 151.349 225.438 151.27C225.411 151.19 225.373 151.128 225.322 151.083C225.271 151.038 225.21 151.016 225.137 151.016C225.061 151.016 224.998 151.038 224.945 151.083C224.894 151.128 224.855 151.19 224.827 151.27C224.801 151.349 224.788 151.442 224.788 151.548C224.788 151.652 224.801 151.744 224.827 151.824C224.855 151.903 224.894 151.966 224.945 152.01C224.998 152.055 225.061 152.077 225.137 152.077ZM227.487 150.591V151.038H226.282V150.591H227.487ZM226.534 150.134H227.142V151.9C227.142 151.937 227.148 151.967 227.16 151.99C227.172 152.013 227.19 152.029 227.213 152.039C227.236 152.048 227.264 152.053 227.296 152.053C227.32 152.053 227.344 152.05 227.37 152.046C227.396 152.041 227.416 152.037 227.429 152.034L227.521 152.473C227.492 152.481 227.451 152.491 227.398 152.504C227.346 152.516 227.284 152.524 227.211 152.527C227.068 152.534 226.946 152.517 226.844 152.478C226.743 152.437 226.665 152.374 226.612 152.289C226.559 152.203 226.533 152.096 226.534 151.967V150.134Z" fill="#05AC5E"/>
<path d="M225.275 158.689H221V161.106H225.275V158.689Z" fill="#0C2D3A"/>
<defs>
<linearGradient id="paint0_linear_215_2" x1="43.6663" y1="122.001" x2="143.667" y2="122.001" gradientUnits="userSpaceOnUse">
<stop stop-color="#C0C0C0"/>
<stop offset="1" stop-color="#E2E8F0" stop-opacity="0"/>
</linearGradient>
</defs>
</svg>
