<svg width="3061" height="970" viewBox="0 0 3061 970" fill="none" xmlns="http://www.w3.org/2000/svg">
<mask id="path-1-outside-1_222_104" maskUnits="userSpaceOnUse" x="28.7832" y="647.566" width="1434" height="114" fill="black">
<rect fill="white" x="28.7832" y="647.566" width="1434" height="114"/>
<path d="M30.1113 649.816H40.1113L78.8613 694.348L117.455 649.816H127.455V758.566H111.83V675.754L107.221 682.004L78.8613 715.051L50.502 682.082L45.7363 675.832V758.566H30.1113V649.816ZM268.943 746.379C286.026 746.379 294.568 735.884 294.568 714.895V649.816H310.193V714.895C310.193 730.259 306.312 741.77 298.552 749.426C291.521 756.353 281.651 759.816 268.943 759.816C249.307 759.816 236.573 751.717 230.739 735.52C228.656 729.842 227.614 722.967 227.614 714.895V649.816H243.239V714.895C243.239 735.884 251.807 746.379 268.943 746.379ZM411.133 649.816H426.758V744.816H473.321V758.566H411.133V649.816ZM594.73 663.566H561.996V649.816H643.089V663.566H610.355V758.566H594.73V663.566ZM738.483 649.816H754.108V758.566H738.483V649.816ZM917.08 750.988C913.382 753.592 908.643 755.65 902.861 757.16C897.08 758.618 889.997 759.348 881.611 759.348C873.278 759.348 864.867 758.853 856.377 757.863V742.707C863.981 744.426 871.637 745.285 879.346 745.285C887.054 745.285 892.835 744.868 896.689 744.035C900.544 743.15 903.643 742.004 905.986 740.598C910.309 737.993 912.471 734.608 912.471 730.441C912.471 727.212 911.637 724.712 909.971 722.941C907.314 720.181 903.486 717.655 898.486 715.363L878.486 706.223C871.611 702.993 866.742 699.999 863.877 697.238C857.731 691.301 854.658 684.426 854.658 676.613C854.658 668.592 858.148 662.108 865.127 657.16C872.783 651.743 883.669 649.035 897.783 649.035C906.898 649.035 915.231 649.4 922.783 650.129V665.051C916.377 663.592 909.215 662.863 901.299 662.863C893.434 662.863 887.705 663.28 884.111 664.113C880.57 664.895 877.783 665.91 875.752 667.16C872.054 669.452 870.205 672.473 870.205 676.223C870.205 679.868 871.377 682.889 873.721 685.285C875.804 687.316 879.606 689.66 885.127 692.316L905.674 702.082C912.497 705.311 917.262 708.358 919.971 711.223C922.731 714.087 924.762 716.978 926.064 719.895C927.367 722.759 928.018 726.223 928.018 730.285C928.018 734.296 927.132 738.098 925.361 741.691C923.59 745.233 920.83 748.332 917.08 750.988ZM1026.61 649.816H1057.47C1078.05 649.816 1091.3 655.91 1097.24 668.098C1099.37 672.577 1100.44 677.889 1100.44 684.035C1100.44 690.181 1099.35 695.441 1097.16 699.816C1094.97 704.191 1092.03 707.785 1088.33 710.598C1081.15 716.014 1071.54 718.723 1059.51 718.723H1042.24V758.566H1026.61V649.816ZM1056.46 706.223C1065.89 706.223 1072.86 704.4 1077.4 700.754C1081.93 697.108 1084.19 691.431 1084.19 683.723C1084.19 673.462 1079.43 666.848 1069.9 663.879C1066.56 662.837 1062.53 662.316 1057.79 662.316H1042.24V706.223H1056.46ZM1231.54 649.816H1242.24L1288.1 758.566H1271.85L1260.84 731.223H1212.56L1201.62 758.566H1185.68L1231.54 649.816ZM1255.84 718.723L1236.77 671.066L1217.63 718.723H1255.84ZM1379.04 649.816H1390.29L1447.09 730.051L1446.23 718.801V649.816H1461.7V758.566H1450.53L1403.11 691.926L1393.65 678.332L1394.51 691.926V758.566H1379.04V649.816Z"/>
</mask>
<path d="M30.1113 649.816H40.1113L78.8613 694.348L117.455 649.816H127.455V758.566H111.83V675.754L107.221 682.004L78.8613 715.051L50.502 682.082L45.7363 675.832V758.566H30.1113V649.816ZM268.943 746.379C286.026 746.379 294.568 735.884 294.568 714.895V649.816H310.193V714.895C310.193 730.259 306.312 741.77 298.552 749.426C291.521 756.353 281.651 759.816 268.943 759.816C249.307 759.816 236.573 751.717 230.739 735.52C228.656 729.842 227.614 722.967 227.614 714.895V649.816H243.239V714.895C243.239 735.884 251.807 746.379 268.943 746.379ZM411.133 649.816H426.758V744.816H473.321V758.566H411.133V649.816ZM594.73 663.566H561.996V649.816H643.089V663.566H610.355V758.566H594.73V663.566ZM738.483 649.816H754.108V758.566H738.483V649.816ZM917.08 750.988C913.382 753.592 908.643 755.65 902.861 757.16C897.08 758.618 889.997 759.348 881.611 759.348C873.278 759.348 864.867 758.853 856.377 757.863V742.707C863.981 744.426 871.637 745.285 879.346 745.285C887.054 745.285 892.835 744.868 896.689 744.035C900.544 743.15 903.643 742.004 905.986 740.598C910.309 737.993 912.471 734.608 912.471 730.441C912.471 727.212 911.637 724.712 909.971 722.941C907.314 720.181 903.486 717.655 898.486 715.363L878.486 706.223C871.611 702.993 866.742 699.999 863.877 697.238C857.731 691.301 854.658 684.426 854.658 676.613C854.658 668.592 858.148 662.108 865.127 657.16C872.783 651.743 883.669 649.035 897.783 649.035C906.898 649.035 915.231 649.4 922.783 650.129V665.051C916.377 663.592 909.215 662.863 901.299 662.863C893.434 662.863 887.705 663.28 884.111 664.113C880.57 664.895 877.783 665.91 875.752 667.16C872.054 669.452 870.205 672.473 870.205 676.223C870.205 679.868 871.377 682.889 873.721 685.285C875.804 687.316 879.606 689.66 885.127 692.316L905.674 702.082C912.497 705.311 917.262 708.358 919.971 711.223C922.731 714.087 924.762 716.978 926.064 719.895C927.367 722.759 928.018 726.223 928.018 730.285C928.018 734.296 927.132 738.098 925.361 741.691C923.59 745.233 920.83 748.332 917.08 750.988ZM1026.61 649.816H1057.47C1078.05 649.816 1091.3 655.91 1097.24 668.098C1099.37 672.577 1100.44 677.889 1100.44 684.035C1100.44 690.181 1099.35 695.441 1097.16 699.816C1094.97 704.191 1092.03 707.785 1088.33 710.598C1081.15 716.014 1071.54 718.723 1059.51 718.723H1042.24V758.566H1026.61V649.816ZM1056.46 706.223C1065.89 706.223 1072.86 704.4 1077.4 700.754C1081.93 697.108 1084.19 691.431 1084.19 683.723C1084.19 673.462 1079.43 666.848 1069.9 663.879C1066.56 662.837 1062.53 662.316 1057.79 662.316H1042.24V706.223H1056.46ZM1231.54 649.816H1242.24L1288.1 758.566H1271.85L1260.84 731.223H1212.56L1201.62 758.566H1185.68L1231.54 649.816ZM1255.84 718.723L1236.77 671.066L1217.63 718.723H1255.84ZM1379.04 649.816H1390.29L1447.09 730.051L1446.23 718.801V649.816H1461.7V758.566H1450.53L1403.11 691.926L1393.65 678.332L1394.51 691.926V758.566H1379.04V649.816Z" fill="black"/>
<path d="M30.1113 649.816V648.816H29.1113V649.816H30.1113ZM40.1113 649.816L40.8657 649.16L40.5667 648.816H40.1113V649.816ZM78.8613 694.348L78.107 695.004L78.8629 695.873L79.617 695.003L78.8613 694.348ZM117.455 649.816V648.816H116.998L116.699 649.161L117.455 649.816ZM127.455 649.816H128.455V648.816H127.455V649.816ZM127.455 758.566V759.566H128.455V758.566H127.455ZM111.83 758.566H110.83V759.566H111.83V758.566ZM111.83 675.754H112.83V672.713L111.025 675.16L111.83 675.754ZM107.221 682.004L107.98 682.655L108.004 682.627L108.026 682.597L107.221 682.004ZM78.8613 715.051L78.1032 715.703L78.8622 716.585L79.6202 715.702L78.8613 715.051ZM50.502 682.082L49.7067 682.688L49.7246 682.712L49.7438 682.734L50.502 682.082ZM45.7363 675.832L46.5315 675.226L44.7363 672.871V675.832H45.7363ZM45.7363 758.566V759.566H46.7363V758.566H45.7363ZM30.1113 758.566H29.1113V759.566H30.1113V758.566ZM30.1113 650.816H40.1113V648.816H30.1113V650.816ZM39.357 650.473L78.107 695.004L79.6157 693.691L40.8657 649.16L39.357 650.473ZM79.617 695.003L118.211 650.471L116.699 649.161L78.1056 693.693L79.617 695.003ZM117.455 650.816H127.455V648.816H117.455V650.816ZM126.455 649.816V758.566H128.455V649.816H126.455ZM127.455 757.566H111.83V759.566H127.455V757.566ZM112.83 758.566V675.754H110.83V758.566H112.83ZM111.025 675.16L106.416 681.41L108.026 682.597L112.635 676.347L111.025 675.16ZM106.462 681.353L78.1025 714.4L79.6202 715.702L107.98 682.655L106.462 681.353ZM79.6194 714.399L51.2601 681.43L49.7438 682.734L78.1032 715.703L79.6194 714.399ZM51.2972 681.476L46.5315 675.226L44.9411 676.438L49.7067 682.688L51.2972 681.476ZM44.7363 675.832V758.566H46.7363V675.832H44.7363ZM45.7363 757.566H30.1113V759.566H45.7363V757.566ZM31.1113 758.566V649.816H29.1113V758.566H31.1113ZM294.568 649.816V648.816H293.568V649.816H294.568ZM310.193 649.816H311.193V648.816H310.193V649.816ZM298.552 749.426L299.254 750.138L299.254 750.138L298.552 749.426ZM230.739 735.52L231.68 735.181L231.678 735.175L230.739 735.52ZM227.614 649.816V648.816H226.614V649.816H227.614ZM243.239 649.816H244.239V648.816H243.239V649.816ZM268.943 747.379C277.699 747.379 284.428 744.679 288.937 739.139C293.414 733.638 295.568 725.499 295.568 714.895H293.568C293.568 725.279 291.45 732.883 287.386 737.877C283.353 742.831 277.269 745.379 268.943 745.379V747.379ZM295.568 714.895V649.816H293.568V714.895H295.568ZM294.568 650.816H310.193V648.816H294.568V650.816ZM309.193 649.816V714.895H311.193V649.816H309.193ZM309.193 714.895C309.193 730.103 305.353 741.311 297.85 748.714L299.254 750.138C307.272 742.228 311.193 730.416 311.193 714.895H309.193ZM297.85 748.713C291.055 755.407 281.467 758.816 268.943 758.816V760.816C281.835 760.816 291.986 757.298 299.254 750.138L297.85 748.713ZM268.943 758.816C259.259 758.816 251.367 756.819 245.202 752.898C239.047 748.984 234.533 743.102 231.68 735.181L229.799 735.858C232.779 744.135 237.549 750.401 244.129 754.586C250.698 758.764 258.991 760.816 268.943 760.816V758.816ZM231.678 735.175C229.646 729.638 228.614 722.887 228.614 714.895H226.614C226.614 723.048 227.666 730.047 229.801 735.864L231.678 735.175ZM228.614 714.895V649.816H226.614V714.895H228.614ZM227.614 650.816H243.239V648.816H227.614V650.816ZM242.239 649.816V714.895H244.239V649.816H242.239ZM242.239 714.895C242.239 725.5 244.4 733.639 248.891 739.14C253.413 744.68 260.161 747.379 268.943 747.379V745.379C260.589 745.379 254.485 742.831 250.44 737.875C246.363 732.881 244.239 725.279 244.239 714.895H242.239ZM411.133 649.816V648.816H410.133V649.816H411.133ZM426.758 649.816H427.758V648.816H426.758V649.816ZM426.758 744.816H425.758V745.816H426.758V744.816ZM473.321 744.816H474.321V743.816H473.321V744.816ZM473.321 758.566V759.566H474.321V758.566H473.321ZM411.133 758.566H410.133V759.566H411.133V758.566ZM411.133 650.816H426.758V648.816H411.133V650.816ZM425.758 649.816V744.816H427.758V649.816H425.758ZM426.758 745.816H473.321V743.816H426.758V745.816ZM472.321 744.816V758.566H474.321V744.816H472.321ZM473.321 757.566H411.133V759.566H473.321V757.566ZM412.133 758.566V649.816H410.133V758.566H412.133ZM594.73 663.566H595.73V662.566H594.73V663.566ZM561.996 663.566H560.996V664.566H561.996V663.566ZM561.996 649.816V648.816H560.996V649.816H561.996ZM643.089 649.816H644.089V648.816H643.089V649.816ZM643.089 663.566V664.566H644.089V663.566H643.089ZM610.355 663.566V662.566H609.355V663.566H610.355ZM610.355 758.566V759.566H611.355V758.566H610.355ZM594.73 758.566H593.73V759.566H594.73V758.566ZM594.73 662.566H561.996V664.566H594.73V662.566ZM562.996 663.566V649.816H560.996V663.566H562.996ZM561.996 650.816H643.089V648.816H561.996V650.816ZM642.089 649.816V663.566H644.089V649.816H642.089ZM643.089 662.566H610.355V664.566H643.089V662.566ZM609.355 663.566V758.566H611.355V663.566H609.355ZM610.355 757.566H594.73V759.566H610.355V757.566ZM595.73 758.566V663.566H593.73V758.566H595.73ZM738.483 649.816V648.816H737.483V649.816H738.483ZM754.108 649.816H755.108V648.816H754.108V649.816ZM754.108 758.566V759.566H755.108V758.566H754.108ZM738.483 758.566H737.483V759.566H738.483V758.566ZM738.483 650.816H754.108V648.816H738.483V650.816ZM753.108 649.816V758.566H755.108V649.816H753.108ZM754.108 757.566H738.483V759.566H754.108V757.566ZM739.483 758.566V649.816H737.483V758.566H739.483ZM917.08 750.988L917.656 751.806L917.658 751.804L917.08 750.988ZM902.861 757.16L903.106 758.13L903.114 758.128L902.861 757.16ZM856.377 757.863H855.377V758.753L856.261 758.857L856.377 757.863ZM856.377 742.707L856.597 741.732L855.377 741.456V742.707H856.377ZM896.689 744.035L896.901 745.013L896.913 745.01L896.689 744.035ZM905.986 740.598L906.501 741.455L906.502 741.454L905.986 740.598ZM909.971 722.941L910.699 722.256L910.691 722.248L909.971 722.941ZM898.486 715.363L898.903 714.454L898.902 714.454L898.486 715.363ZM878.486 706.223L878.061 707.128L878.071 707.132L878.486 706.223ZM863.877 697.238L863.182 697.957L863.183 697.958L863.877 697.238ZM865.127 657.16L864.549 656.344L864.549 656.344L865.127 657.16ZM922.783 650.129H923.783V649.221L922.879 649.134L922.783 650.129ZM922.783 665.051L922.561 666.026L923.783 666.304V665.051H922.783ZM884.111 664.113L884.327 665.09L884.337 665.087L884.111 664.113ZM875.752 667.16L875.228 666.308L875.225 666.31L875.752 667.16ZM873.721 685.285L873.006 685.984L873.014 685.993L873.023 686.001L873.721 685.285ZM885.127 692.316L884.693 693.218L884.698 693.22L885.127 692.316ZM905.674 702.082L905.245 702.985L905.246 702.986L905.674 702.082ZM919.971 711.223L919.244 711.91L919.251 711.917L919.971 711.223ZM926.064 719.895L925.151 720.302L925.154 720.308L926.064 719.895ZM925.361 741.691L926.256 742.139L926.258 742.133L925.361 741.691ZM916.504 750.171C912.93 752.688 908.309 754.703 902.609 756.193L903.114 758.128C908.976 756.596 913.834 754.497 917.656 751.806L916.504 750.171ZM902.617 756.191C896.94 757.622 889.945 758.348 881.611 758.348V760.348C890.049 760.348 897.22 759.615 903.106 758.13L902.617 756.191ZM881.611 758.348C873.318 758.348 864.945 757.855 856.493 756.87L856.261 758.857C864.788 759.851 873.238 760.348 881.611 760.348V758.348ZM857.377 757.863V742.707H855.377V757.863H857.377ZM856.156 743.682C863.832 745.417 871.562 746.285 879.346 746.285V744.285C871.712 744.285 864.13 743.434 856.597 741.732L856.156 743.682ZM879.346 746.285C887.071 746.285 892.939 745.869 896.901 745.013L896.478 743.058C892.731 743.868 887.037 744.285 879.346 744.285V746.285ZM896.913 745.01C900.828 744.11 904.037 742.934 906.501 741.455L905.472 739.74C903.249 741.074 900.259 742.189 896.466 743.061L896.913 745.01ZM906.502 741.454C911.052 738.714 913.471 735.037 913.471 730.441H911.471C911.471 734.179 909.567 737.273 905.47 739.741L906.502 741.454ZM913.471 730.441C913.471 727.043 912.591 724.267 910.699 722.256L909.243 723.627C910.684 725.158 911.471 727.381 911.471 730.441H913.471ZM910.691 722.248C907.919 719.367 903.971 716.777 898.903 714.454L898.07 716.272C903.001 718.533 906.71 720.995 909.25 723.635L910.691 722.248ZM898.902 714.454L878.902 705.313L878.071 707.132L898.071 716.273L898.902 714.454ZM878.911 705.318C872.063 702.101 867.314 699.162 864.571 696.518L863.183 697.958C866.169 700.836 871.16 703.886 878.061 707.128L878.911 705.318ZM864.572 696.519C858.601 690.75 855.658 684.128 855.658 676.613H853.658C853.658 684.724 856.862 691.851 863.182 697.957L864.572 696.519ZM855.658 676.613C855.658 668.941 858.97 662.751 865.705 657.976L864.549 656.344C857.326 661.465 853.658 668.244 853.658 676.613H855.658ZM865.705 657.977C873.126 652.726 883.777 650.035 897.783 650.035V648.035C883.56 648.035 872.44 650.761 864.549 656.344L865.705 657.977ZM897.783 650.035C906.872 650.035 915.173 650.399 922.687 651.124L922.879 649.134C915.29 648.401 906.924 648.035 897.783 648.035V650.035ZM921.783 650.129V665.051H923.783V650.129H921.783ZM923.005 664.076C916.513 662.598 909.276 661.863 901.299 661.863V663.863C909.155 663.863 916.241 664.587 922.561 666.026L923.005 664.076ZM901.299 661.863C893.424 661.863 887.598 662.278 883.885 663.139L884.337 665.087C887.813 664.282 893.445 663.863 901.299 663.863V661.863ZM883.896 663.137C880.296 663.931 877.39 664.978 875.228 666.308L876.276 668.012C878.176 666.843 880.843 665.858 884.327 665.09L883.896 663.137ZM875.225 666.31C871.289 668.75 869.205 672.066 869.205 676.223H871.205C871.205 672.879 872.82 670.154 876.279 668.01L875.225 666.31ZM869.205 676.223C869.205 680.105 870.462 683.384 873.006 685.984L874.436 684.586C872.291 682.394 871.205 679.632 871.205 676.223H869.205ZM873.023 686.001C875.23 688.153 879.158 690.554 884.693 693.218L885.561 691.415C880.054 688.766 876.378 686.48 874.419 684.569L873.023 686.001ZM884.698 693.22L905.245 702.985L906.103 701.179L885.556 691.413L884.698 693.22ZM905.246 702.986C912.04 706.201 916.667 709.184 919.244 711.91L920.697 710.536C917.857 707.532 912.953 704.421 906.102 701.178L905.246 702.986ZM919.251 711.917C921.95 714.717 923.906 717.514 925.151 720.302L926.978 719.487C925.618 716.442 923.513 713.457 920.691 710.529L919.251 711.917ZM925.154 720.308C926.383 723.011 927.018 726.325 927.018 730.285H929.018C929.018 726.12 928.351 722.507 926.975 719.481L925.154 720.308ZM927.018 730.285C927.018 734.142 926.167 737.793 924.464 741.249L926.258 742.133C928.097 738.402 929.018 734.449 929.018 730.285H927.018ZM924.467 741.244C922.781 744.617 920.14 747.596 916.502 750.172L917.658 751.804C921.521 749.068 924.4 745.849 926.256 742.139L924.467 741.244ZM1026.61 649.816V648.816H1025.61V649.816H1026.61ZM1097.24 668.098L1098.14 667.667L1098.14 667.66L1097.24 668.098ZM1088.33 710.598L1088.94 711.396L1088.94 711.394L1088.33 710.598ZM1042.24 718.723V717.723H1041.24V718.723H1042.24ZM1042.24 758.566V759.566H1043.24V758.566H1042.24ZM1026.61 758.566H1025.61V759.566H1026.61V758.566ZM1069.9 663.879L1069.6 664.833L1069.6 664.834L1069.9 663.879ZM1042.24 662.316V661.316H1041.24V662.316H1042.24ZM1042.24 706.223H1041.24V707.223H1042.24V706.223ZM1026.61 650.816H1057.47V648.816H1026.61V650.816ZM1057.47 650.816C1077.89 650.816 1090.65 656.854 1096.34 668.536L1098.14 667.66C1091.95 654.967 1078.21 648.816 1057.47 648.816V650.816ZM1096.34 668.528C1098.39 672.845 1099.44 678.004 1099.44 684.035H1101.44C1101.44 677.775 1100.36 672.309 1098.14 667.667L1096.34 668.528ZM1099.44 684.035C1099.44 690.065 1098.37 695.164 1096.27 699.369L1098.06 700.264C1100.33 695.719 1101.44 690.297 1101.44 684.035H1099.44ZM1096.27 699.369C1094.14 703.615 1091.3 707.087 1087.73 709.802L1088.94 711.394C1092.76 708.484 1095.8 704.768 1098.06 700.264L1096.27 699.369ZM1087.73 709.799C1080.77 715.047 1071.39 717.723 1059.51 717.723V719.723C1071.68 719.723 1081.52 716.981 1088.94 711.396L1087.73 709.799ZM1059.51 717.723H1042.24V719.723H1059.51V717.723ZM1041.24 718.723V758.566H1043.24V718.723H1041.24ZM1042.24 757.566H1026.61V759.566H1042.24V757.566ZM1027.61 758.566V649.816H1025.61V758.566H1027.61ZM1056.46 707.223C1065.98 707.223 1073.23 705.387 1078.02 701.533L1076.77 699.975C1072.5 703.413 1065.79 705.223 1056.46 705.223V707.223ZM1078.02 701.533C1082.86 697.64 1085.19 691.628 1085.19 683.723H1083.19C1083.19 691.234 1080.99 696.576 1076.77 699.975L1078.02 701.533ZM1085.19 683.723C1085.19 678.437 1083.96 673.999 1081.43 670.482C1078.89 666.962 1075.12 664.458 1070.19 662.924L1069.6 664.834C1074.2 666.268 1077.58 668.556 1079.81 671.651C1082.04 674.748 1083.19 678.748 1083.19 683.723H1085.19ZM1070.19 662.924C1066.74 661.844 1062.59 661.316 1057.79 661.316V663.316C1062.46 663.316 1066.39 663.83 1069.6 664.833L1070.19 662.924ZM1057.79 661.316H1042.24V663.316H1057.79V661.316ZM1041.24 662.316V706.223H1043.24V662.316H1041.24ZM1042.24 707.223H1056.46V705.223H1042.24V707.223ZM1231.54 649.816V648.816H1230.88L1230.62 649.428L1231.54 649.816ZM1242.24 649.816L1243.16 649.428L1242.91 648.816H1242.24V649.816ZM1288.1 758.566V759.566H1289.61L1289.02 758.178L1288.1 758.566ZM1271.85 758.566L1270.92 758.94L1271.18 759.566H1271.85V758.566ZM1260.84 731.223L1261.76 730.849L1261.51 730.223H1260.84V731.223ZM1212.56 731.223V730.223H1211.88L1211.63 730.851L1212.56 731.223ZM1201.62 758.566V759.566H1202.29L1202.55 758.938L1201.62 758.566ZM1185.68 758.566L1184.76 758.178L1184.17 759.566H1185.68V758.566ZM1255.84 718.723V719.723H1257.31L1256.76 718.351L1255.84 718.723ZM1236.77 671.066L1237.7 670.695L1236.78 668.379L1235.85 670.694L1236.77 671.066ZM1217.63 718.723L1216.71 718.35L1216.15 719.723H1217.63V718.723ZM1231.54 650.816H1242.24V648.816H1231.54V650.816ZM1241.32 650.205L1287.18 758.955L1289.02 758.178L1243.16 649.428L1241.32 650.205ZM1288.1 757.566H1271.85V759.566H1288.1V757.566ZM1272.78 758.193L1261.76 730.849L1259.91 731.596L1270.92 758.94L1272.78 758.193ZM1260.84 730.223H1212.56V732.223H1260.84V730.223ZM1211.63 730.851L1200.69 758.195L1202.55 758.938L1213.48 731.594L1211.63 730.851ZM1201.62 757.566H1185.68V759.566H1201.62V757.566ZM1186.6 758.955L1232.46 650.205L1230.62 649.428L1184.76 758.178L1186.6 758.955ZM1256.76 718.351L1237.7 670.695L1235.85 671.438L1254.91 719.094L1256.76 718.351ZM1235.85 670.694L1216.71 718.35L1218.56 719.095L1237.7 671.439L1235.85 670.694ZM1217.63 719.723H1255.84V717.723H1217.63V719.723ZM1379.04 649.816V648.816H1378.04V649.816H1379.04ZM1390.29 649.816L1391.11 649.239L1390.81 648.816H1390.29V649.816ZM1447.09 730.051L1446.27 730.629L1448.36 733.579L1448.09 729.975L1447.09 730.051ZM1446.23 718.801H1445.23V718.839L1445.23 718.877L1446.23 718.801ZM1446.23 649.816V648.816H1445.23V649.816H1446.23ZM1461.7 649.816H1462.7V648.816H1461.7V649.816ZM1461.7 758.566V759.566H1462.7V758.566H1461.7ZM1450.53 758.566L1449.71 759.146L1450.01 759.566H1450.53V758.566ZM1403.11 691.926L1402.28 692.497L1402.29 692.506L1403.11 691.926ZM1393.65 678.332L1394.47 677.761L1392.43 674.82L1392.65 678.395L1393.65 678.332ZM1394.51 691.926H1395.51V691.894L1395.51 691.863L1394.51 691.926ZM1394.51 758.566V759.566H1395.51V758.566H1394.51ZM1379.04 758.566H1378.04V759.566H1379.04V758.566ZM1379.04 650.816H1390.29V648.816H1379.04V650.816ZM1389.48 650.394L1446.27 730.629L1447.91 729.473L1391.11 649.239L1389.48 650.394ZM1448.09 729.975L1447.23 718.725L1445.23 718.877L1446.09 730.127L1448.09 729.975ZM1447.23 718.801V649.816H1445.23V718.801H1447.23ZM1446.23 650.816H1461.7V648.816H1446.23V650.816ZM1460.7 649.816V758.566H1462.7V649.816H1460.7ZM1461.7 757.566H1450.53V759.566H1461.7V757.566ZM1451.34 757.987L1403.92 691.346L1402.29 692.506L1449.71 759.146L1451.34 757.987ZM1403.93 691.355L1394.47 677.761L1392.83 678.903L1402.28 692.497L1403.93 691.355ZM1392.65 678.395L1393.51 691.989L1395.51 691.863L1394.65 678.269L1392.65 678.395ZM1393.51 691.926V758.566H1395.51V691.926H1393.51ZM1394.51 757.566H1379.04V759.566H1394.51V757.566ZM1380.04 758.566V649.816H1378.04V758.566H1380.04Z" fill="black" mask="url(#path-1-outside-1_222_104)"/>
<mask id="path-3-outside-2_222_104" maskUnits="userSpaceOnUse" x="15" y="237" width="1441" height="383" fill="black">
<rect fill="white" x="15" y="237" width="1441" height="383"/>
<path d="M190.82 401.977H109.961V477.953H181.641L190.82 445.141H226.758V526H17.9688V492.016L48.0469 479.906V292.016L17.9688 279.906V245.922L109.961 243.969H222.07V321.117H185.938L175.977 292.016H109.961V358.031H190.82V401.977ZM393.641 311.938L498.523 309.984V343.969L475.672 349.242L411.219 526H345.203L282.117 350.414L262.781 343.969V311.938L367.664 309.984V343.969L345.203 348.07L381.531 466.039L416.883 349.242L393.641 343.969V311.938ZM583.961 472.875C584.742 473.396 586.826 474.307 590.211 475.609C593.727 476.911 598.349 478.214 604.078 479.516C609.807 480.688 616.122 481.273 623.023 481.273C636.565 481.273 648.023 478.409 657.398 472.68C666.773 466.951 671.461 459.008 671.461 448.852C671.461 442.732 669.378 437.589 665.211 433.422C661.174 429.255 655.966 425.805 649.586 423.07C643.336 420.206 634.221 416.625 622.242 412.328C604.664 406.208 590.146 400.154 578.688 394.164C567.229 388.174 557.268 379.516 548.805 368.188C540.471 356.859 536.305 342.146 536.305 324.047C536.305 306.208 540.667 290.909 549.391 278.148C558.245 265.258 570.354 255.557 585.719 249.047C601.083 242.536 618.466 239.281 637.867 239.281C651.148 239.281 664.299 240.453 677.32 242.797C690.471 245.141 701.279 247.615 709.742 250.219C718.336 252.693 723.74 254.385 725.953 255.297L723.805 327.953H687.086L677.125 293.969C676.083 293.708 673.805 293.122 670.289 292.211C666.773 291.299 662.411 290.388 657.203 289.477C651.995 288.435 646.917 287.914 641.969 287.914C628.427 287.914 617.945 290.583 610.523 295.922C603.102 301.26 599.391 308.096 599.391 316.43C599.391 325.023 603.362 331.794 611.305 336.742C619.378 341.56 632.073 347.029 649.391 353.148C666.969 359.268 681.422 365.258 692.75 371.117C704.208 376.977 713.974 385.375 722.047 396.312C730.25 407.25 734.352 421.247 734.352 438.305C734.352 457.836 729.664 474.633 720.289 488.695C710.914 502.628 698.089 513.24 681.812 520.531C665.536 527.693 647.047 531.273 626.344 531.273C613.062 531.273 599.781 530.102 586.5 527.758C573.349 525.544 562.411 523.266 553.688 520.922C544.964 518.448 539.43 516.82 537.086 516.039V439.281H577.906L583.961 472.875ZM859.633 309.984L863.344 332.445C863.344 331.924 866.469 329.32 872.719 324.633C878.969 319.945 886.391 315.714 894.984 311.938C903.708 308.031 912.888 306.078 922.523 306.078C949.737 306.078 970.375 315.453 984.438 334.203C998.63 352.953 1005.73 378.865 1005.73 411.938C1005.73 449.568 996.742 478.669 978.773 499.242C960.935 519.685 934.828 529.906 900.453 529.906C889.255 529.906 877.927 528.604 866.469 526V576.781L904.555 585.961V617.992H775.258V585.961L806.508 576.781V353.93L774.477 343.969V311.938L859.633 309.984ZM866.469 477.953C875.583 481.99 886 484.008 897.719 484.008C914.255 484.008 926.039 478.539 933.07 467.602C940.102 456.664 943.617 440.518 943.617 419.164C943.617 398.07 940.492 381.924 934.242 370.727C927.992 359.529 917.771 353.93 903.578 353.93C895.896 353.93 889.32 355.557 883.852 358.812C878.383 362.068 874.086 365.648 870.961 369.555C867.966 373.331 866.469 375.479 866.469 376V477.953ZM1155.62 306.078C1187.78 306.078 1212.58 315.453 1230.03 334.203C1247.61 352.953 1256.4 379.581 1256.4 414.086C1256.4 437.784 1251.97 458.357 1243.12 475.805C1234.39 493.253 1222.02 506.664 1206.01 516.039C1189.99 525.284 1171.18 529.906 1149.56 529.906C1081.59 529.906 1047.61 493.253 1047.61 419.945C1047.61 396.247 1052.04 375.87 1060.89 358.812C1069.88 341.755 1082.51 328.734 1098.78 319.75C1115.06 310.635 1134 306.078 1155.62 306.078ZM1153.47 353.93C1138.36 353.93 1127.23 358.812 1120.07 368.578C1113.04 378.344 1109.52 394.815 1109.52 417.992C1109.52 440.128 1112.84 456.339 1119.48 466.625C1126.26 476.911 1136.93 482.055 1151.52 482.055C1166.23 482.055 1177.04 476.911 1183.94 466.625C1190.84 456.339 1194.29 439.477 1194.29 416.039C1194.29 395.206 1191.03 379.646 1184.52 369.359C1178.01 359.073 1167.66 353.93 1153.47 353.93ZM1384.61 529.906C1362.99 529.906 1347.7 523.201 1338.71 509.789C1329.86 496.378 1325.43 477.107 1325.43 451.977V359.984H1288.32V321.117L1325.43 316.039V260.766L1385.39 250.023V316.039H1441.45V359.984H1385.39V448.07C1385.39 461.352 1386.82 470.661 1389.69 476C1392.68 481.339 1398.35 484.008 1406.68 484.008C1411.5 484.008 1417.1 482.966 1423.48 480.883C1429.86 478.669 1434.8 476.651 1438.32 474.828L1452.58 505.297C1430.18 521.833 1407.53 530.036 1384.61 529.906Z"/>
</mask>
<path d="M190.82 401.977H109.961V477.953H181.641L190.82 445.141H226.758V526H17.9688V492.016L48.0469 479.906V292.016L17.9688 279.906V245.922L109.961 243.969H222.07V321.117H185.938L175.977 292.016H109.961V358.031H190.82V401.977ZM393.641 311.938L498.523 309.984V343.969L475.672 349.242L411.219 526H345.203L282.117 350.414L262.781 343.969V311.938L367.664 309.984V343.969L345.203 348.07L381.531 466.039L416.883 349.242L393.641 343.969V311.938ZM583.961 472.875C584.742 473.396 586.826 474.307 590.211 475.609C593.727 476.911 598.349 478.214 604.078 479.516C609.807 480.688 616.122 481.273 623.023 481.273C636.565 481.273 648.023 478.409 657.398 472.68C666.773 466.951 671.461 459.008 671.461 448.852C671.461 442.732 669.378 437.589 665.211 433.422C661.174 429.255 655.966 425.805 649.586 423.07C643.336 420.206 634.221 416.625 622.242 412.328C604.664 406.208 590.146 400.154 578.688 394.164C567.229 388.174 557.268 379.516 548.805 368.188C540.471 356.859 536.305 342.146 536.305 324.047C536.305 306.208 540.667 290.909 549.391 278.148C558.245 265.258 570.354 255.557 585.719 249.047C601.083 242.536 618.466 239.281 637.867 239.281C651.148 239.281 664.299 240.453 677.32 242.797C690.471 245.141 701.279 247.615 709.742 250.219C718.336 252.693 723.74 254.385 725.953 255.297L723.805 327.953H687.086L677.125 293.969C676.083 293.708 673.805 293.122 670.289 292.211C666.773 291.299 662.411 290.388 657.203 289.477C651.995 288.435 646.917 287.914 641.969 287.914C628.427 287.914 617.945 290.583 610.523 295.922C603.102 301.26 599.391 308.096 599.391 316.43C599.391 325.023 603.362 331.794 611.305 336.742C619.378 341.56 632.073 347.029 649.391 353.148C666.969 359.268 681.422 365.258 692.75 371.117C704.208 376.977 713.974 385.375 722.047 396.312C730.25 407.25 734.352 421.247 734.352 438.305C734.352 457.836 729.664 474.633 720.289 488.695C710.914 502.628 698.089 513.24 681.812 520.531C665.536 527.693 647.047 531.273 626.344 531.273C613.062 531.273 599.781 530.102 586.5 527.758C573.349 525.544 562.411 523.266 553.688 520.922C544.964 518.448 539.43 516.82 537.086 516.039V439.281H577.906L583.961 472.875ZM859.633 309.984L863.344 332.445C863.344 331.924 866.469 329.32 872.719 324.633C878.969 319.945 886.391 315.714 894.984 311.938C903.708 308.031 912.888 306.078 922.523 306.078C949.737 306.078 970.375 315.453 984.438 334.203C998.63 352.953 1005.73 378.865 1005.73 411.938C1005.73 449.568 996.742 478.669 978.773 499.242C960.935 519.685 934.828 529.906 900.453 529.906C889.255 529.906 877.927 528.604 866.469 526V576.781L904.555 585.961V617.992H775.258V585.961L806.508 576.781V353.93L774.477 343.969V311.938L859.633 309.984ZM866.469 477.953C875.583 481.99 886 484.008 897.719 484.008C914.255 484.008 926.039 478.539 933.07 467.602C940.102 456.664 943.617 440.518 943.617 419.164C943.617 398.07 940.492 381.924 934.242 370.727C927.992 359.529 917.771 353.93 903.578 353.93C895.896 353.93 889.32 355.557 883.852 358.812C878.383 362.068 874.086 365.648 870.961 369.555C867.966 373.331 866.469 375.479 866.469 376V477.953ZM1155.62 306.078C1187.78 306.078 1212.58 315.453 1230.03 334.203C1247.61 352.953 1256.4 379.581 1256.4 414.086C1256.4 437.784 1251.97 458.357 1243.12 475.805C1234.39 493.253 1222.02 506.664 1206.01 516.039C1189.99 525.284 1171.18 529.906 1149.56 529.906C1081.59 529.906 1047.61 493.253 1047.61 419.945C1047.61 396.247 1052.04 375.87 1060.89 358.812C1069.88 341.755 1082.51 328.734 1098.78 319.75C1115.06 310.635 1134 306.078 1155.62 306.078ZM1153.47 353.93C1138.36 353.93 1127.23 358.812 1120.07 368.578C1113.04 378.344 1109.52 394.815 1109.52 417.992C1109.52 440.128 1112.84 456.339 1119.48 466.625C1126.26 476.911 1136.93 482.055 1151.52 482.055C1166.23 482.055 1177.04 476.911 1183.94 466.625C1190.84 456.339 1194.29 439.477 1194.29 416.039C1194.29 395.206 1191.03 379.646 1184.52 369.359C1178.01 359.073 1167.66 353.93 1153.47 353.93ZM1384.61 529.906C1362.99 529.906 1347.7 523.201 1338.71 509.789C1329.86 496.378 1325.43 477.107 1325.43 451.977V359.984H1288.32V321.117L1325.43 316.039V260.766L1385.39 250.023V316.039H1441.45V359.984H1385.39V448.07C1385.39 461.352 1386.82 470.661 1389.69 476C1392.68 481.339 1398.35 484.008 1406.68 484.008C1411.5 484.008 1417.1 482.966 1423.48 480.883C1429.86 478.669 1434.8 476.651 1438.32 474.828L1452.58 505.297C1430.18 521.833 1407.53 530.036 1384.61 529.906Z" fill="white"/>
<path d="M190.82 401.977V403.977H192.82V401.977H190.82ZM109.961 401.977V399.977H107.961V401.977H109.961ZM109.961 477.953H107.961V479.953H109.961V477.953ZM181.641 477.953V479.953H183.158L183.567 478.492L181.641 477.953ZM190.82 445.141V443.141H189.303L188.894 444.602L190.82 445.141ZM226.758 445.141H228.758V443.141H226.758V445.141ZM226.758 526V528H228.758V526H226.758ZM17.9688 526H15.9688V528H17.9688V526ZM17.9688 492.016L17.2218 490.16L15.9688 490.665V492.016H17.9688ZM48.0469 479.906L48.7938 481.762L50.0469 481.257V479.906H48.0469ZM48.0469 292.016H50.0469V290.665L48.7938 290.16L48.0469 292.016ZM17.9688 279.906H15.9688V281.257L17.2218 281.762L17.9688 279.906ZM17.9688 245.922L17.9263 243.922L15.9688 243.964V245.922H17.9688ZM109.961 243.969V241.969H109.94L109.918 241.969L109.961 243.969ZM222.07 243.969H224.07V241.969H222.07V243.969ZM222.07 321.117V323.117H224.07V321.117H222.07ZM185.938 321.117L184.045 321.765L184.508 323.117H185.938V321.117ZM175.977 292.016L177.869 291.368L177.406 290.016H175.977V292.016ZM109.961 292.016V290.016H107.961V292.016H109.961ZM109.961 358.031H107.961V360.031H109.961V358.031ZM190.82 358.031H192.82V356.031H190.82V358.031ZM190.82 399.977H109.961V403.977H190.82V399.977ZM107.961 401.977V477.953H111.961V401.977H107.961ZM109.961 479.953H181.641V475.953H109.961V479.953ZM183.567 478.492L192.746 445.679L188.894 444.602L179.715 477.414L183.567 478.492ZM190.82 447.141H226.758V443.141H190.82V447.141ZM224.758 445.141V526H228.758V445.141H224.758ZM226.758 524H17.9688V528H226.758V524ZM19.9688 526V492.016H15.9688V526H19.9688ZM18.7157 493.871L48.7938 481.762L47.2999 478.051L17.2218 490.16L18.7157 493.871ZM50.0469 479.906V292.016H46.0469V479.906H50.0469ZM48.7938 290.16L18.7157 278.051L17.2218 281.762L47.2999 293.871L48.7938 290.16ZM19.9688 279.906V245.922H15.9688V279.906H19.9688ZM18.0112 247.921L110.003 245.968L109.918 241.969L17.9263 243.922L18.0112 247.921ZM109.961 245.969H222.07V241.969H109.961V245.969ZM220.07 243.969V321.117H224.07V243.969H220.07ZM222.07 319.117H185.938V323.117H222.07V319.117ZM187.83 320.47L177.869 291.368L174.084 292.663L184.045 321.765L187.83 320.47ZM175.977 290.016H109.961V294.016H175.977V290.016ZM107.961 292.016V358.031H111.961V292.016H107.961ZM109.961 360.031H190.82V356.031H109.961V360.031ZM188.82 358.031V401.977H192.82V358.031H188.82ZM393.641 311.938L393.603 309.938L391.641 309.974V311.938H393.641ZM498.523 309.984H500.523V307.947L498.486 307.985L498.523 309.984ZM498.523 343.969L498.973 345.918L500.523 345.56V343.969H498.523ZM475.672 349.242L475.222 347.293L474.165 347.537L473.793 348.557L475.672 349.242ZM411.219 526V528H412.618L413.098 526.685L411.219 526ZM345.203 526L343.321 526.676L343.797 528H345.203V526ZM282.117 350.414L283.999 349.738L283.671 348.824L282.75 348.517L282.117 350.414ZM262.781 343.969H260.781V345.41L262.149 345.866L262.781 343.969ZM262.781 311.938L262.744 309.938L260.781 309.974V311.938H262.781ZM367.664 309.984H369.664V307.947L367.627 307.985L367.664 309.984ZM367.664 343.969L368.023 345.936L369.664 345.637V343.969H367.664ZM345.203 348.07L344.844 346.103L342.629 346.507L343.292 348.659L345.203 348.07ZM381.531 466.039L379.62 466.628L381.548 472.888L383.445 466.618L381.531 466.039ZM416.883 349.242L418.797 349.822L419.419 347.767L417.325 347.292L416.883 349.242ZM393.641 343.969H391.641V345.566L393.198 345.919L393.641 343.969ZM393.678 313.937L498.561 311.984L498.486 307.985L393.603 309.938L393.678 313.937ZM496.523 309.984V343.969H500.523V309.984H496.523ZM498.074 342.02L475.222 347.293L476.122 351.191L498.973 345.918L498.074 342.02ZM473.793 348.557L409.34 525.315L413.098 526.685L477.551 349.927L473.793 348.557ZM411.219 524H345.203V528H411.219V524ZM347.085 525.324L283.999 349.738L280.235 351.09L343.321 526.676L347.085 525.324ZM282.75 348.517L263.414 342.071L262.149 345.866L281.485 352.311L282.75 348.517ZM264.781 343.969V311.938H260.781V343.969H264.781ZM262.818 313.937L367.701 311.984L367.627 307.985L262.744 309.938L262.818 313.937ZM365.664 309.984V343.969H369.664V309.984H365.664ZM367.305 342.001L344.844 346.103L345.562 350.038L368.023 345.936L367.305 342.001ZM343.292 348.659L379.62 466.628L383.443 465.45L347.115 347.482L343.292 348.659ZM383.445 466.618L418.797 349.822L414.969 348.663L379.617 465.46L383.445 466.618ZM417.325 347.292L394.083 342.018L393.198 345.919L416.44 351.193L417.325 347.292ZM395.641 343.969V311.938H391.641V343.969H395.641ZM583.961 472.875L581.993 473.23L582.144 474.067L582.852 474.539L583.961 472.875ZM590.211 475.609L589.493 477.476L589.505 477.481L589.516 477.485L590.211 475.609ZM604.078 479.516L603.635 481.466L603.656 481.471L603.677 481.475L604.078 479.516ZM657.398 472.68L656.356 470.973L657.398 472.68ZM665.211 433.422L663.774 434.813L663.786 434.825L663.797 434.836L665.211 433.422ZM649.586 423.07L648.753 424.888L648.775 424.899L648.798 424.909L649.586 423.07ZM622.242 412.328L622.917 410.446L622.909 410.442L622.9 410.439L622.242 412.328ZM578.688 394.164L579.614 392.392L578.688 394.164ZM548.805 368.188L547.194 369.373L547.198 369.379L547.202 369.385L548.805 368.188ZM549.391 278.148L547.742 277.016L547.74 277.02L549.391 278.148ZM585.719 249.047L584.938 247.205L585.719 249.047ZM677.32 242.797L676.966 244.765L676.969 244.766L677.32 242.797ZM709.742 250.219L709.154 252.13L709.171 252.136L709.189 252.141L709.742 250.219ZM725.953 255.297L727.952 255.356L727.993 253.974L726.715 253.448L725.953 255.297ZM723.805 327.953V329.953H725.746L725.804 328.012L723.805 327.953ZM687.086 327.953L685.167 328.516L685.588 329.953H687.086V327.953ZM677.125 293.969L679.044 293.406L678.722 292.306L677.61 292.028L677.125 293.969ZM657.203 289.477L656.811 291.438L656.835 291.442L656.858 291.447L657.203 289.477ZM611.305 336.742L610.247 338.44L610.263 338.45L610.28 338.46L611.305 336.742ZM649.391 353.148L648.724 355.034L648.733 355.037L649.391 353.148ZM692.75 371.117L691.831 372.894L691.839 372.898L692.75 371.117ZM722.047 396.312L720.438 397.5L720.442 397.506L720.447 397.512L722.047 396.312ZM720.289 488.695L721.948 489.812L721.953 489.805L720.289 488.695ZM681.812 520.531L682.618 522.362L682.63 522.356L681.812 520.531ZM586.5 527.758L586.848 525.788L586.84 525.787L586.832 525.786L586.5 527.758ZM553.688 520.922L553.142 522.846L553.155 522.85L553.169 522.853L553.688 520.922ZM537.086 516.039H535.086V517.481L536.453 517.936L537.086 516.039ZM537.086 439.281V437.281H535.086V439.281H537.086ZM577.906 439.281L579.875 438.927L579.578 437.281H577.906V439.281ZM582.852 474.539C583.404 474.907 584.267 475.326 585.308 475.782C586.388 476.254 587.787 476.82 589.493 477.476L590.929 473.743C589.25 473.097 587.914 472.556 586.911 472.117C585.868 471.661 585.299 471.363 585.07 471.211L582.852 474.539ZM589.516 477.485C593.146 478.829 597.862 480.154 603.635 481.466L604.521 477.565C598.836 476.273 594.307 474.994 590.906 473.734L589.516 477.485ZM603.677 481.475C609.559 482.678 616.011 483.273 623.023 483.273V479.273C616.234 479.273 610.055 478.697 604.479 477.556L603.677 481.475ZM623.023 483.273C636.848 483.273 648.687 480.347 658.441 474.386L656.356 470.973C647.36 476.47 636.282 479.273 623.023 479.273V483.273ZM658.441 474.386C668.352 468.33 673.461 459.771 673.461 448.852H669.461C669.461 458.245 665.195 465.571 656.356 470.973L658.441 474.386ZM673.461 448.852C673.461 442.224 671.183 436.565 666.625 432.008L663.797 434.836C667.572 438.612 669.461 443.239 669.461 448.852H673.461ZM666.647 432.03C662.394 427.64 656.951 424.051 650.374 421.232L648.798 424.909C654.982 427.559 659.955 430.871 663.774 434.813L666.647 432.03ZM650.419 421.252C644.091 418.352 634.913 414.748 622.917 410.446L621.567 414.211C633.529 418.502 642.581 422.06 648.753 424.888L650.419 421.252ZM622.9 410.439C605.378 404.339 590.957 398.321 579.614 392.392L577.761 395.937C589.335 401.986 603.951 408.078 621.585 414.217L622.9 410.439ZM579.614 392.392C568.445 386.553 558.708 378.101 550.407 366.99L547.202 369.385C555.828 380.93 566.013 389.796 577.761 395.937L579.614 392.392ZM550.416 367.002C542.399 356.105 538.305 341.842 538.305 324.047H534.305C534.305 342.45 538.543 357.614 547.194 369.373L550.416 367.002ZM538.305 324.047C538.305 306.547 542.579 291.656 551.042 279.277L547.74 277.02C538.755 290.162 534.305 305.869 534.305 324.047H538.305ZM551.039 279.281C559.663 266.726 571.461 257.26 586.499 250.888L584.938 247.205C569.247 253.854 556.827 263.79 547.742 277.016L551.039 279.281ZM586.499 250.888C601.58 244.498 618.691 241.281 637.867 241.281V237.281C618.241 237.281 600.587 240.575 584.938 247.205L586.499 250.888ZM637.867 241.281C651.03 241.281 664.063 242.443 676.966 244.765L677.675 240.829C664.536 238.464 651.267 237.281 637.867 237.281V241.281ZM676.969 244.766C690.076 247.102 700.797 249.559 709.154 252.13L710.33 248.307C701.761 245.67 690.867 243.18 677.671 240.828L676.969 244.766ZM709.189 252.141C717.817 254.625 723.102 256.286 725.192 257.146L726.715 253.448C724.377 252.485 718.854 250.761 710.295 248.297L709.189 252.141ZM723.954 255.238L721.806 327.894L725.804 328.012L727.952 255.356L723.954 255.238ZM723.805 325.953H687.086V329.953H723.805V325.953ZM689.005 327.391L679.044 293.406L675.206 294.531L685.167 328.516L689.005 327.391ZM677.61 292.028C676.578 291.771 674.309 291.187 670.791 290.275L669.787 294.147C673.301 295.058 675.588 295.646 676.64 295.909L677.61 292.028ZM670.791 290.275C667.206 289.345 662.788 288.423 657.548 287.507L656.858 291.447C662.035 292.353 666.341 293.253 669.787 294.147L670.791 290.275ZM657.595 287.515C652.267 286.45 647.058 285.914 641.969 285.914V289.914C646.776 289.914 651.722 290.42 656.811 291.438L657.595 287.515ZM641.969 285.914C628.2 285.914 617.246 288.623 609.356 294.298L611.691 297.545C618.645 292.544 628.654 289.914 641.969 289.914V285.914ZM609.356 294.298C601.47 299.97 597.391 307.383 597.391 316.43H601.391C601.391 308.809 604.733 302.551 611.691 297.545L609.356 294.298ZM597.391 316.43C597.391 325.785 601.781 333.166 610.247 338.44L612.362 335.045C604.943 330.423 601.391 324.262 601.391 316.43H597.391ZM610.28 338.46C618.528 343.382 631.376 348.904 648.724 355.034L650.057 351.263C632.77 345.154 620.227 339.738 612.33 335.025L610.28 338.46ZM648.733 355.037C666.258 361.139 680.616 367.093 691.831 372.894L693.669 369.341C682.228 363.423 667.679 357.398 650.048 351.26L648.733 355.037ZM691.839 372.898C703.007 378.608 712.538 386.797 720.438 397.5L723.656 395.125C715.41 383.953 705.41 375.345 693.661 369.337L691.839 372.898ZM720.447 397.512C728.332 408.026 732.352 421.571 732.352 438.305H736.352C736.352 420.923 732.168 406.474 723.647 395.113L720.447 397.512ZM732.352 438.305C732.352 457.504 727.748 473.901 718.625 487.586L721.953 489.805C731.58 475.365 736.352 458.168 736.352 438.305H732.352ZM718.63 487.579C709.477 501.181 696.952 511.557 680.995 518.706L682.63 522.356C699.225 514.922 712.351 504.074 721.948 489.812L718.63 487.579ZM681.007 518.701C665.023 525.734 646.815 529.273 626.344 529.273V533.273C647.279 533.273 666.05 529.652 682.618 522.362L681.007 518.701ZM626.344 529.273C613.181 529.273 600.016 528.112 586.848 525.788L586.152 529.727C599.547 532.091 612.944 533.273 626.344 533.273V529.273ZM586.832 525.786C573.717 523.578 562.847 521.312 554.206 518.99L553.169 522.853C561.976 525.219 572.981 527.51 586.168 529.73L586.832 525.786ZM554.233 518.998C545.495 516.52 540.01 514.906 537.718 514.142L536.453 517.936C538.849 518.735 544.432 520.376 553.142 522.846L554.233 518.998ZM539.086 516.039V439.281H535.086V516.039H539.086ZM537.086 441.281H577.906V437.281H537.086V441.281ZM575.938 439.636L581.993 473.23L585.929 472.52L579.875 438.927L575.938 439.636ZM859.633 309.984L861.606 309.658L861.323 307.945L859.587 307.985L859.633 309.984ZM863.344 332.445L861.371 332.771L865.344 332.445H863.344ZM894.984 311.938L895.789 313.769L895.802 313.763L894.984 311.938ZM984.438 334.203L982.837 335.403L982.843 335.41L984.438 334.203ZM978.773 499.242L977.267 497.927L977.267 497.927L978.773 499.242ZM866.469 526L866.912 524.05L864.469 523.494V526H866.469ZM866.469 576.781H864.469V578.356L866 578.726L866.469 576.781ZM904.555 585.961H906.555V584.386L905.023 584.017L904.555 585.961ZM904.555 617.992V619.992H906.555V617.992H904.555ZM775.258 617.992H773.258V619.992H775.258V617.992ZM775.258 585.961L774.694 584.042L773.258 584.464V585.961H775.258ZM806.508 576.781L807.071 578.7L808.508 578.278V576.781H806.508ZM806.508 353.93H808.508V352.457L807.102 352.02L806.508 353.93ZM774.477 343.969H772.477V345.441L773.883 345.879L774.477 343.969ZM774.477 311.938L774.431 309.938L772.477 309.983V311.938H774.477ZM866.469 477.953H864.469V479.255L865.659 479.782L866.469 477.953ZM870.961 369.555L869.399 368.305L869.394 368.312L870.961 369.555ZM857.66 310.31L861.371 332.771L865.317 332.119L861.606 309.658L857.66 310.31ZM865.344 332.445C865.344 332.866 865.201 333.153 865.169 333.218C865.121 333.315 865.082 333.363 865.09 333.352C865.105 333.332 865.176 333.246 865.344 333.078C865.67 332.752 866.201 332.277 866.968 331.638C868.49 330.369 870.801 328.571 873.919 326.233L871.519 323.033C868.386 325.382 866.01 327.23 864.407 328.565C863.611 329.229 862.97 329.795 862.515 330.25C862.292 330.473 862.07 330.712 861.89 330.952C861.801 331.072 861.689 331.234 861.592 331.429C861.511 331.591 861.344 331.96 861.344 332.445H865.344ZM873.919 326.233C880.025 321.653 887.308 317.495 895.789 313.769L894.18 310.106C885.473 313.932 877.913 318.237 871.519 323.033L873.919 326.233ZM895.802 313.763C904.266 309.973 913.167 308.078 922.523 308.078V304.078C912.609 304.078 903.15 306.09 894.167 310.112L895.802 313.763ZM922.523 308.078C949.223 308.078 969.217 317.242 982.837 335.403L986.038 333.003C971.533 313.664 950.251 304.078 922.523 304.078V308.078ZM982.843 335.41C996.685 353.696 1003.73 379.128 1003.73 411.938H1007.73C1007.73 378.602 1000.58 352.21 986.032 332.996L982.843 335.41ZM1003.73 411.938C1003.73 449.267 994.815 477.836 977.267 497.927L980.28 500.558C998.669 479.503 1007.73 449.869 1007.73 411.938H1003.73ZM977.267 497.927C959.905 517.824 934.416 527.906 900.453 527.906V531.906C935.24 531.906 961.965 521.546 980.28 500.557L977.267 497.927ZM900.453 527.906C889.412 527.906 878.232 526.622 866.912 524.05L866.026 527.95C877.622 530.586 889.099 531.906 900.453 531.906V527.906ZM864.469 526V576.781H868.469V526H864.469ZM866 578.726L904.086 587.905L905.023 584.017L866.937 574.837L866 578.726ZM902.555 585.961V617.992H906.555V585.961H902.555ZM904.555 615.992H775.258V619.992H904.555V615.992ZM777.258 617.992V585.961H773.258V617.992H777.258ZM775.821 587.88L807.071 578.7L805.944 574.862L774.694 584.042L775.821 587.88ZM808.508 576.781V353.93H804.508V576.781H808.508ZM807.102 352.02L775.07 342.059L773.883 345.879L805.914 355.839L807.102 352.02ZM776.477 343.969V311.938H772.477V343.969H776.477ZM774.522 313.937L859.679 311.984L859.587 307.985L774.431 309.938L774.522 313.937ZM865.659 479.782C875.069 483.949 885.769 486.008 897.719 486.008V482.008C886.231 482.008 876.097 480.03 867.279 476.124L865.659 479.782ZM897.719 486.008C914.726 486.008 927.253 480.35 934.753 468.683L931.388 466.52C924.825 476.728 913.785 482.008 897.719 482.008V486.008ZM934.753 468.683C942.085 457.277 945.617 440.68 945.617 419.164H941.617C941.617 440.357 938.118 456.051 931.388 466.52L934.753 468.683ZM945.617 419.164C945.617 397.925 942.48 381.381 935.989 369.752L932.496 371.701C938.505 382.467 941.617 398.216 941.617 419.164H945.617ZM935.989 369.752C929.342 357.843 918.401 351.93 903.578 351.93V355.93C917.14 355.93 926.643 361.215 932.496 371.701L935.989 369.752ZM903.578 351.93C895.61 351.93 888.665 353.62 882.829 357.094L884.875 360.531C889.975 357.495 896.181 355.93 903.578 355.93V351.93ZM882.829 357.094C877.207 360.44 872.709 364.168 869.399 368.305L872.523 370.804C875.463 367.129 879.558 363.695 884.875 360.531L882.829 357.094ZM869.394 368.312C867.888 370.21 866.735 371.729 865.951 372.854C865.562 373.413 865.239 373.909 865.005 374.326C864.889 374.532 864.775 374.755 864.684 374.98C864.613 375.156 864.469 375.539 864.469 376H868.469C868.469 376.192 868.437 376.33 868.423 376.384C868.414 376.416 868.407 376.44 868.402 376.454C868.397 376.468 868.394 376.476 868.394 376.477C868.394 376.477 868.4 376.461 868.418 376.425C868.436 376.39 868.46 376.343 868.494 376.283C868.635 376.032 868.873 375.657 869.233 375.142C869.946 374.118 871.039 372.675 872.528 370.797L869.394 368.312ZM864.469 376V477.953H868.469V376H864.469ZM1230.03 334.203L1228.57 335.566L1228.57 335.571L1230.03 334.203ZM1243.12 475.805L1241.33 474.9L1241.33 474.91L1243.12 475.805ZM1206.01 516.039L1207.01 517.771L1207.02 517.765L1206.01 516.039ZM1060.89 358.812L1059.12 357.88L1059.12 357.891L1060.89 358.812ZM1098.78 319.75L1099.75 321.501L1099.76 321.495L1098.78 319.75ZM1120.07 368.578L1118.46 367.395L1118.45 367.402L1118.45 367.41L1120.07 368.578ZM1119.48 466.625L1117.8 467.71L1117.81 467.717L1117.81 467.725L1119.48 466.625ZM1155.62 308.078C1187.37 308.078 1211.59 317.321 1228.57 335.566L1231.5 332.841C1213.58 313.585 1188.18 304.078 1155.62 304.078V308.078ZM1228.57 335.571C1245.7 353.838 1254.4 379.911 1254.4 414.086H1258.4C1258.4 379.25 1249.52 352.068 1231.49 332.835L1228.57 335.571ZM1254.4 414.086C1254.4 437.535 1250.02 457.785 1241.33 474.9L1244.9 476.71C1253.92 458.928 1258.4 438.033 1258.4 414.086H1254.4ZM1241.33 474.91C1232.77 492.03 1220.66 505.144 1205 514.313L1207.02 517.765C1223.39 508.184 1236.02 494.475 1244.91 476.699L1241.33 474.91ZM1205.01 514.307C1189.34 523.349 1170.89 527.906 1149.56 527.906V531.906C1171.47 531.906 1190.64 527.219 1207.01 517.771L1205.01 514.307ZM1149.56 527.906C1115.93 527.906 1091.06 518.844 1074.56 501.056C1058.05 483.24 1049.61 456.327 1049.61 419.945H1045.61C1045.61 456.871 1054.17 484.938 1071.63 503.776C1089.12 522.642 1115.23 531.906 1149.56 531.906V527.906ZM1049.61 419.945C1049.61 396.495 1053.99 376.448 1062.67 359.734L1059.12 357.891C1050.08 375.292 1045.61 396 1045.61 419.945H1049.61ZM1062.66 359.745C1071.47 343.019 1083.83 330.289 1099.75 321.501L1097.81 317.999C1081.18 327.179 1068.28 340.491 1059.12 357.88L1062.66 359.745ZM1099.76 321.495C1115.69 312.572 1134.29 308.078 1155.62 308.078V304.078C1133.72 304.078 1114.42 308.698 1097.8 318.005L1099.76 321.495ZM1153.47 351.93C1137.9 351.93 1126.09 356.989 1118.46 367.395L1121.68 369.761C1128.37 360.636 1138.83 355.93 1153.47 355.93V351.93ZM1118.45 367.41C1111.03 377.71 1107.52 394.725 1107.52 417.992H1111.52C1111.52 394.905 1115.05 378.978 1121.69 369.747L1118.45 367.41ZM1107.52 417.992C1107.52 440.244 1110.85 456.931 1117.8 467.71L1121.16 465.54C1114.84 455.746 1111.52 440.011 1111.52 417.992H1107.52ZM1117.81 467.725C1125.03 478.683 1136.4 484.055 1151.52 484.055V480.055C1137.46 480.055 1127.48 475.14 1121.15 465.525L1117.81 467.725ZM1151.52 484.055C1166.75 484.055 1178.25 478.689 1185.6 467.739L1182.28 465.511C1175.82 475.134 1165.71 480.055 1151.52 480.055V484.055ZM1185.6 467.739C1192.84 456.94 1196.29 439.573 1196.29 416.039H1192.29C1192.29 439.38 1188.83 455.737 1182.28 465.511L1185.6 467.739ZM1196.29 416.039C1196.29 395.065 1193.02 379.051 1186.21 368.29L1182.83 370.429C1189.04 380.241 1192.29 395.346 1192.29 416.039H1196.29ZM1186.21 368.29C1179.27 357.32 1168.21 351.93 1153.47 351.93V355.93C1167.11 355.93 1176.76 360.826 1182.83 370.429L1186.21 368.29ZM1384.61 529.906L1384.62 527.906H1384.61V529.906ZM1338.71 509.789L1337.04 510.891L1337.05 510.902L1338.71 509.789ZM1325.43 359.984H1327.43V357.984H1325.43V359.984ZM1288.32 359.984H1286.32V361.984H1288.32V359.984ZM1288.32 321.117L1288.05 319.136L1286.32 319.372V321.117H1288.32ZM1325.43 316.039L1325.7 318.021L1327.43 317.784V316.039H1325.43ZM1325.43 260.766L1325.08 258.797L1323.43 259.092V260.766H1325.43ZM1385.39 250.023H1387.39V247.633L1385.04 248.055L1385.39 250.023ZM1385.39 316.039H1383.39V318.039H1385.39V316.039ZM1441.45 316.039H1443.45V314.039H1441.45V316.039ZM1441.45 359.984V361.984H1443.45V359.984H1441.45ZM1385.39 359.984V357.984H1383.39V359.984H1385.39ZM1389.69 476L1387.93 476.946L1387.93 476.962L1387.94 476.979L1389.69 476ZM1423.48 480.883L1424.1 482.784L1424.11 482.778L1424.13 482.772L1423.48 480.883ZM1438.32 474.828L1440.13 473.98L1439.25 472.094L1437.4 473.053L1438.32 474.828ZM1452.58 505.297L1453.77 506.906L1455.08 505.933L1454.39 504.449L1452.58 505.297ZM1384.61 527.906C1363.41 527.906 1348.87 521.353 1340.37 508.676L1337.05 510.902C1346.53 525.048 1362.58 531.906 1384.61 531.906V527.906ZM1340.38 508.687C1331.83 495.739 1327.43 476.919 1327.43 451.977H1323.43C1323.43 477.295 1327.88 497.016 1337.04 510.891L1340.38 508.687ZM1327.43 451.977V359.984H1323.43V451.977H1327.43ZM1325.43 357.984H1288.32V361.984H1325.43V357.984ZM1290.32 359.984V321.117H1286.32V359.984H1290.32ZM1288.59 323.099L1325.7 318.021L1325.16 314.058L1288.05 319.136L1288.59 323.099ZM1327.43 316.039V260.766H1323.43V316.039H1327.43ZM1325.78 262.734L1385.74 251.992L1385.04 248.055L1325.08 258.797L1325.78 262.734ZM1383.39 250.023V316.039H1387.39V250.023H1383.39ZM1385.39 318.039H1441.45V314.039H1385.39V318.039ZM1439.45 316.039V359.984H1443.45V316.039H1439.45ZM1441.45 357.984H1385.39V361.984H1441.45V357.984ZM1383.39 359.984V448.07H1387.39V359.984H1383.39ZM1383.39 448.07C1383.39 461.377 1384.81 471.132 1387.93 476.946L1391.45 475.054C1388.84 470.191 1387.39 461.326 1387.39 448.07H1383.39ZM1387.94 476.979C1391.42 483.17 1397.92 486.008 1406.68 486.008V482.008C1398.77 482.008 1393.95 479.507 1391.43 475.021L1387.94 476.979ZM1406.68 486.008C1411.77 486.008 1417.59 484.909 1424.1 482.784L1422.86 478.982C1416.6 481.023 1411.22 482.008 1406.68 482.008V486.008ZM1424.13 482.772C1430.55 480.546 1435.6 478.491 1439.24 476.604L1437.4 473.053C1434.01 474.811 1429.16 476.793 1422.82 478.993L1424.13 482.772ZM1436.51 475.676L1450.77 506.145L1454.39 504.449L1440.13 473.98L1436.51 475.676ZM1451.39 503.688C1429.27 520.024 1407.02 528.034 1384.62 527.906L1384.6 531.906C1408.03 532.039 1431.1 523.642 1453.77 506.906L1451.39 503.688Z" fill="white" mask="url(#path-3-outside-2_222_104)"/>
<path d="M1571.75 948.923C1571.11 949.859 1569.65 949.138 1569.97 948.045L1667.77 617.141C1667.93 616.615 1667.63 616.055 1667.11 615.886L1572.14 585.04C1571.5 584.832 1571.23 584.064 1571.61 583.511L1800 245.51C1800.63 244.583 1802.07 245.263 1801.79 246.352L1725.95 538.683C1725.81 539.221 1726.14 539.776 1726.67 539.921L1830.97 567.968C1831.65 568.149 1831.94 568.946 1831.55 569.517L1571.75 948.923Z" fill="#ffde00"/>
</svg>
