<svg width="48" height="48" viewBox="0 0 48 48" fill="none" xmlns="http://www.w3.org/2000/svg">
<path d="M20.9803 4.46012L11.0003 8.20011C8.7003 9.06011 6.82031 11.7801 6.82031 14.2401V29.1001C6.82031 31.4601 8.38033 34.5601 10.2803 35.9801L18.8803 42.4001C21.7003 44.5201 26.3403 44.5201 29.1603 42.4001L37.7603 35.9801C39.6603 34.5601 41.2203 31.4601 41.2203 29.1001V14.2401C41.2203 11.7801 39.3403 9.06011 37.0403 8.20011L27.0603 4.46012C25.3603 3.84012 22.6403 3.84012 20.9803 4.46012Z" stroke="black" stroke-width="2.2" stroke-linecap="round" stroke-linejoin="round"/>
<path d="M23.9994 21.8398C23.9194 21.8398 23.8194 21.8398 23.7394 21.8398C21.8594 21.7798 20.3594 20.2198 20.3594 18.3198C20.3594 16.3798 21.9394 14.7998 23.8794 14.7998C25.8194 14.7998 27.3994 16.3798 27.3994 18.3198C27.3794 20.2398 25.8794 21.7798 23.9994 21.8398Z" stroke="#05ac5e" stroke-width="2" stroke-linecap="round" stroke-linejoin="round"/>
<path d="M20.0181 27.4397C18.0981 28.7197 18.0981 30.8197 20.0181 32.0997C22.1981 33.5597 25.7781 33.5597 27.9581 32.0997C29.8781 30.8197 29.8781 28.7197 27.9581 27.4397C25.7981 25.9797 22.2181 25.9797 20.0181 27.4397Z" stroke="#05ac5e" stroke-width="2" stroke-linecap="round" stroke-linejoin="round"/>
<path d="M38.9583 30C34.0223 30 30 34.0223 30 38.9583C30 43.8944 34.0223 47.9167 38.9583 47.9167C43.8944 47.9167 47.9167 43.8944 47.9167 38.9583C47.9167 34.0223 43.8944 30 38.9583 30Z" fill="white"/>
<path d="M38.9583 30C34.0223 30 30 34.0223 30 38.9583C30 43.8944 34.0223 47.9167 38.9583 47.9167C43.8944 47.9167 47.9167 43.8944 47.9167 38.9583C47.9167 34.0223 43.8944 30 38.9583 30ZM43.2404 36.8979L38.161 41.9773C38.0356 42.1027 37.8654 42.1744 37.6863 42.1744C37.5071 42.1744 37.3369 42.1027 37.2115 41.9773L34.6763 39.4421C34.4165 39.1823 34.4165 38.7523 34.6763 38.4925C34.936 38.2327 35.366 38.2327 35.6258 38.4925L37.6863 40.5529L42.2908 35.9483C42.5506 35.6885 42.9806 35.6885 43.2404 35.9483C43.5002 36.2081 43.5002 36.6292 43.2404 36.8979Z" fill="#05ac5e"/>
</svg>
