<svg width="48" height="48" viewBox="0 0 48 48" fill="none" xmlns="http://www.w3.org/2000/svg">
<path d="M24 30C27.3137 30 30 27.3137 30 24C30 20.6863 27.3137 18 24 18C20.6863 18 18 20.6863 18 24C18 27.3137 20.6863 30 24 30Z" stroke="#05ac5e" stroke-width="2.2" stroke-miterlimit="10" stroke-linecap="round" stroke-linejoin="round"/>
<path d="M4 25.7599V22.2399C4 20.1599 5.7 18.4399 7.8 18.4399C11.42 18.4399 12.9 15.8799 11.08 12.7399C10.04 10.9399 10.66 8.59987 12.48 7.55987L15.94 5.57987C17.52 4.63987 19.56 5.19987 20.5 6.77987L20.72 7.15987C22.52 10.2999 25.48 10.2999 27.3 7.15987L27.52 6.77987C28.46 5.19987 30.5 4.63987 32.08 5.57987L35.54 7.55987C37.36 8.59987 37.98 10.9399 36.94 12.7399C35.12 15.8799 36.6 18.4399 40.22 18.4399C42.3 18.4399 44.02 20.1399 44.02 22.2399V25.7599C44.02 27.8399 42.32 29.5599 40.22 29.5599C36.6 29.5599 35.12 32.1199 36.94 35.2599C37.98 37.0799 37.36 39.3999 35.54 40.4399L32.08 42.4199C30.5 43.3599 28.46 42.7999 27.52 41.2199L27.3 40.8399C25.5 37.6999 22.54 37.6999 20.72 40.8399L20.5 41.2199C19.56 42.7999 17.52 43.3599 15.94 42.4199L12.48 40.4399C10.66 39.3999 10.04 37.0599 11.08 35.2599C12.9 32.1199 11.42 29.5599 7.8 29.5599C5.7 29.5599 4 27.8399 4 25.7599Z" stroke="black" stroke-width="2.2" stroke-miterlimit="10" stroke-linecap="round" stroke-linejoin="round"/>
<path d="M38.9583 30C34.0223 30 30 34.0223 30 38.9583C30 43.8944 34.0223 47.9167 38.9583 47.9167C43.8944 47.9167 47.9167 43.8944 47.9167 38.9583C47.9167 34.0223 43.8944 30 38.9583 30Z" fill="white"/>
<path d="M38.9583 30C34.0223 30 30 34.0223 30 38.9583C30 43.8944 34.0223 47.9167 38.9583 47.9167C43.8944 47.9167 47.9167 43.8944 47.9167 38.9583C47.9167 34.0223 43.8944 30 38.9583 30ZM43.2404 36.8979L38.161 41.9773C38.0356 42.1027 37.8654 42.1744 37.6863 42.1744C37.5071 42.1744 37.3369 42.1027 37.2115 41.9773L34.6762 39.4421C34.4165 39.1823 34.4165 38.7523 34.6762 38.4925C34.936 38.2327 35.366 38.2327 35.6258 38.4925L37.6863 40.5529L42.2908 35.9483C42.5506 35.6885 42.9806 35.6885 43.2404 35.9483C43.5002 36.2081 43.5002 36.6292 43.2404 36.8979Z" fill="#05ac5e"/>
</svg>
