<svg width="48" height="48" viewBox="0 0 48 48" fill="none" xmlns="http://www.w3.org/2000/svg">
<path d="M20.9803 4.46012L11.0003 8.22012C8.70031 9.08012 6.82031 11.8001 6.82031 14.2401V29.1001C6.82031 31.4601 8.38031 34.5601 10.2803 35.9801L18.8803 42.4001C21.7003 44.5201 26.3403 44.5201 29.1603 42.4001L37.7603 35.9801C39.6603 34.5601 41.2203 31.4601 41.2203 29.1001V14.2401C41.2203 11.7801 39.3403 9.06012 37.0403 8.20012L27.0603 4.46012C25.3603 3.84012 22.6403 3.84012 20.9803 4.46012Z" stroke="black" stroke-width="2.2" stroke-linecap="round" stroke-linejoin="round"/>
<path d="M18.0996 23.7399L21.3196 26.9599L29.9196 18.3599" stroke="#05ac5e" stroke-width="2.5" stroke-linecap="round" stroke-linejoin="round"/>
<path d="M38.9583 30C34.0223 30 30 34.0223 30 38.9583C30 43.8944 34.0223 47.9167 38.9583 47.9167C43.8944 47.9167 47.9167 43.8944 47.9167 38.9583C47.9167 34.0223 43.8944 30 38.9583 30Z" fill="white"/>
<path d="M38.9583 30C34.0223 30 30 34.0223 30 38.9583C30 43.8944 34.0223 47.9167 38.9583 47.9167C43.8944 47.9167 47.9167 43.8944 47.9167 38.9583C47.9167 34.0223 43.8944 30 38.9583 30ZM43.2404 36.8979L38.161 41.9773C38.0356 42.1027 37.8654 42.1744 37.6863 42.1744C37.5071 42.1744 37.3369 42.1027 37.2115 41.9773L34.6762 39.4421C34.4165 39.1823 34.4165 38.7523 34.6762 38.4925C34.936 38.2327 35.366 38.2327 35.6258 38.4925L37.6863 40.5529L42.2908 35.9483C42.5506 35.6885 42.9806 35.6885 43.2404 35.9483C43.5002 36.2081 43.5002 36.6292 43.2404 36.8979Z" fill="#05ac5e"/>
</svg>
