<svg width="27" height="36" viewBox="0 0 27 36" fill="none" xmlns="http://www.w3.org/2000/svg">
<g opacity="0.5">
<g opacity="0.2">
<path d="M26.2783 13.8059C26.2783 20.7657 19.215 27.9334 15.6626 31.0984C14.5188 32.1165 12.8319 32.105 11.6988 31.0763C8.15166 27.8555 1.06445 20.5746 1.06445 13.8059C1.06445 6.76909 6.70893 1.06445 13.6714 1.06445C20.6339 1.06445 26.2783 6.76909 26.2783 13.8059Z" fill="#05AC5E"/>
<path d="M15.7087 31.1498C17.4867 29.5655 20.1448 26.9791 22.3581 23.9158C24.5713 20.8543 26.3466 17.3089 26.3466 13.8077C26.3466 6.7347 20.6738 1 13.6733 1C6.67368 1 1 6.7347 1 13.8077C1 17.2134 2.78156 20.7401 4.99918 23.8123C7.21858 26.8871 9.88025 29.5151 11.6556 31.1268C12.8144 32.1794 14.5393 32.1909 15.7087 31.1498Z" fill="#05AC5E" stroke="url(#paint0_radial_17_135)" stroke-width="0.150251"/>
</g>
<path d="M24.438 14.2954C24.438 20.2371 18.407 26.3574 15.3738 29.0589C14.3972 29.9285 12.9571 29.9187 11.9894 29.0404C8.96151 26.2911 2.91016 20.0743 2.91016 14.2954C2.91016 8.28649 7.72929 3.41602 13.6745 3.41602C19.6188 3.41602 24.438 8.28649 24.438 14.2954Z" fill="#05AC5E"/>
<path d="M15.4118 29.1014C16.9298 27.7489 19.1987 25.5401 21.089 22.9253C22.9785 20.3114 24.4946 17.2843 24.4946 14.2954C24.4946 8.25638 19.6507 3.35938 13.6745 3.35938C7.69744 3.35938 2.85352 8.25638 2.85352 14.2954C2.85352 17.203 4.375 20.2141 6.26798 22.8368C8.16274 25.4613 10.4361 27.7064 11.9514 29.0819C12.9403 29.9806 14.414 29.9904 15.4118 29.1014Z" stroke="#05AC5E" stroke-width="0.128284"/>
<path d="M13.6612 36.0006C14.582 36.0006 15.3284 35.4142 15.3284 34.6907C15.3284 33.9673 14.582 33.3809 13.6612 33.3809C12.7405 33.3809 11.9941 33.9673 11.9941 34.6907C11.9941 35.4142 12.7405 36.0006 13.6612 36.0006Z" fill="#05AC5E"/>
<path d="M8.5625 10.2727H11.5114L13.5398 15.2159H13.642L15.6705 10.2727H18.6193V19H16.3011V13.9545H16.233L14.2898 18.9318H12.892L10.9489 13.9205H10.8807V19H8.5625V10.2727Z" fill="white"/>
</g>
<defs>
<radialGradient id="paint0_radial_17_135" cx="0" cy="0" r="1" gradientUnits="userSpaceOnUse" gradientTransform="translate(13.6733 15.5946) rotate(52.5392) scale(20.1467 22.5609)">
<stop offset="0.0835782" stop-color="#2C1338" stop-opacity="0.22"/>
<stop offset="0.303225" stop-color="#2C1338" stop-opacity="0.13"/>
<stop offset="0.494126" stop-color="white"/>
<stop offset="0.854586" stop-color="#FCEDE3" stop-opacity="0.64"/>
<stop offset="0.955285" stop-color="#F9F9F9" stop-opacity="0.46"/>
</radialGradient>
</defs>
</svg>
